<?xml version="1.0" encoding="utf-8"?>
<!-- Generator: Adobe Illustrator 22.1.0, SVG Export Plug-In . SVG Version: 6.00 Build 0)  -->
<svg version="1.1" id="Layer_1" xmlns="http://www.w3.org/2000/svg" xmlns:xlink="http://www.w3.org/1999/xlink" x="0px" y="0px"
	 viewBox="0 0 22.9 18" style="enable-background:new 0 0 22.9 18;" xml:space="preserve">
<style type="text/css">
	.st0{fill:url(#SVGID_1_);}
</style>
<linearGradient id="SVGID_1_" gradientUnits="userSpaceOnUse" x1="2.7123" y1="20.1266" x2="22.1593" y2="0.6796">
	<stop  offset="0" style="stop-color:#D51F53"/>
	<stop  offset="1" style="stop-color:#F15A22"/>
</linearGradient>
<path class="st0" d="M8.3,10c2.8,0,5-2.2,5-5s-2.2-5-5-5s-5,2.2-5,5S5.5,10,8.3,10z M8.3,2c1.7,0,3,1.3,3,3s-1.3,3-3,3s-3-1.3-3-3
	S6.6,2,8.3,2z M8.3,11.3c-3.5,0-6.7,2.1-8.2,5.2c-0.1,0.3-0.1,0.7,0.1,1C0.3,17.8,0.7,18,1,18h14.5c0.3,0,0.7-0.2,0.8-0.5
	c0.2-0.3,0.2-0.6,0.1-1C15,13.4,11.8,11.3,8.3,11.3z M2.8,16c1.3-1.7,3.3-2.7,5.5-2.7s4.2,1,5.5,2.7H2.8z M15.5,2.8h6.4
	c0.6,0,1-0.4,1-1s-0.4-1-1-1h-6.4c-0.6,0-1,0.4-1,1S14.9,2.8,15.5,2.8z M21.9,5.6h-5.6c-0.6,0-1,0.4-1,1s0.4,1,1,1h5.6
	c0.6,0,1-0.4,1-1S22.4,5.6,21.9,5.6z M21.9,15.2h-2.4c-0.6,0-1,0.4-1,1s0.4,1,1,1h2.4c0.6,0,1-0.4,1-1S22.4,15.2,21.9,15.2z
	 M21.9,10.4h-7.2c-0.6,0-1,0.4-1,1s0.4,1,1,1h7.2c0.6,0,1-0.4,1-1S22.4,10.4,21.9,10.4z"/>
</svg>
