<?xml version="1.0" encoding="utf-8"?>
<!-- Generator: Adobe Illustrator 22.1.0, SVG Export Plug-In . SVG Version: 6.00 Build 0)  -->
<svg version="1.1" id="Layer_1" xmlns="http://www.w3.org/2000/svg" xmlns:xlink="http://www.w3.org/1999/xlink" x="0px" y="0px"
	 viewBox="0 0 151 46" style="enable-background:new 0 0 151 46;" xml:space="preserve">
<style type="text/css">
	.st0{fill:#FFFFFF;}
</style>
<g>
	<path d="M151,39.8c0,3.4-3,6.2-6.7,6.2H6.7C3,46,0,43.2,0,39.8V6.2C0,2.8,3,0,6.7,0h137.7c3.7,0,6.7,2.8,6.7,6.2V39.8z"/>
	<g>
		<path class="st0" d="M41.9,30.4c-0.7,1.7-1.1,2.4-2.1,3.8c-1.3,2-3.2,4.6-5.6,4.6c-2.1,0-2.6-1.4-5.4-1.3c-2.8,0-3.4,1.4-5.5,1.3
			c-2.3,0-4.1-2.3-5.5-4.3c-3.7-5.7-4.1-12.4-1.8-15.9c1.6-2.5,4.2-4,6.7-4c2.5,0,4,1.4,6.1,1.4c2,0,3.2-1.4,6.1-1.4
			c2.2,0,4.5,1.2,6.1,3.2C35.6,20.7,36.5,28.4,41.9,30.4z"/>
		<g>
			<path class="st0" d="M32.7,12.3c1-1.3,1.8-3.2,1.5-5.1c-1.7,0.1-3.7,1.2-4.8,2.6c-1.1,1.3-1.9,3.2-1.6,5
				C29.6,14.8,31.6,13.7,32.7,12.3z"/>
		</g>
	</g>
	<g>
		<g>
			<path class="st0" d="M53.3,18.5l-5.4,15.8h2.5l1.6-4.8h5.2l1.6,4.8h2.5l-5.4-15.8H53.3z M54.5,21.1c0.2,0.7,0.4,1.4,0.6,2.2
				l1.4,4.2h-4.1l1.4-4.2C54.1,22.6,54.3,21.9,54.5,21.1z"/>
			<path class="st0" d="M68.2,22.6c-1.6,0-2.9,0.6-3.8,1.8l-0.1-1.6h-2.2l0,0.2c0.1,1,0.1,2.1,0.1,3.6v12.2h2.4v-5.7
				c0.7,0.9,1.9,1.4,3.3,1.4c1.4,0,2.7-0.5,3.6-1.5c1-1.1,1.6-2.7,1.6-4.6c0-1.7-0.5-3.1-1.4-4.2C70.9,23.2,69.6,22.6,68.2,22.6z
				 M67.6,24.6c2.1,0,3.1,2,3.1,3.9c0,2.5-1.2,4.1-3.2,4.1c-1.3,0-2.5-0.9-2.8-2.2c-0.1-0.2-0.1-0.5-0.1-0.8v-1.9
				c0-0.2,0-0.4,0.1-0.6c0-0.1,0-0.1,0-0.2C65.1,25.5,66.3,24.6,67.6,24.6z"/>
			<path class="st0" d="M80.5,22.6c-1.6,0-2.9,0.6-3.8,1.8l-0.1-1.6h-2.2l0,0.2c0.1,1,0.1,2.1,0.1,3.6v12.2h2.4v-5.7
				c0.7,0.9,1.9,1.4,3.3,1.4c1.4,0,2.7-0.5,3.6-1.5c1-1.1,1.6-2.7,1.6-4.6c0-1.7-0.5-3.1-1.4-4.2C83.1,23.2,81.9,22.6,80.5,22.6z
				 M79.9,24.6c2.1,0,3.1,2,3.1,3.9c0,2.5-1.2,4.1-3.2,4.1c-1.3,0-2.5-0.9-2.8-2.2c-0.1-0.2-0.1-0.5-0.1-0.8v-1.9
				c0-0.2,0-0.4,0.1-0.6c0-0.1,0-0.1,0-0.2C77.4,25.5,78.6,24.6,79.9,24.6z"/>
			<path class="st0" d="M95.9,25.2c-2.2-0.9-2.9-1.5-2.9-2.8c0-1.1,0.8-2.1,2.7-2.1c1.5,0,2.5,0.5,2.8,0.7l0.2,0.1l0.7-2L99.2,19
				c-0.4-0.2-1.5-0.8-3.5-0.8c-3,0-5.2,1.8-5.2,4.4c0,2.1,1.3,3.5,4.2,4.6c2,0.8,2.8,1.5,2.8,2.9c0,1.5-1.2,2.4-3,2.4
				c-1.2,0-2.5-0.4-3.4-1l-0.2-0.1l-0.6,2l0.1,0.1c0.9,0.6,2.6,1,4,1c4.1,0,5.6-2.5,5.6-4.6C99.9,27.7,98.8,26.3,95.9,25.2z"/>
			<path class="st0" d="M104.2,20.1l-2.3,0.7v2h-1.7v1.9h1.7v5.8c0,1.4,0.3,2.4,0.8,3c0.5,0.6,1.4,0.9,2.3,0.9
				c0.9,0,1.5-0.2,1.8-0.3l0.1,0l-0.1-1.9l-0.2,0.1c-0.3,0.1-0.6,0.1-1.1,0.1c-0.9,0-1.3-0.6-1.3-2v-5.8h2.9v-1.9h-2.9V20.1z"/>
			<path class="st0" d="M113,22.6c-3.3,0-5.7,2.5-5.7,6.1c0,3.5,2.3,5.9,5.5,5.9h0c2.7,0,5.7-1.9,5.7-6.1c0-1.7-0.5-3.2-1.5-4.2
				C116,23.1,114.6,22.6,113,22.6z M113,24.5c2.1,0,3.1,2.1,3.1,4c0,2.4-1.3,4.1-3.2,4.1h0c-1.8,0-3.1-1.7-3.1-4.1
				C109.8,26.5,110.7,24.5,113,24.5z"/>
			<path class="st0" d="M125.8,22.7l-0.1,0c-0.2-0.1-0.4-0.1-0.6-0.1c-1.2,0-2.4,0.7-3,1.9l-0.1-1.7h-2.1l0,0.2
				c0.1,0.9,0.1,2,0.1,3.4l0,7.8h2.4v-6.1c0-0.3,0-0.6,0.1-0.9c0.3-1.5,1.3-2.4,2.5-2.4c0.2,0,0.4,0,0.6,0l0.3,0V22.7z"/>
			<path class="st0" d="M131.2,22.6c-3.2,0-5.4,2.5-5.4,6.2c0,3.5,2.2,5.8,5.6,5.8c1.8,0,3-0.4,3.8-0.7l0.1-0.1l-0.5-1.8l-0.2,0.1
				c-0.7,0.3-1.5,0.5-3,0.5c-1,0-3.4-0.3-3.6-3.5l7.7,0l0-0.2c0-0.2,0.1-0.6,0.1-1C135.9,25.5,134.7,22.6,131.2,22.6z M131,24.4
				c0.7,0,1.3,0.2,1.8,0.7c0.7,0.7,0.8,1.7,0.8,2.2h-5.4C128.4,25.9,129.3,24.4,131,24.4z"/>
		</g>
		<g>
			<path class="st0" d="M47.9,7.7c0.7-0.1,1.4-0.2,2.3-0.2c1.5,0,2.6,0.3,3.4,0.9c0.8,0.6,1.2,1.5,1.2,2.7c0,1.2-0.4,2.2-1.2,2.9
				c-0.8,0.7-2.1,1.1-3.7,1.1c-0.8,0-1.4,0-2-0.1V7.7z M49,14.3c0.3,0,0.7,0,1.1,0c2.3,0,3.5-1.2,3.5-3.2c0-1.8-1.1-2.9-3.4-2.9
				c-0.6,0-1,0-1.3,0.1V14.3z"/>
			<path class="st0" d="M58.6,15.2c-1.6,0-2.9-1.1-2.9-2.8c0-1.8,1.3-2.8,3-2.8c1.7,0,2.9,1.1,2.9,2.7C61.5,14.3,60,15.2,58.6,15.2
				L58.6,15.2z M58.6,14.5c1,0,1.8-0.9,1.8-2.1c0-0.9-0.5-2-1.8-2c-1.3,0-1.8,1.1-1.8,2.1C56.8,13.6,57.5,14.5,58.6,14.5L58.6,14.5z
				"/>
			<path class="st0" d="M63.2,9.7l0.8,2.7c0.2,0.6,0.3,1.2,0.4,1.7h0c0.1-0.5,0.3-1.1,0.5-1.7l1-2.7h0.9l0.9,2.7
				c0.2,0.6,0.4,1.2,0.5,1.7h0c0.1-0.5,0.3-1.1,0.5-1.7l0.8-2.7h1.1l-1.9,5.4h-1L67,12.5c-0.2-0.6-0.4-1.1-0.5-1.8h0
				c-0.1,0.6-0.3,1.2-0.5,1.8l-1,2.5h-1l-1.8-5.4H63.2z"/>
			<path class="st0" d="M71.9,11.2c0-0.6,0-1,0-1.5h1l0.1,0.9h0c0.3-0.5,1-1,2-1c0.8,0,2.1,0.4,2.1,2.3v3.2h-1.1V12
				c0-0.9-0.4-1.6-1.4-1.6c-0.7,0-1.3,0.5-1.5,1c0,0.1-0.1,0.3-0.1,0.5v3.2h-1.1V11.2z"/>
			<path class="st0" d="M78.7,7.2h1.1v7.9h-1.1V7.2z"/>
			<path class="st0" d="M84,15.2c-1.6,0-2.9-1.1-2.9-2.8c0-1.8,1.3-2.8,3-2.8c1.7,0,2.9,1.1,2.9,2.7C87,14.3,85.4,15.2,84,15.2
				L84,15.2z M84,14.5c1,0,1.8-0.9,1.8-2.1c0-0.9-0.5-2-1.8-2c-1.3,0-1.8,1.1-1.8,2.1C82.2,13.6,83,14.5,84,14.5L84,14.5z"/>
			<path class="st0" d="M92.5,13.8c0,0.5,0,0.9,0.1,1.3h-1l-0.1-0.7h0c-0.3,0.4-1,0.8-1.8,0.8c-1.2,0-1.8-0.8-1.8-1.5
				c0-1.3,1.3-2,3.6-2v-0.1c0-0.4-0.1-1.3-1.4-1.2c-0.6,0-1.1,0.1-1.6,0.4l-0.2-0.7c0.5-0.3,1.2-0.5,2-0.5c1.8,0,2.3,1.1,2.3,2.2
				V13.8z M91.5,12.3c-1.2,0-2.5,0.2-2.5,1.2c0,0.6,0.5,0.9,1,0.9c0.8,0,1.3-0.4,1.5-0.9c0-0.1,0-0.2,0-0.3V12.3z"/>
			<path class="st0" d="M99.4,7.2v6.5c0,0.5,0,1,0,1.4h-1l0-0.9h0c-0.3,0.6-1,1.1-2,1.1c-1.4,0-2.6-1.1-2.6-2.7
				c0-1.8,1.2-2.9,2.7-2.9c0.9,0,1.5,0.4,1.8,0.8h0V7.2H99.4z M98.3,11.9c0-0.1,0-0.3,0-0.4c-0.2-0.6-0.8-1.1-1.6-1.1
				c-1.1,0-1.8,0.9-1.8,2.1c0,1.1,0.6,2,1.8,2c0.7,0,1.4-0.4,1.6-1.2c0-0.1,0-0.3,0-0.4V11.9z"/>
			<path class="st0" d="M106.2,15.2c-1.6,0-2.9-1.1-2.9-2.8c0-1.8,1.3-2.8,3-2.8c1.7,0,2.9,1.1,2.9,2.7
				C109.2,14.3,107.7,15.2,106.2,15.2L106.2,15.2z M106.3,14.5c1,0,1.8-0.9,1.8-2.1c0-0.9-0.5-2-1.8-2c-1.3,0-1.8,1.1-1.8,2.1
				C104.5,13.6,105.2,14.5,106.3,14.5L106.3,14.5z"/>
			<path class="st0" d="M110.6,11.2c0-0.6,0-1,0-1.5h1l0.1,0.9h0c0.3-0.5,1-1,2-1c0.8,0,2.1,0.4,2.1,2.3v3.2h-1.1V12
				c0-0.9-0.4-1.6-1.4-1.6c-0.7,0-1.3,0.5-1.5,1c0,0.1-0.1,0.3-0.1,0.5v3.2h-1.1V11.2z"/>
			<path class="st0" d="M121.3,8.4v1.3h1.5v0.7h-1.5v2.9c0,0.7,0.2,1,0.8,1c0.3,0,0.5,0,0.6-0.1l0,0.7c-0.2,0.1-0.5,0.1-1,0.1
				c-0.5,0-0.9-0.2-1.2-0.4c-0.3-0.3-0.4-0.8-0.4-1.4v-2.9h-0.9V9.7h0.9v-1L121.3,8.4z"/>
			<path class="st0" d="M124.1,7.2h1.1v3.3h0c0.2-0.3,0.4-0.5,0.8-0.7c0.3-0.2,0.7-0.3,1.1-0.3c0.8,0,2.1,0.4,2.1,2.3v3.2h-1.1V12
				c0-0.9-0.4-1.6-1.4-1.6c-0.7,0-1.2,0.4-1.5,1c-0.1,0.1-0.1,0.3-0.1,0.5v3.2h-1.1V7.2z"/>
			<path class="st0" d="M131.5,12.6c0,1.3,0.9,1.9,2,1.9c0.8,0,1.3-0.1,1.6-0.3l0.2,0.7c-0.4,0.2-1,0.3-2,0.3
				c-1.8,0-2.9-1.1-2.9-2.7c0-1.6,1.1-2.9,2.8-2.9c1.9,0,2.4,1.5,2.4,2.5c0,0.2,0,0.4,0,0.5L131.5,12.6z M134.7,11.9
				c0-0.6-0.3-1.6-1.5-1.6c-1.1,0-1.6,0.9-1.7,1.6H134.7z"/>
		</g>
	</g>
</g>
</svg>
