<?xml version="1.0" encoding="utf-8"?>
<!-- Generator: Adobe Illustrator 22.1.0, SVG Export Plug-In . SVG Version: 6.00 Build 0)  -->
<svg version="1.1" id="Layer_1" xmlns="http://www.w3.org/2000/svg" xmlns:xlink="http://www.w3.org/1999/xlink" x="0px" y="0px"
	 viewBox="0 0 21.1 25.4" style="enable-background:new 0 0 21.1 25.4;" xml:space="preserve">
<style type="text/css">
	.st0{fill:#D51F53;}
	.st1{fill:#F15A22;}
	.st2{fill:#0096DB;}
	.st3{fill:#FDB913;}
	.st4{fill:#8BC53F;}
</style>
<g>
	<path class="st0" d="M2.2,13C1,13,0,14,0,15.2c0,1.2,1,2.2,2.2,2.2s2.2-1,2.2-2.2C4.4,14,3.4,13,2.2,13z"/>
	<path class="st1" d="M19.1,2.2c0-1.2-1-2.2-2.2-2.2s-2.2,1-2.2,2.2c0,1.2,1,2.2,2.2,2.2S19.1,3.4,19.1,2.2z"/>
	<path class="st2" d="M18.9,21c-1.2,0-2.2,1-2.2,2.2c0,1.2,1,2.2,2.2,2.2s2.2-1,2.2-2.2C21.1,22,20.1,21,18.9,21z"/>
	<path class="st3" d="M7.5,22.8c-0.6,0-1.1,0.5-1.1,1.1c0,0.6,0.5,1.1,1.1,1.1s1.1-0.5,1.1-1.1C8.5,23.3,8.1,22.8,7.5,22.8z"/>
	<path class="st4" d="M9.5,6.4c-0.6,0-1.1,0.5-1.1,1.1s0.5,1.1,1.1,1.1s1.1-0.5,1.1-1.1S10.1,6.4,9.5,6.4z"/>
</g>
</svg>
