<?xml version="1.0" encoding="utf-8"?>
<!-- Generator: Adobe Illustrator 22.1.0, SVG Export Plug-In . SVG Version: 6.00 Build 0)  -->
<svg version="1.1" id="Layer_1" xmlns="http://www.w3.org/2000/svg" xmlns:xlink="http://www.w3.org/1999/xlink" x="0px" y="0px"
	 viewBox="0 0 25 24.3" style="enable-background:new 0 0 25 24.3;" xml:space="preserve">
<style type="text/css">
	.st0{fill:#999999;}
</style>
<path class="st0" d="M23.2,1.7c-2.4-2.3-6.3-2.3-8.6,0l-4.2,4.1c-0.3,0.3-0.4,0.6-0.4,1c0,0.4,0.2,0.7,0.4,1c0.6,0.5,1.5,0.5,2,0
	l4.2-4.1c1.3-1.3,3.3-1.3,4.6,0c0.6,0.6,1,1.4,1,2.2s-0.3,1.6-1,2.2l-4.4,4.3c-1.3,1.3-3.3,1.3-4.6,0c-0.6-0.5-1.5-0.5-2,0
	c-0.3,0.3-0.4,0.6-0.4,1c0,0.4,0.2,0.7,0.4,1c1,0.9,2.2,1.5,3.4,1.7c-0.4,0-0.7,0.1-1,0.4l-4.2,4.1c-1.3,1.2-3.3,1.3-4.6,0
	c-0.6-0.6-1-1.4-1-2.2s0.3-1.6,1-2.2l4.4-4.3c1.3-1.3,3.3-1.3,4.5-0.1c0.4,0.5,0.9,1.1,1.7,1.1h0c0.8,0,1.4-0.6,1.4-1.4
	c0-0.6-0.4-1-0.8-1.4l-0.3-0.2c-2.4-2.3-6.3-2.3-8.6,0l-4.4,4.3C0.6,15.3,0,16.8,0,18.4c0,1.6,0.6,3.1,1.8,4.2
	c1.2,1.2,2.8,1.7,4.3,1.7c1.6,0,3.1-0.6,4.3-1.7l4.2-4.1c0.3-0.3,0.4-0.6,0.4-1c0-0.4-0.2-0.7-0.4-1c-0.3-0.3-0.7-0.4-1-0.4
	c0.3,0,0.6,0.1,0.9,0.1c1.6,0,3.1-0.6,4.3-1.7l4.4-4.3C24.4,9,25,7.5,25,5.9C25,4.4,24.4,2.9,23.2,1.7z"/>
</svg>
