<?xml version="1.0" encoding="utf-8"?>
<!-- Generator: Adobe Illustrator 22.1.0, SVG Export Plug-In . SVG Version: 6.00 Build 0)  -->
<svg version="1.1" id="Layer_1" xmlns="http://www.w3.org/2000/svg" xmlns:xlink="http://www.w3.org/1999/xlink" x="0px" y="0px"
	 viewBox="0 0 42 42" style="enable-background:new 0 0 42 42;" xml:space="preserve">
<style type="text/css">
	.st0{fill:url(#SVGID_1_);}
	.st1{fill:url(#SVGID_2_);}
	.st2{fill:url(#SVGID_3_);}
	.st3{fill:#FFFFFF;}
</style>
<g>
	<linearGradient id="SVGID_1_" gradientUnits="userSpaceOnUse" x1="1.1958" y1="30.8943" x2="30.8943" y2="1.1958">
		<stop  offset="0" style="stop-color:#D51F53"/>
		<stop  offset="1" style="stop-color:#F15A22"/>
	</linearGradient>
	<path class="st0" d="M16.4,17.4c0.9,0,1.7-0.8,1.7-1.7S17.3,14,16.4,14s-1.7,0.8-1.7,1.7S15.5,17.4,16.4,17.4z"/>
	<linearGradient id="SVGID_2_" gradientUnits="userSpaceOnUse" x1="11.1057" y1="40.8042" x2="40.8042" y2="11.1057">
		<stop  offset="0" style="stop-color:#D51F53"/>
		<stop  offset="1" style="stop-color:#F15A22"/>
	</linearGradient>
	<path class="st1" d="M25.6,24.6c-0.9,0-1.7,0.8-1.7,1.7s0.8,1.7,1.7,1.7s1.7-0.8,1.7-1.7S26.5,24.6,25.6,24.6z"/>
	<linearGradient id="SVGID_3_" gradientUnits="userSpaceOnUse" x1="6.1508" y1="35.8492" x2="35.8492" y2="6.1507">
		<stop  offset="0" style="stop-color:#D51F53"/>
		<stop  offset="1" style="stop-color:#F15A22"/>
	</linearGradient>
	<path class="st2" d="M42,21c0-0.9-2-1.6-2.2-2.5c-0.1-0.9,1.7-2.1,1.4-3c-0.2-0.8-2.4-1-2.7-1.8c-0.3-0.8,1.1-2.5,0.6-3.2
		c-0.4-0.8-2.6-0.4-3.1-1.1c-0.5-0.7,0.4-2.7-0.2-3.3c-0.6-0.6-2.6,0.3-3.3-0.2c-0.7-0.5-0.3-2.7-1.1-3.1c-0.8-0.4-2.4,1-3.2,0.6
		c-0.8-0.3-1-2.5-1.8-2.7c-0.8-0.2-2.1,1.6-3,1.4C22.6,2,21.9,0,21,0c-0.9,0-1.6,2-2.5,2.2c-0.9,0.1-2.1-1.7-3-1.4
		c-0.8,0.2-1,2.4-1.8,2.7c-0.8,0.3-2.5-1.1-3.2-0.6c-0.8,0.4-0.4,2.6-1.1,3.1C8.7,6.5,6.8,5.5,6.2,6.1C5.5,6.8,6.5,8.7,5.9,9.4
		c-0.5,0.7-2.7,0.3-3.1,1.1c-0.4,0.8,1,2.4,0.6,3.2c-0.3,0.8-2.5,1-2.7,1.8c-0.2,0.8,1.6,2.1,1.4,3C2,19.4,0,20.1,0,21
		c0,0.9,2,1.6,2.2,2.5c0.1,0.9-1.7,2.1-1.4,3c0.2,0.8,2.4,1,2.7,1.8c0.3,0.8-1.1,2.5-0.6,3.2c0.4,0.8,2.6,0.4,3.1,1.1
		c0.5,0.7-0.4,2.7,0.2,3.3c0.6,0.6,2.6-0.3,3.3,0.2c0.7,0.5,0.3,2.7,1.1,3.1c0.8,0.4,2.4-1,3.2-0.6c0.8,0.3,1,2.5,1.8,2.7
		c0.8,0.2,2.1-1.6,3-1.4C19.4,40,20.1,42,21,42c0.9,0,1.6-2,2.5-2.2c0.9-0.1,2.1,1.7,3,1.4c0.8-0.2,1-2.4,1.8-2.7
		c0.8-0.3,2.5,1.1,3.2,0.6c0.8-0.4,0.4-2.6,1.1-3.1c0.7-0.5,2.7,0.4,3.3-0.2s-0.3-2.6,0.2-3.3c0.5-0.7,2.7-0.3,3.1-1.1
		c0.4-0.8-1-2.4-0.6-3.2c0.3-0.8,2.5-1,2.7-1.8c0.2-0.8-1.6-2.1-1.4-3C40,22.6,42,21.9,42,21z M16.4,12c2,0,3.7,1.7,3.7,3.7
		c0,2-1.7,3.7-3.7,3.7s-3.7-1.7-3.7-3.7C12.7,13.7,14.4,12,16.4,12z M14.7,28.7C14.5,28.9,14.3,29,14,29s-0.5-0.1-0.7-0.3
		c-0.4-0.4-0.4-1,0-1.4l14-14c0.4-0.4,1-0.4,1.4,0s0.4,1,0,1.4L14.7,28.7z M25.6,30c-2,0-3.7-1.7-3.7-3.7c0-2,1.7-3.7,3.7-3.7
		s3.7,1.7,3.7,3.7C29.3,28.3,27.6,30,25.6,30z"/>
	<path class="st3" d="M28.7,13.3c-0.4-0.4-1-0.4-1.4,0l-14,14c-0.4,0.4-0.4,1,0,1.4c0.2,0.2,0.5,0.3,0.7,0.3s0.5-0.1,0.7-0.3l14-14
		C29.1,14.3,29.1,13.7,28.7,13.3z"/>
	<path class="st3" d="M25.6,22.6c-2,0-3.7,1.7-3.7,3.7c0,2,1.7,3.7,3.7,3.7s3.7-1.7,3.7-3.7C29.3,24.3,27.6,22.6,25.6,22.6z
		 M25.6,28c-0.9,0-1.7-0.8-1.7-1.7s0.8-1.7,1.7-1.7s1.7,0.8,1.7,1.7S26.5,28,25.6,28z"/>
	<path class="st3" d="M16.4,19.4c2,0,3.7-1.7,3.7-3.7c0-2-1.7-3.7-3.7-3.7s-3.7,1.7-3.7,3.7C12.7,17.7,14.4,19.4,16.4,19.4z
		 M16.4,14c0.9,0,1.7,0.8,1.7,1.7s-0.8,1.7-1.7,1.7s-1.7-0.8-1.7-1.7S15.5,14,16.4,14z"/>
</g>
</svg>
