<?xml version="1.0" encoding="utf-8"?>
<!-- Generator: Adobe Illustrator 22.1.0, SVG Export Plug-In . SVG Version: 6.00 Build 0)  -->
<svg version="1.1" id="Isolation_Mode" xmlns="http://www.w3.org/2000/svg" xmlns:xlink="http://www.w3.org/1999/xlink" x="0px"
	 y="0px" viewBox="0 0 46 46" style="enable-background:new 0 0 46 46;" xml:space="preserve">
<style type="text/css">
	.st0{fill:#3B579D;}
	.st1{fill:#FFFFFF;}
</style>
<g>
	<path class="st0" d="M40,0H6C2.7,0,0,2.7,0,6v34c0,3.3,2.7,6,6,6h34c3.3,0,6-2.7,6-6V6C46,2.7,43.3,0,40,0z M29.1,23.6h-3.9v11.9
		H20V23.6h-3.5v-4.4h3.3c0-0.4,0-3.7,0.2-4.4c0,0,0,0,0,0c0,0,0,0,0,0c1.5-5.7,9.3-3.9,9.4-3.9h0v0h0v3.8l0,0l0,0.2
		c0,0-4-0.4-4.2,1.9v2.5h3.8h0.4L29.1,23.6z"/>
	<path class="st1" d="M25.2,19.2v-2.5c0.3-2.3,4.2-1.9,4.2-1.9l0-0.2l0,0v-3.8h0v0h0c-0.1,0-7.9-1.8-9.4,3.9c0,0,0,0,0,0
		c0,0,0,0,0,0c-0.2,0.7-0.2,4-0.2,4.4h-3.3v4.4H20v11.9h5.1V23.6h3.9l0.4-4.4h-0.4H25.2z"/>
</g>
</svg>
