<?xml version="1.0" encoding="utf-8"?>
<!-- Generator: Adobe Illustrator 22.1.0, SVG Export Plug-In . SVG Version: 6.00 Build 0)  -->
<svg version="1.1" id="Layer_1" xmlns="http://www.w3.org/2000/svg" xmlns:xlink="http://www.w3.org/1999/xlink" x="0px" y="0px"
	 viewBox="0 0 23.5 24" style="enable-background:new 0 0 23.5 24;" xml:space="preserve">
<style type="text/css">
	.st0{fill:#FFFFFF;}
	.st1{fill:#EA4335;}
	.st2{fill:#FBBC05;}
	.st3{fill:#4285F4;}
	.st4{fill:#34A853;}
</style>
<g>
	<path class="st0" d="M8,0.6c-2.9,1-5.4,3.2-6.8,5.9c-0.5,0.9-0.9,2-1,3c-0.5,2.6-0.2,5.4,1,7.7c0.8,1.6,1.9,2.9,3.3,4
		c1.2,1,2.7,1.8,4.4,2.2c2,0.5,4.1,0.5,6.1,0.1c1.8-0.4,3.5-1.2,4.9-2.6c1.5-1.3,2.5-3,3-5c0.6-2,0.7-4.2,0.3-6.3
		c-3.7,0-7.5,0-11.2,0c0,1.6,0,3.1,0,4.7c2.2,0,4.4,0,6.5,0c-0.2,1.5-1.2,2.9-2.4,3.7c-0.8,0.5-1.7,0.9-2.7,1c-0.9,0.2-2,0.2-2.9,0
		c-0.9-0.2-1.9-0.6-2.7-1.2c-1.2-0.9-2.3-2.2-2.7-3.7c-0.5-1.5-0.5-3.1,0-4.7c0.4-1,0.9-2,1.7-2.8c0.9-1,2.2-1.7,3.6-2
		c1.2-0.2,2.3-0.2,3.5,0.2c0.9,0.3,1.9,0.9,2.6,1.5c0.7-0.7,1.5-1.5,2.2-2.2c0.4-0.4,0.8-0.8,1.2-1.2c-1.1-1-2.4-1.9-3.8-2.4
		C13.5-0.2,10.6-0.2,8,0.6z"/>
	<g>
		<path class="st1" d="M8,0.6c2.6-0.9,5.5-0.9,8,0.1c1.4,0.5,2.7,1.3,3.8,2.4c-0.4,0.4-0.8,0.8-1.2,1.2C18,5,17.3,5.8,16.5,6.5
			C15.8,5.8,14.9,5.2,14,5c-1.1-0.3-2.3-0.4-3.5-0.2c-1.3,0.3-2.6,1-3.6,2C6.1,7.6,5.5,8.6,5.2,9.6c-1.3-1-2.6-2-3.9-3
			C2.7,3.8,5.2,1.7,8,0.6z"/>
	</g>
	<g>
		<path class="st2" d="M0.2,9.6c0.2-1,0.5-2,1-3c1.3,1,2.6,2,3.9,3c-0.5,1.5-0.5,3.1,0,4.7c-1.3,1-2.6,2-3.9,3
			C0.1,14.9-0.3,12.2,0.2,9.6z"/>
	</g>
	<g>
		<path class="st3" d="M11.9,9.7c3.7,0,7.5,0,11.2,0c0.4,2.1,0.3,4.3-0.3,6.3c-0.5,1.9-1.6,3.6-3,5c-1.2-1-2.5-2-3.8-3
			c1.2-0.9,2.1-2.2,2.4-3.7c-2.2,0-4.4,0-6.5,0C11.9,12.8,11.9,11.3,11.9,9.7z"/>
	</g>
	<g>
		<path class="st4" d="M1.3,17.3c1.3-1,2.6-2,3.9-3c0.5,1.5,1.5,2.8,2.7,3.7c0.8,0.5,1.7,0.9,2.7,1.2c0.9,0.2,1.9,0.2,2.9,0
			c0.9-0.2,1.9-0.5,2.7-1c1.2,1,2.5,2,3.8,3c-1.4,1.2-3,2.1-4.9,2.6c-2,0.5-4.1,0.5-6.1-0.1c-1.6-0.4-3-1.2-4.4-2.2
			C3.2,20.2,2,18.8,1.3,17.3z"/>
	</g>
</g>
</svg>
