<?xml version="1.0" encoding="utf-8"?>
<!-- Generator: Adobe Illustrator 22.1.0, SVG Export Plug-In . SVG Version: 6.00 Build 0)  -->
<svg version="1.1" id="Layer_1" xmlns="http://www.w3.org/2000/svg" xmlns:xlink="http://www.w3.org/1999/xlink" x="0px" y="0px"
	 viewBox="0 0 138 45" style="enable-background:new 0 0 138 45;" xml:space="preserve">
<style type="text/css">
	.st0{fill:#231F20;}
	.st1{clip-path:url(#SVGID_2_);fill:url(#SVGID_3_);}
	.st2{clip-path:url(#SVGID_2_);fill:url(#SVGID_4_);}
	.st3{clip-path:url(#SVGID_2_);fill:url(#SVGID_5_);}
	.st4{clip-path:url(#SVGID_2_);fill:url(#SVGID_6_);}
	.st5{fill:#F9F9F9;}
</style>
<image style="overflow:visible;enable-background:new    ;" width="138" height="45" id="Layer_0" xlink:href="2B3E70892D30C9E5.png" >
</image>
<g>
	<path class="st0" d="M138,39.3c0,3.4-2.7,6.2-6.1,6.2H6.1c-3.4,0-6.1-2.8-6.1-6.2V5.7c0-3.4,2.7-6.2,6.1-6.2h125.8
		c3.4,0,6.1,2.8,6.1,6.2V39.3z"/>
	<g id="PLAY_1_">
		<defs>
			<path id="SVGID_1_" d="M29.2,18.3l-6.3-3.7c0,0-11.6-6.7-12.2-7.1C9.9,7.1,9.2,7.4,9.2,8.2c0,1.4,0,14.2,0,14.2s0,13.9,0,14.5
				c0,0.6,0.5,0.9,1.1,0.5c0.6-0.3,12.5-7.2,12.5-7.2l6.3-3.7c0,0,5.4-3.1,6.1-3.5c0.7-0.4,0.6-1,0-1.3
				C34.7,21.5,29.2,18.3,29.2,18.3z"/>
		</defs>
		<clipPath id="SVGID_2_">
			<use xlink:href="#SVGID_1_"  style="overflow:visible;"/>
		</clipPath>
		<linearGradient id="SVGID_3_" gradientUnits="userSpaceOnUse" x1="17.0897" y1="6.8605" x2="17.0897" y2="38.0115">
			<stop  offset="0" style="stop-color:#257DB0"/>
			<stop  offset="0.208" style="stop-color:#3C90B3"/>
			<stop  offset="0.7416" style="stop-color:#73BDB9"/>
			<stop  offset="1" style="stop-color:#89CEBC"/>
		</linearGradient>
		<polygon class="st1" points="9.2,6.9 9.2,22.4 9.2,38 24.9,22.4 		"/>
		<linearGradient id="SVGID_4_" gradientUnits="userSpaceOnUse" x1="9.2357" y1="14.5917" x2="29.1629" y2="14.5917">
			<stop  offset="0" style="stop-color:#51BFAC"/>
			<stop  offset="1" style="stop-color:#DEE899"/>
		</linearGradient>
		<polygon class="st2" points="29.2,18.3 22.8,14.6 9.2,6.7 9.2,6.9 24.9,22.4 		"/>
		<linearGradient id="SVGID_5_" gradientUnits="userSpaceOnUse" x1="19.1992" y1="22.4362" x2="19.1992" y2="38.1248">
			<stop  offset="0" style="stop-color:#EB403D"/>
			<stop  offset="0.1937" style="stop-color:#D64252"/>
			<stop  offset="0.7369" style="stop-color:#9F4887"/>
			<stop  offset="1" style="stop-color:#894A9C"/>
		</linearGradient>
		<polygon class="st3" points="9.2,38 9.2,38.1 22.8,30.3 29.2,26.6 24.9,22.4 		"/>
		<linearGradient id="SVGID_6_" gradientUnits="userSpaceOnUse" x1="30.6765" y1="18.2526" x2="30.6765" y2="26.6193">
			<stop  offset="0" style="stop-color:#F48779"/>
			<stop  offset="0.6121" style="stop-color:#FAB076"/>
			<stop  offset="1" style="stop-color:#FDC674"/>
		</linearGradient>
		<polygon class="st4" points="29.2,18.3 24.9,22.4 29.2,26.6 36.4,22.4 		"/>
	</g>
	<g>
		<g>
			<path class="st5" d="M106.1,26.8c-0.6,0-1.1-0.1-1.6-0.3c-0.5-0.2-0.9-0.6-1.2-1h-0.1c0.1,0.5,0.1,1,0.1,1.5v3.7h-1.4V17.6h1.1
				l0.2,1.2h0.1c0.4-0.5,0.8-0.9,1.2-1.1c0.5-0.2,1-0.3,1.6-0.3c1.2,0,2.1,0.4,2.8,1.2c0.7,0.8,1,2,1,3.5c0,1.5-0.3,2.6-1,3.5
				C108.2,26.4,107.3,26.8,106.1,26.8z M105.9,18.6c-0.9,0-1.6,0.3-2,0.8c-0.4,0.5-0.6,1.3-0.6,2.4v0.3c0,1.3,0.2,2.2,0.6,2.7
				c0.4,0.5,1.1,0.8,2,0.8c0.8,0,1.4-0.3,1.8-1c0.4-0.6,0.7-1.5,0.7-2.6c0-1.1-0.2-2-0.7-2.6C107.4,18.9,106.7,18.6,105.9,18.6z"/>
			<path class="st5" d="M113.1,26.7h-1.4V13.8h1.4V26.7z"/>
			<path class="st5" d="M121,26.7l-0.3-1.3h-0.1c-0.5,0.6-0.9,1-1.4,1.2c-0.4,0.2-1,0.3-1.7,0.3c-0.9,0-1.6-0.2-2.1-0.7
				s-0.8-1.1-0.8-2c0-1.8,1.5-2.8,4.4-2.9l1.5,0v-0.6c0-0.7-0.2-1.2-0.5-1.6c-0.3-0.3-0.8-0.5-1.5-0.5c-0.8,0-1.6,0.2-2.6,0.7
				l-0.4-1c0.4-0.2,0.9-0.4,1.5-0.6c0.5-0.1,1.1-0.2,1.6-0.2c1.1,0,1.9,0.2,2.4,0.7c0.5,0.5,0.8,1.2,0.8,2.3v6.2H121z M117.9,25.7
				c0.9,0,1.5-0.2,2-0.7c0.5-0.5,0.7-1.1,0.7-2v-0.8l-1.4,0.1c-1.1,0-1.9,0.2-2.4,0.5c-0.5,0.3-0.7,0.8-0.7,1.4
				c0,0.5,0.1,0.9,0.5,1.1C116.9,25.6,117.3,25.7,117.9,25.7z"/>
			<path class="st5" d="M122.8,17.6h1.5l2,5.2c0.4,1.2,0.7,2,0.8,2.6h0.1c0.1-0.3,0.2-0.8,0.5-1.4c0.2-0.7,1-2.8,2.2-6.3h1.5
				l-3.9,10.3c-0.4,1-0.8,1.7-1.4,2.2c-0.5,0.4-1.1,0.6-1.9,0.6c-0.4,0-0.8,0-1.2-0.1v-1.1c0.3,0.1,0.6,0.1,1,0.1
				c0.9,0,1.6-0.5,2-1.6l0.5-1.3L122.8,17.6z"/>
		</g>
		<g>
			<path class="st5" d="M80.7,18.5c0.4,0.4,1.3,1.1,1.3,2.6c0,1.4-0.8,2.1-1.6,2.7c-0.2,0.2-0.5,0.5-0.5,0.9c0,0.4,0.3,0.6,0.5,0.8
				l0.7,0.5c0.8,0.7,1.6,1.3,1.6,2.7c0,1.8-1.7,3.6-5,3.6c-2.7,0-4.1-1.3-4.1-2.7c0-0.7,0.3-1.6,1.5-2.3c1.2-0.7,2.8-0.8,3.6-0.9
				c-0.3-0.3-0.6-0.7-0.6-1.3c0-0.3,0.1-0.5,0.2-0.7c-0.2,0-0.4,0-0.6,0c-2,0-3.1-1.5-3.1-3c0-0.9,0.4-1.8,1.2-2.5
				c1.1-0.9,2.4-1,3.4-1h3.9l-1.2,0.7H80.7z M79.4,26.9c-0.2,0-0.2,0-0.4,0c-0.2,0-1.2,0-2,0.3c-0.4,0.2-1.6,0.6-1.6,2
				c0,1.3,1.3,2.3,3.3,2.3c1.8,0,2.8-0.9,2.8-2C81.4,28.4,80.8,27.9,79.4,26.9z M79.9,23.3c0.4-0.4,0.5-1,0.5-1.4
				c0-1.4-0.8-3.5-2.4-3.5c-0.5,0-1,0.2-1.3,0.6c-0.3,0.4-0.4,0.9-0.4,1.4c0,1.3,0.7,3.4,2.4,3.4C79.1,23.8,79.6,23.6,79.9,23.3z"/>
			<path class="st5" d="M68.8,26.6c-3,0-4.6-2.3-4.6-4.5c0-2.5,2-4.6,4.9-4.6c2.8,0,4.5,2.2,4.5,4.5C73.6,24.2,71.9,26.6,68.8,26.6z
				 M71.1,25c0.5-0.6,0.6-1.4,0.6-2.1c0-1.7-0.8-4.8-3.1-4.8c-0.6,0-1.2,0.2-1.7,0.6C66.1,19.4,66,20.2,66,21c0,1.9,0.9,5,3.2,5
				C70,26,70.7,25.6,71.1,25z"/>
			<path class="st5" d="M58.5,26.6c-3,0-4.6-2.3-4.6-4.5c0-2.5,2-4.6,4.9-4.6c2.8,0,4.5,2.2,4.5,4.5C63.3,24.2,61.6,26.6,58.5,26.6z
				 M60.9,25c0.5-0.6,0.6-1.4,0.6-2.1c0-1.7-0.8-4.8-3.1-4.8c-0.6,0-1.2,0.2-1.7,0.6c-0.7,0.7-0.9,1.5-0.9,2.3c0,1.9,0.9,5,3.2,5
				C59.7,26,60.5,25.6,60.9,25z"/>
			<path class="st5" d="M52.5,26.3l-2.7,0.6c-1.1,0.2-2.1,0.3-3.1,0.3c-5.3,0-7.2-3.9-7.2-6.9c0-3.7,2.8-7.1,7.7-7.1
				c1,0,2,0.2,2.9,0.4c1.4,0.4,2.1,0.9,2.5,1.2l-1.6,1.5l-0.7,0.2l0.5-0.8c-0.6-0.6-1.8-1.8-4.1-1.8c-3,0-5.3,2.3-5.3,5.6
				c0,3.6,2.6,6.9,6.7,6.9c1.2,0,1.8-0.2,2.4-0.5v-3.1l-2.9,0.2l1.5-0.8h4l-0.5,0.5c-0.1,0.1-0.2,0.2-0.2,0.3c0,0.2,0,0.7,0,0.9
				V26.3z"/>
			<path class="st5" d="M86.7,25.7c-0.6-0.1-0.8-0.2-0.8-0.9v-0.2V14c0,0,0-0.1,0-0.1c0.1-0.7,0.3-0.8,0.9-1.1h-2.7l-1.4,0.7h1.5v0
				l0,0v11.1v0.6c0,0.4-0.1,0.4-0.5,1H87l0.7-0.4C87.4,25.8,87,25.8,86.7,25.7z"/>
			<path class="st5" d="M94.5,25.9c-0.2,0.1-0.4,0.2-0.6,0.3c-0.6,0.3-1.3,0.4-1.8,0.4c-0.6,0-1.5,0-2.5-0.7c-1.3-0.9-1.9-2.6-1.9-4
				c0-2.9,2.4-4.4,4.3-4.4c0.7,0,1.4,0.2,1.9,0.5c0.9,0.6,1.2,1.4,1.3,1.9l-4.4,1.8l-1.5,0.1c0.5,2.4,2.1,3.8,3.9,3.8
				c1,0,1.7-0.3,2.3-0.7L94.5,25.9z M92.7,20.3c0.4-0.1,0.5-0.2,0.5-0.5c0-0.8-0.8-1.6-1.9-1.6c-0.8,0-2.2,0.6-2.2,2.6
				c0,0.3,0,0.7,0.1,1L92.7,20.3z"/>
			<g>
				<path class="st5" d="M96.3,17.6v1.2h-0.2v-1.2h-0.4v-0.1h1v0.1H96.3z"/>
				<path class="st5" d="M98,18.9v-1.3h0l-0.4,1.3h-0.1l-0.4-1.3h0v1.3h-0.1v-1.4h0.2l0.4,1.1h0l0.3-1.1h0.2v1.4H98z"/>
			</g>
		</g>
	</g>
</g>
</svg>
