<?xml version="1.0" encoding="utf-8"?>
<!-- Generator: Adobe Illustrator 22.1.0, SVG Export Plug-In . SVG Version: 6.00 Build 0)  -->
<svg version="1.1" id="Layer_1" xmlns="http://www.w3.org/2000/svg" xmlns:xlink="http://www.w3.org/1999/xlink" x="0px" y="0px"
	 viewBox="0 0 46 46" style="enable-background:new 0 0 46 46;" xml:space="preserve">
<style type="text/css">
	.st0{fill:#FFFFFF;}
	.st1{clip-path:url(#SVGID_2_);fill:#3E82F1;}
	.st2{clip-path:url(#SVGID_4_);fill:#32A753;}
	.st3{clip-path:url(#SVGID_6_);fill:#F9BB00;}
	.st4{clip-path:url(#SVGID_8_);fill:#E74133;}
</style>
<g>
	<path class="st0" d="M40,46H6c-3.3,0-6-2.7-6-6V6c0-3.3,2.7-6,6-6h34c3.3,0,6,2.7,6,6v34C46,43.3,43.3,46,40,46z"/>
	<g>
		<g>
			<defs>
				<path id="SVGID_1_" d="M34,23.3c0-0.8-0.1-1.6-0.2-2.4H23.2v4.4h6C29,26.8,28.2,28,27,28.8v2.9h3.6C32.8,29.7,34,26.8,34,23.3
					L34,23.3L34,23.3z M34,23.3"/>
			</defs>
			<clipPath id="SVGID_2_">
				<use xlink:href="#SVGID_1_"  style="overflow:visible;"/>
			</clipPath>
			<rect id="XMLID_10_" x="17" y="14.5" class="st1" width="23.2" height="23.6"/>
		</g>
		<g>
			<defs>
				<path id="SVGID_3_" d="M23.2,34.5c3,0,5.6-1,7.4-2.8L27,28.8c-1,0.7-2.3,1.1-3.8,1.1c-2.9,0-5.4-2-6.3-4.7h-3.7v3
					C15,31.9,18.8,34.5,23.2,34.5L23.2,34.5L23.2,34.5z M23.2,34.5"/>
			</defs>
			<clipPath id="SVGID_4_">
				<use xlink:href="#SVGID_3_"  style="overflow:visible;"/>
			</clipPath>
			<rect id="XMLID_7_" x="7" y="18.8" class="st2" width="29.9" height="22.1"/>
		</g>
		<g>
			<defs>
				<path id="SVGID_5_" d="M16.9,25.2c-0.2-0.7-0.4-1.4-0.4-2.2c0-0.8,0.1-1.5,0.4-2.2v-3h-3.7C12.4,19.4,12,21.1,12,23
					s0.4,3.6,1.2,5.2L16.9,25.2L16.9,25.2L16.9,25.2z M16.9,25.2"/>
			</defs>
			<clipPath id="SVGID_6_">
				<use xlink:href="#SVGID_5_"  style="overflow:visible;"/>
			</clipPath>
			<rect id="XMLID_4_" x="5.8" y="11.4" class="st3" width="17.4" height="23.1"/>
		</g>
		<g>
			<defs>
				<path id="SVGID_7_" d="M23.2,16.1c1.6,0,3.1,0.6,4.3,1.7l3.2-3.3c-1.9-1.9-4.5-3-7.5-3c-4.4,0-8.2,2.6-10,6.3l3.7,3
					C17.8,18.1,20.3,16.1,23.2,16.1L23.2,16.1L23.2,16.1z M23.2,16.1"/>
			</defs>
			<clipPath id="SVGID_8_">
				<use xlink:href="#SVGID_7_"  style="overflow:visible;"/>
			</clipPath>
			<rect id="XMLID_1_" x="7" y="5.1" class="st4" width="30" height="22.1"/>
		</g>
	</g>
</g>
</svg>
