<?xml version="1.0" encoding="utf-8"?>
<!-- Generator: Adobe Illustrator 22.1.0, SVG Export Plug-In . SVG Version: 6.00 Build 0)  -->
<svg version="1.1" id="Isolation_Mode" xmlns="http://www.w3.org/2000/svg" xmlns:xlink="http://www.w3.org/1999/xlink" x="0px"
	 y="0px" viewBox="0 0 16 16.1" style="enable-background:new 0 0 16 16.1;" xml:space="preserve">
<style type="text/css">
	.st0{fill:url(#SVGID_1_);}
</style>
<linearGradient id="SVGID_1_" gradientUnits="userSpaceOnUse" x1="0" y1="8.0274" x2="16.0002" y2="8.0274">
	<stop  offset="0" style="stop-color:#D51F53"/>
	<stop  offset="1" style="stop-color:#F15A22"/>
</linearGradient>
<path class="st0" d="M13.2,8.9c-0.6,0-1,0.4-1,1v4.2H4.1V9.9c0-0.6-0.4-1-1-1s-1,0.4-1,1v5.2c0,0.6,0.4,1,1,1h10.1c0.6,0,1-0.4,1-1
	V9.9C14.2,9.3,13.8,8.9,13.2,8.9z M15.7,7.2L8.5,0.3c-0.4-0.4-1-0.4-1.4,0L0.3,7.2c-0.4,0.4-0.4,1,0,1.4C0.5,8.8,0.7,8.9,1,8.9
	c0.3,0,0.5-0.1,0.7-0.3l6.2-6.2l6.4,6.2c0.4,0.4,1,0.4,1.4,0C16.1,8.2,16.1,7.5,15.7,7.2z"/>
</svg>
