<?xml version="1.0" encoding="utf-8"?>
<!-- Generator: Adobe Illustrator 22.1.0, SVG Export Plug-In . SVG Version: 6.00 Build 0)  -->
<svg version="1.1" id="Layer_1" xmlns="http://www.w3.org/2000/svg" xmlns:xlink="http://www.w3.org/1999/xlink" x="0px" y="0px"
	 viewBox="0 0 16 16" style="enable-background:new 0 0 16 16;" xml:space="preserve">
<style type="text/css">
	.st0{fill:#999999;}
</style>
<path class="st0" d="M8,0C3.6,0,0,3.6,0,8s3.6,8,8,8s8-3.6,8-8S12.4,0,8,0z M8,15c-3.9,0-7-3.1-7-7s3.1-7,7-7s7,3.1,7,7
	S11.9,15,8,15z M8.1,3.6c-0.3,0-0.6,0.1-0.8,0.2C7.2,4,7.1,4.2,7.1,4.5c0,0.3,0.1,0.5,0.2,0.7s0.4,0.2,0.8,0.2
	c0.3,0,0.6-0.1,0.8-0.2C9.1,5,9.1,4.8,9.1,4.5c0-0.3-0.1-0.5-0.2-0.7C8.7,3.7,8.5,3.6,8.1,3.6z M7.3,12.3h1.6v-6H7.3V12.3z"/>
</svg>
