<?xml version="1.0" encoding="utf-8"?>
<!-- Generator: Adobe Illustrator 22.1.0, SVG Export Plug-In . SVG Version: 6.00 Build 0)  -->
<svg version="1.1" id="Layer_1" xmlns="http://www.w3.org/2000/svg" xmlns:xlink="http://www.w3.org/1999/xlink" x="0px" y="0px"
	 viewBox="0 0 19.9 17.4" style="enable-background:new 0 0 19.9 17.4;" xml:space="preserve">
<style type="text/css">
	.st0{fill:url(#SVGID_1_);}
</style>
<linearGradient id="SVGID_1_" gradientUnits="userSpaceOnUse" x1="6.2917" y1="15.7247" x2="20.3875" y2="1.6289">
	<stop  offset="0" style="stop-color:#D51F53"/>
	<stop  offset="1" style="stop-color:#F15A22"/>
</linearGradient>
<path class="st0" d="M3.4,9.7h8.4c0.6,0,1-0.4,1-1s-0.4-1-1-1H3.4l2-2c0.4-0.4,0.4-1,0-1.4s-1-0.4-1.4,0L0.3,8C0.1,8.2,0,8.4,0,8.7
	c0,0,0,0,0,0c0,0,0,0,0,0C0,9,0.1,9.3,0.3,9.5L3.9,13c0.2,0.2,0.4,0.3,0.7,0.3c0.3,0,0.5-0.1,0.7-0.3c0.4-0.4,0.4-1,0-1.4L3.4,9.7z
	 M18,0H8.6c-1,0-1.8,0.9-1.8,2v2.4c0,0.6,0.4,1,1,1s1-0.4,1-1l0-2.3h9.1l0,13.4H8.8v-2.5c0-0.6-0.4-1-1-1s-1,0.4-1,1v2.5
	c0,1.1,0.8,2,1.8,2H18c1,0,1.8-0.9,1.8-2V2C19.9,0.9,19,0,18,0z"/>
</svg>
