<?xml version="1.0" encoding="utf-8"?>
<!-- Generator: Adobe Illustrator 22.1.0, SVG Export Plug-In . SVG Version: 6.00 Build 0)  -->
<svg version="1.1" id="Layer_1" xmlns="http://www.w3.org/2000/svg" xmlns:xlink="http://www.w3.org/1999/xlink" x="0px" y="0px"
	 viewBox="0 0 121.9 53.4" style="enable-background:new 0 0 121.9 53.4;" xml:space="preserve">
<style type="text/css">
	.st0{fill:#231F20;}
	.st1{fill:#D51F53;}
	.st2{fill:#FDB913;}
	.st3{fill:#F15A22;}
	.st4{fill:#8BC53F;}
	.st5{fill:#0096DB;}
	.st6{fill:#FFFFFF;}
</style>
<g>
	<g>
		<path class="st0" d="M108.9,53.4c-0.2,0-0.4-0.4-0.4-1.1c0-0.7,0.1-1.7,0.3-3.2c0.1-1,0.2-1.9,0.2-2.9c0-1-0.1-1.8-0.2-2.4
			c-0.2-1.1-0.4-1.6-0.7-1.6c-0.2,0-0.4,0.2-0.8,0.5c-1.4,1.5-2.4,3.9-2.9,7.1c-0.2,1.3-0.5,2-1,2c-0.4,0-0.6-0.7-0.6-2
			c0-0.4,0-0.9,0-1.6c0-0.7,0-1.3,0-1.8c0-0.4,0-0.8,0-1c0-1.1-0.2-1.9-0.5-2.4c-0.1-0.1-0.2-0.2-0.3-0.2c-0.4,0-1,0.7-1.7,2.2
			c-0.5,1-0.9,2.1-1.3,3.4c-0.6,2-1.3,3-2,3c-0.3,0-0.5-0.1-0.6-0.4c-0.1-0.3-0.2-0.7-0.2-1.4c0-1.2,0.1-2.3,0.1-3.5
			c0.1-2.3,0.3-3.7,0.6-4.3c0.1-0.3,0.4-0.5,0.8-0.5c0.3,0,0.5,0.1,0.6,0.4c0.2,0.5,0.3,1.3,0.3,2.5v1c0.5-1.4,1-2.5,1.6-3.3
			c0.6-0.8,1.3-1.2,2.1-1.2c0.4,0,0.8,0.1,1.2,0.4c0.6,0.4,1.1,1.3,1.3,2.7c0.9-2.4,2.1-3.6,3.5-3.6c0.4,0,0.8,0.1,1.2,0.3
			c0.3,0.2,0.6,0.5,0.8,0.9c0.4,0.8,0.7,1.7,0.7,2.7c0,0.4,0,0.7,0,1.1c0,1.2-0.1,2.3-0.3,3.5c-0.1,0.8-0.3,1.6-0.6,2.7
			C109.7,52.7,109.3,53.4,108.9,53.4z"/>
		<path class="st0" d="M116.1,52.5c-1.3,0-2.3-0.6-3-1.8c-0.5-0.9-0.7-1.9-0.7-3c0-1.2,0.3-2.5,0.8-3.9c0.4-1.1,1.1-2,1.9-2.7
			c0.8-0.7,1.9-1.1,3.1-1.1c0.8,0,1.4,0.2,1.8,0.7c0.4,0.4,0.6,1,0.6,1.7c0,0.8-0.3,1.6-0.9,2.3c-0.5,0.6-1.1,1.1-1.8,1.5
			c-1.1,0.6-2.1,0.9-3.1,0.9c-0.1,0-0.3,0-0.4,0c0,0.2,0,0.4,0,0.6c0,0.7,0.1,1.3,0.3,1.8c0.3,0.9,0.9,1.3,1.6,1.3
			c0.5,0,0.9,0,1.2-0.1c0.4-0.1,0.7-0.2,1.1-0.5c0.7-0.4,1.1-0.6,1.4-0.6c0.1,0,0.2,0,0.2,0.1c0.1,0.1,0.1,0.1,0.1,0.2
			c0,0.2-0.1,0.5-0.4,0.8C118.9,51.8,117.6,52.5,116.1,52.5z M114.7,45.9c0.5,0,1.2-0.3,2.2-0.9c1.3-0.8,2-1.7,2-2.5
			c0-0.5-0.3-0.7-0.8-0.7c-0.6,0-1.1,0.2-1.6,0.7C115.7,43.2,115.1,44.4,114.7,45.9z"/>
	</g>
	<g>
		<g>
			<g>
				<g>
					<g>
						<g>
							<path class="st1" d="M43.1,46.6l18-11l-34.7,8.9C31.1,50.9,33.4,52.7,43.1,46.6z"/>
						</g>
						<g>
							<path class="st1" d="M15.7,9.1l72.7,2.1c7.2,0,7.7,6,4.7,7.6l-49.9,25c-6.5,3.6-11.9,3.9-15.1-1L16.3,28.9l-7.1-8.5
								c-2.8-3.5-3.4-5.3-2.9-7.4C7,9.9,10.3,8.9,15.7,9.1z"/>
							<path class="st1" d="M91.5,8.7l-31.9,2.2c0,0,30,5,36.5,6.1l1.1-0.7C100.3,14.2,99.1,8,91.5,8.7z"/>
							<path class="st2" d="M10.6,29.7c-0.8,1.2-2.5,1.4-3.6,0.6c-1.2-0.8-1.4-2.5-0.6-3.6c0.8-1.2,2.5-1.4,3.6-0.6
								C11.2,26.9,11.4,28.6,10.6,29.7z"/>
							<path class="st2" d="M65,41.5c0,1.7-1.4,3.1-3.1,3.1c-1.7,0-3.1-1.4-3.1-3.1s1.4-3.1,3.1-3.1C63.6,38.4,65,39.8,65,41.5z"/>
							<path class="st3" d="M26.4,44.5L86,29.3c10.1-3,7.3-13,0.8-13.8L36,6.2c-10-1.8-14.3-5.7-16.1,5.9l-4.5,21.6
								C13.5,41.6,19.7,46,26.4,44.5z"/>
							<path class="st2" d="M92,19.3c-0.9-2-2.7-3.6-5.5-3.9l-28.1-5.1L20.5,9.1c0.2,1.2,3.4,19.1,3.4,19.1s2.4,16,2.6,16.3
								l31.1-7.9L92,19.3z"/>
							<path class="st4" d="M17.9,4.2c0,1-0.8,1.8-1.8,1.8s-1.8-0.8-1.8-1.8c0-1,0.8-1.8,1.8-1.8S17.9,3.2,17.9,4.2z"/>
							<circle class="st1" cx="58.9" cy="2.9" r="1.7"/>
							<path class="st3" d="M32,0.8c-5.8-1.5-9.6-1.6-11.6,8.4l46.9,1.4L32,0.8z"/>
							<path class="st5" d="M3,25.1c-0.5,0.7-1.6,0.9-2.3,0.4c-0.7-0.5-0.9-1.6-0.4-2.3c0.5-0.7,1.6-0.9,2.3-0.4
								C3.4,23.3,3.5,24.3,3,25.1z"/>
							<path class="st1" d="M70.6,44.2c-0.5,0.6-1.4,0.8-2,0.3c-0.6-0.5-0.8-1.4-0.3-2c0.5-0.6,1.4-0.8,2-0.3
								C70.9,42.7,71,43.6,70.6,44.2z"/>
							<path class="st5" d="M118.7,33.4c0-0.8,0.6-1.4,1.4-1.4c0.8,0,1.4,0.6,1.4,1.4c0,0.8-0.6,1.4-1.4,1.4
								C119.3,34.7,118.7,34.1,118.7,33.4z"/>
							<path class="st5" d="M113.6,33.4l-75.7,4.2c-6.8,0.6-7.7-2-6.1-3.8L58,9.8c3.8-3.5,6.2-2.2,11.1-1L117,20.3
								C122,22.1,124.6,32.9,113.6,33.4z"/>
							<path class="st4" d="M90.1,17.4l-32.6-7.2L32,33.7c-2,1.8-1.8,4.7,3.9,4.1l21.5-1.2L89.2,29C96.9,27.4,98.8,18.9,90.1,17.4z"
								/>
						</g>
					</g>
				</g>
				<g>
					<path class="st6" d="M101.9,20.1c-1.8,0-3.4,0.6-4.6,1.9c-1.2,1.2-1.9,2.8-1.9,4.6c0,1.8,0.6,3.4,1.9,4.6
						c1.2,1.2,2.8,1.9,4.6,1.9s3.4-0.6,4.6-1.9c1.2-1.2,1.9-2.8,1.9-4.6c0-1.8-0.6-3.4-1.9-4.6C105.2,20.7,103.7,20.1,101.9,20.1z
						 M104.2,29c-0.6,0.6-1.4,1-2.3,1c-1,0-1.7-0.3-2.3-1c-0.6-0.6-0.9-1.5-0.9-2.4c0-1,0.3-1.8,0.9-2.4s1.4-1,2.3-1
						c1,0,1.8,0.3,2.4,1s0.9,1.5,0.9,2.4C105.1,27.5,104.8,28.3,104.2,29z"/>
					<path class="st6" d="M23,26.1c-0.8-0.6-1.8-1-3.1-1.1c-0.9-0.2-1.4-0.4-1.7-0.6c-0.3-0.3-0.3-0.5,0-0.9
						c0.3-0.3,0.9-0.5,1.7-0.5c0.9,0,1.6,0.3,2.2,1l2-2.2c-0.6-0.6-1.2-1-1.9-1.3c-0.7-0.3-1.6-0.4-2.8-0.4c-1,0-2,0.3-3,1
						c-1,0.7-1.5,1.7-1.5,3c0,1.4,0.4,2.4,1.3,2.9c0.9,0.5,1.8,0.8,2.8,1c1.1,0.1,1.8,0.3,2,0.6c0.2,0.3,0.2,0.6-0.1,1
						C20.6,30,20,30.1,19,30.1c-1.2-0.1-2.1-0.5-2.7-1.2l-2,2.2c0.6,0.6,1.3,1,2.1,1.4c0.8,0.3,1.8,0.5,3,0.5c1.3,0,2.4-0.3,3.3-1
						c0.9-0.7,1.4-1.6,1.4-2.8C24.2,27.8,23.8,26.7,23,26.1z"/>
					<path class="st6" d="M32.3,20.2c-1.2,0-2.2,0.4-3,1.1v-7.9l-3.6,2v17.4h3.6v-8.6c0.5-0.7,1.2-1.1,1.9-1.1
						c0.9,0,1.5,0.3,1.9,0.7c0.4,0.5,0.6,1.1,0.6,2v7h3.6V25c0-1.3-0.4-2.4-1.3-3.4C35.1,20.7,33.9,20.2,32.3,20.2z"/>
					<path class="st6" d="M44.9,20.2c-1.9,0-3.4,0.6-4.6,1.8c-1.2,1.2-1.8,2.7-1.8,4.6c0,1.9,0.6,3.4,1.8,4.6
						c1.2,1.2,2.7,1.8,4.6,1.8c2.5,0,4.3-0.6,5.2-1.9l-2-2c-0.9,0.7-2,1-3.2,1c-0.7,0-1.3-0.2-1.8-0.6c-0.5-0.4-0.8-0.9-0.9-1.6h8.8
						v-1.3c0-1.9-0.6-3.4-1.6-4.6C48.2,20.8,46.7,20.2,44.9,20.2z M42.3,25.3c0-0.7,0.3-1.2,0.8-1.6c0.5-0.4,1.1-0.6,1.8-0.6
						c0.7,0,1.3,0.2,1.8,0.6c0.5,0.4,0.8,0.9,0.8,1.6H42.3z"/>
					<path class="st6" d="M67.1,20.2c-1.9,0-3.3,0.5-4.2,1.5c-0.8-1-2.1-1.5-3.7-1.5c-1.2,0-2.3,0.4-3,1.1v-1.1l-3.6,0.4v12.3h3.6
						v-8.1c0.6-1,1.2-1.5,2-1.6c0.9,0,1.5,0.3,1.9,0.7c0.4,0.5,0.6,1.1,0.6,2v7h3.6v-7.5c0-0.3,0-0.5,0.1-0.8
						c0.5-0.9,1.1-1.3,1.8-1.4c0.9,0,1.5,0.3,1.9,0.7c0.4,0.5,0.6,1.1,0.6,2v7h3.6V25c0-1.3-0.4-2.4-1.3-3.4
						C69.9,20.7,68.7,20.2,67.1,20.2z"/>
					<path class="st6" d="M90.3,21.6v-1.4l-3.6,0.4v12.3h3.6v-7.8c0.6-1.2,1.3-1.8,2.2-1.9c0.8,0,1.4,0.2,1.8,0.6l0.6-3.5
						c-0.4-0.1-0.8-0.1-1.2-0.1C92.3,20.2,91.2,20.7,90.3,21.6z"/>
					<path class="st6" d="M80,20.2c-2.1,0-4,0.5-5.6,1.5l1.4,2.2c0.8-0.5,2-0.8,3.6-0.8c1.3,0.1,2,0.6,2,1.5V25
						c-1-0.5-2-0.8-2.8-0.8c-1.8,0-3.1,0.5-3.9,1.4c-0.8,0.9-1.2,2-1.2,3.2c0,1.3,0.4,2.3,1.3,3c0.8,0.7,2.1,1.1,3.8,1.1
						c0.8,0,1.8-0.3,2.8-1v1h3.6v-7.6c0-1.7-0.4-3-1.3-3.8C82.7,20.6,81.5,20.2,80,20.2z M81.4,29.1c-0.3,0.7-1.1,1-2.4,1
						c-1.5-0.1-2.3-0.6-2.4-1.6c0.1-1,0.9-1.6,2.4-1.8c1.3,0,2.1,0.3,2.4,1V29.1z"/>
					<path class="st6" d="M120.1,21.9c-1.2-1.2-2.8-1.9-4.6-1.9c-1.8,0-3.4,0.6-4.6,1.9c-1.2,1.2-1.9,2.8-1.9,4.6
						c0,1.8,0.6,3.4,1.9,4.6c1.2,1.2,2.8,1.9,4.6,1.9c1.8,0,3.4-0.6,4.6-1.9c1.2-1.2,1.9-2.8,1.9-4.6
						C121.9,24.7,121.3,23.2,120.1,21.9z M117.8,29c-0.6,0.6-1.4,1-2.3,1c-1,0-1.7-0.3-2.3-1c-0.6-0.6-0.9-1.5-0.9-2.4
						c0-1,0.3-1.8,0.9-2.4c0.6-0.7,1.4-1,2.3-1c1,0,1.8,0.3,2.4,1c0.6,0.7,0.9,1.5,0.9,2.4C118.7,27.5,118.4,28.3,117.8,29z"/>
				</g>
			</g>
		</g>
	</g>
</g>
</svg>
