<?xml version="1.0" encoding="utf-8"?>
<!-- Generator: Adobe Illustrator 22.1.0, SVG Export Plug-In . SVG Version: 6.00 Build 0)  -->
<svg version="1.1" id="Layer_1" xmlns="http://www.w3.org/2000/svg" xmlns:xlink="http://www.w3.org/1999/xlink" x="0px" y="0px"
	 viewBox="0 0 21.8 19.8" style="enable-background:new 0 0 21.8 19.8;" xml:space="preserve">
<style type="text/css">
	.st0{fill:url(#SVGID_1_);}
</style>
<linearGradient id="SVGID_1_" gradientUnits="userSpaceOnUse" x1="1.351" y1="19.8224" x2="18.6757" y2="2.4977">
	<stop  offset="0" style="stop-color:#D51F53"/>
	<stop  offset="1" style="stop-color:#F15A22"/>
</linearGradient>
<path class="st0" d="M5.5,10.8H3.6c-0.6,0-1,0.4-1,1s0.4,1,1,1h1.9c0.6,0,1-0.4,1-1S6.1,10.8,5.5,10.8z M20.3,4.5l-12-4.3
	C7.8-0.1,7.2,0,6.7,0.2C6.2,0.5,5.8,0.9,5.6,1.4L3.5,7.2c-0.1,0.4,0,0.8,0.2,1H2.8c0,0-0.1,0-0.1,0c0,0-0.1,0-0.1,0H2.2
	C1,8.3,0,9.3,0,10.6v6.9c0,1.3,1,2.3,2.2,2.3h12.7c1.2,0,2.2-1,2.2-2.3v-1.1c0.7-0.1,1.4-0.6,1.7-1.4l2.8-7.8
	C22,6.1,21.5,4.9,20.3,4.5z M16.9,14.4c0,0.1-0.1,0.1-0.2,0.1l-0.1-0.1c-0.3-0.2-0.7-0.2-1,0c-0.3,0.2-0.5,0.5-0.5,0.9v2.3
	c0,0.2-0.1,0.3-0.2,0.3H2.2c-0.1,0-0.2-0.1-0.2-0.3v-6.9c0-0.2,0.1-0.3,0.2-0.3h0.4c0,0,0.1,0,0.1,0c0,0,0.1,0,0.1,0H15
	c0.1,0,0.1,0,0.1,0V13c0,0.6,0.4,1,1,1s1-0.4,1-1v-2.7c0-1.1-1-2-2.1-2H5.1c0.1-0.1,0.2-0.2,0.2-0.4l1.1-3.1L18.9,9L16.9,14.4z
	 M19.6,7.1L7.2,2.9l0.3-0.8C7.5,2,7.6,2,7.7,2l12,4.3c0.1,0,0.1,0.1,0.1,0.2L19.6,7.1z"/>
</svg>
