<?xml version="1.0" encoding="utf-8"?>
<!-- Generator: Adobe Illustrator 22.1.0, SVG Export Plug-In . SVG Version: 6.00 Build 0)  -->
<svg version="1.1" id="Layer_1" xmlns="http://www.w3.org/2000/svg" xmlns:xlink="http://www.w3.org/1999/xlink" x="0px" y="0px"
	 viewBox="0 0 50 50" style="enable-background:new 0 0 50 50;" xml:space="preserve">
<style type="text/css">
	.st0{fill:url(#SVGID_1_);}
	.st1{fill:#FFFFFF;}
	.st2{fill:url(#SVGID_2_);}
	.st3{fill:url(#SVGID_3_);}
</style>
<g>
	<linearGradient id="SVGID_1_" gradientUnits="userSpaceOnUse" x1="7.3223" y1="42.6777" x2="42.6777" y2="7.3223">
		<stop  offset="0" style="stop-color:#F15B24"/>
		<stop  offset="0.4288" style="stop-color:#F68921"/>
		<stop  offset="0.8107" style="stop-color:#FAAB1C"/>
		<stop  offset="1" style="stop-color:#FCB817"/>
	</linearGradient>
	<circle class="st0" cx="25" cy="25" r="25"/>
	<path class="st1" d="M25,19.3c3,0,5.4-2.5,5.4-5.5S28,8.3,25,8.3s-5.4,2.5-5.4,5.5S22,19.3,25,19.3z M25,10.3
		c1.9,0,3.4,1.6,3.4,3.5s-1.5,3.5-3.4,3.5c-1.9,0-3.4-1.6-3.4-3.5S23.1,10.3,25,10.3z M34,26.9c-1.6-3.5-5.1-5.8-9-5.8
		s-7.4,2.3-9,5.8c-0.1,0.3-0.1,0.7,0.1,1c0.2,0.3,0.5,0.5,0.8,0.5h16.1c0.3,0,0.7-0.2,0.8-0.5S34.1,27.2,34,26.9z M18.7,26.3
		c1.5-2,3.8-3.2,6.3-3.2s4.9,1.2,6.3,3.2H18.7z"/>
	<path class="st1" d="M28.6,41.8v-2.4h2.9v-1.2h-2.9V36h3.4v-1.2h-4.8V43h4.8v-1.2H28.6z M21.6,40.3l-2.2-5.5h-1.6V43H19v-6.1l2,4.9
		h1.1l2-5V43h1.3v-8.1h-1.6L21.6,40.3z"/>
</g>
</svg>
