<?xml version="1.0" encoding="utf-8"?>
<!-- Generator: Adobe Illustrator 22.1.0, SVG Export Plug-In . SVG Version: 6.00 Build 0)  -->
<svg version="1.1" id="Isolation_Mode" xmlns="http://www.w3.org/2000/svg" xmlns:xlink="http://www.w3.org/1999/xlink" x="0px"
	 y="0px" viewBox="0 0 20.1 22.1" style="enable-background:new 0 0 20.1 22.1;" xml:space="preserve">
<style type="text/css">
	.st0{fill:#FFFFFF;}
</style>
<g>
	<circle class="st0" cx="10.1" cy="6" r="4"/>
	<path class="st0" d="M10.1,16.2c-3,0-5.7,1.4-7.4,3.8h14.8C15.8,17.7,13.1,16.2,10.1,16.2z"/>
	<path class="st0" d="M10.1,12c3.3,0,6-2.7,6-6s-2.7-6-6-6s-6,2.7-6,6S6.8,12,10.1,12z M10.1,2c2.2,0,4,1.8,4,4s-1.8,4-4,4
		s-4-1.8-4-4S7.9,2,10.1,2z"/>
	<path class="st0" d="M20.1,20.6c-1.8-3.9-5.7-6.4-10-6.4s-8.2,2.5-10,6.4c-0.1,0.3-0.1,0.7,0.1,1c0.2,0.3,0.5,0.5,0.8,0.5h18.2
		c0.3,0,0.7-0.2,0.8-0.5C20.2,21.3,20.2,20.9,20.1,20.6z M2.7,20c1.7-2.4,4.4-3.8,7.4-3.8s5.7,1.5,7.4,3.8H2.7z"/>
</g>
</svg>
