<?xml version="1.0" encoding="utf-8"?>
<!-- Generator: Adobe Illustrator 22.1.0, SVG Export Plug-In . SVG Version: 6.00 Build 0)  -->
<svg version="1.1" id="Isolation_Mode" xmlns="http://www.w3.org/2000/svg" xmlns:xlink="http://www.w3.org/1999/xlink" x="0px"
	 y="0px" viewBox="0 0 20.2 22" style="enable-background:new 0 0 20.2 22;" xml:space="preserve">
<style type="text/css">
	.st0{fill:url(#SVGID_1_);}
</style>
<linearGradient id="SVGID_1_" gradientUnits="userSpaceOnUse" x1="1.5876" y1="23.0019" x2="18.5765" y2="6.013">
	<stop  offset="0" style="stop-color:#F15A22"/>
	<stop  offset="1" style="stop-color:#FDB913"/>
</linearGradient>
<path class="st0" d="M20.1,20.6c-1.8-3.9-5.7-6.4-10-6.4s-8.2,2.5-10,6.4c-0.1,0.3-0.1,0.7,0.1,1C0.3,21.8,0.7,22,1,22h18.2
	c0.3,0,0.7-0.2,0.8-0.5C20.2,21.3,20.2,20.9,20.1,20.6z M2.7,20c1.7-2.4,4.4-3.8,7.4-3.8s5.7,1.5,7.4,3.8H2.7z M10.1,12
	c3.3,0,6-2.7,6-6s-2.7-6-6-6s-6,2.7-6,6S6.8,12,10.1,12z M10.1,2c2.2,0,4,1.8,4,4s-1.8,4-4,4s-4-1.8-4-4S7.9,2,10.1,2z"/>
</svg>
