<?xml version="1.0" encoding="utf-8"?>
<!-- Generator: Adobe Illustrator 22.1.0, SVG Export Plug-In . SVG Version: 6.00 Build 0)  -->
<svg version="1.1" id="Layer_1" xmlns="http://www.w3.org/2000/svg" xmlns:xlink="http://www.w3.org/1999/xlink" x="0px" y="0px"
	 viewBox="0 0 65.4 58.2" style="enable-background:new 0 0 65.4 58.2;" xml:space="preserve">
<style type="text/css">
	.st0{opacity:0.4;}
	.st1{fill:#FDB913;}
	.st2{fill:#0096DB;}
	.st3{fill:#D51F53;}
	.st4{fill:#FFFFFF;}
</style>
<g>
	<g class="st0">
		<polyline class="st1" points="18.1,51.7 18.1,19.1 55,19.1 55,26.4 		"/>
	</g>
	<g class="st0">
		<path class="st2" d="M47,16.8v-3c0-0.5-0.6-1-1.4-1h-5c0.1-0.2,0.1-0.4,0.1-0.6c0-1.7-1.9-3.1-4.2-3.1c-2.3,0-4.2,1.4-4.2,3.1
			c0,0.2,0,0.4,0.1,0.6h-5c-0.7,0-1.4,0.5-1.4,1v3"/>
	</g>
	<g>
		<path class="st1" d="M63.9,9.4c-1.6,2.2-4.7,2.7-6.9,1.1c-2.2-1.6-2.7-4.7-1.1-6.9c1.6-2.2,4.7-2.7,6.9-1.1
			C65,4.1,65.5,7.2,63.9,9.4z"/>
	</g>
	<g>
		<path class="st2" d="M7.6,2.6C7.6,1.1,8.7,0,10.1,0c1.4,0,2.6,1.2,2.6,2.6c0,1.4-1.2,2.6-2.6,2.6C8.7,5.1,7.6,4,7.6,2.6z"/>
	</g>
	<g>
		<circle class="st3" cx="3.1" cy="51.8" r="3.1"/>
	</g>
	<g>
		<path class="st2" d="M11.9,46.3c-0.2-0.3-0.4-0.5-0.6-0.8l0.8-0.6c0.2,0.3,0.4,0.5,0.6,0.8L11.9,46.3z M10.7,44.6
			c-0.2-0.3-0.4-0.6-0.5-0.9l0.9-0.5c0.2,0.3,0.3,0.6,0.5,0.8L10.7,44.6z M9.7,42.8c-0.2-0.3-0.3-0.6-0.4-0.9l0.9-0.4
			c0.1,0.3,0.3,0.6,0.4,0.9L9.7,42.8z M8.9,40.9c-0.1-0.3-0.2-0.6-0.3-1l1-0.3c0.1,0.3,0.2,0.6,0.3,0.9L8.9,40.9z M8.3,39
			c-0.1-0.3-0.2-0.7-0.2-1l1-0.2c0.1,0.3,0.1,0.6,0.2,1L8.3,39z M7.9,36.9c0-0.3-0.1-0.7-0.1-1l1-0.1c0,0.3,0.1,0.6,0.1,1L7.9,36.9z
			 M7.7,34.9c0-0.2,0-0.4,0-0.7l0-0.4l1,0l0,0.4c0,0.2,0,0.4,0,0.6L7.7,34.9z M8.7,32.9l-1-0.1c0-0.3,0.1-0.7,0.1-1l1,0.1
			C8.8,32.3,8.8,32.6,8.7,32.9z M9,31l-1-0.2c0.1-0.3,0.1-0.7,0.2-1l1,0.2C9.1,30.3,9,30.7,9,31z M9.4,29.1l-1-0.3
			c0.1-0.3,0.2-0.7,0.3-1l0.9,0.3C9.6,28.5,9.5,28.8,9.4,29.1z M10.1,27.3l-0.9-0.4c0.1-0.3,0.3-0.6,0.4-0.9l0.9,0.4
			C10.3,26.7,10.2,27,10.1,27.3z M10.9,25.5L10,25c0.2-0.3,0.3-0.6,0.5-0.9l0.9,0.5C11.2,24.9,11.1,25.2,10.9,25.5z"/>
	</g>
	<g>
		<path class="st3" d="M61.2,46.3l-0.8-0.6c0.2-0.3,0.4-0.5,0.6-0.8l0.8,0.6C61.6,45.7,61.4,46,61.2,46.3z M62.4,44.6l-0.8-0.5
			c0.2-0.3,0.3-0.6,0.5-0.8l0.9,0.5C62.7,44,62.5,44.3,62.4,44.6z M63.4,42.8l-0.9-0.4c0.1-0.3,0.3-0.6,0.4-0.9l0.9,0.4
			C63.7,42.2,63.5,42.5,63.4,42.8z M64.2,40.9l-0.9-0.3c0.1-0.3,0.2-0.6,0.3-0.9l1,0.3C64.4,40.3,64.3,40.6,64.2,40.9z M64.8,39
			l-1-0.2c0.1-0.3,0.1-0.6,0.2-1l1,0.2C64.9,38.3,64.9,38.6,64.8,39z M65.2,36.9l-1-0.1c0-0.3,0.1-0.6,0.1-1l1,0.1
			C65.3,36.3,65.2,36.6,65.2,36.9z M65.3,34.9l-1,0c0-0.2,0-0.4,0-0.6l0-0.4l1,0l0,0.4C65.4,34.5,65.3,34.7,65.3,34.9z M64.3,32.9
			c0-0.3-0.1-0.6-0.1-1l1-0.1c0,0.3,0.1,0.7,0.1,1L64.3,32.9z M64.1,31c-0.1-0.3-0.1-0.6-0.2-1l1-0.2c0.1,0.3,0.1,0.7,0.2,1L64.1,31
			z M63.6,29.1c-0.1-0.3-0.2-0.6-0.3-0.9l0.9-0.3c0.1,0.3,0.2,0.6,0.3,1L63.6,29.1z M63,27.3c-0.1-0.3-0.3-0.6-0.4-0.9l0.9-0.4
			c0.1,0.3,0.3,0.6,0.4,0.9L63,27.3z M62.1,25.5c-0.2-0.3-0.3-0.6-0.5-0.8l0.9-0.5c0.2,0.3,0.3,0.6,0.5,0.9L62.1,25.5z"/>
	</g>
	<g>
		<path d="M55,58.2c-0.6,0-1-0.4-1-1v-5.4c0-0.6,0.4-1,1-1s1,0.4,1,1v5.4C56,57.7,55.5,58.2,55,58.2z"/>
	</g>
	<g>
		<path d="M47,16.8c-0.6,0-1-0.4-1-1v-2.9c-0.1,0-0.2-0.1-0.4-0.1h-5c-0.3,0-0.6-0.1-0.8-0.4s-0.3-0.6-0.2-0.9
			c0-0.1,0.1-0.2,0.1-0.4c0-1.2-1.5-2.1-3.2-2.1s-3.2,1-3.2,2.1c0,0.1,0,0.2,0,0.4c0.1,0.3,0,0.6-0.2,0.9c-0.2,0.2-0.5,0.4-0.8,0.4
			h-5c-0.2,0-0.3,0.1-0.4,0.1v2.9c0,0.6-0.4,1-1,1s-1-0.4-1-1v-3c0-1.1,1-2,2.4-2h3.9c0.2-2.1,2.5-3.8,5.2-3.8s5,1.7,5.2,3.8h3.9
			c1.3,0,2.4,0.9,2.4,2v3C48,16.4,47.5,16.8,47,16.8z"/>
	</g>
	<g>
		<circle class="st4" cx="28.8" cy="32.6" r="2.7"/>
		<path d="M28.8,35.7c-1.7,0-3.1-1.4-3.1-3.2s1.4-3.2,3.1-3.2c1.7,0,3.2,1.4,3.2,3.2S30.6,35.7,28.8,35.7z M28.8,30.4
			c-1.2,0-2.1,1-2.1,2.2s1,2.2,2.1,2.2s2.2-1,2.2-2.2S30,30.4,28.8,30.4z"/>
	</g>
	<g>
		<circle class="st4" cx="44.9" cy="32.6" r="2.7"/>
		<path d="M44.9,35.7c-1.7,0-3.2-1.4-3.2-3.2s1.4-3.2,3.2-3.2s3.2,1.4,3.2,3.2S46.7,35.7,44.9,35.7z M44.9,30.4
			c-1.2,0-2.2,1-2.2,2.2s1,2.2,2.2,2.2s2.2-1,2.2-2.2S46.1,30.4,44.9,30.4z"/>
	</g>
	<g>
		<path d="M42.8,42.8H34c-0.3,0-0.5-0.2-0.5-0.5s0.2-0.5,0.5-0.5h8.8c0.3,0,0.5,0.2,0.5,0.5S43.1,42.8,42.8,42.8z"/>
	</g>
	<g>
		<path d="M32.2,42.8h-1.5c-0.3,0-0.5-0.2-0.5-0.5s0.2-0.5,0.5-0.5h1.5c0.3,0,0.5,0.2,0.5,0.5S32.5,42.8,32.2,42.8z"/>
	</g>
	<g>
		<path d="M28.5,27.8c-1,0-1.7-0.2-1.8-0.2l0.2-1c0,0,2.3,0.5,3.7-0.3c0.5-0.3,0.8-0.8,0.9-1.5l1,0.2c-0.2,0.9-0.6,1.7-1.4,2.1
			C30.4,27.7,29.4,27.8,28.5,27.8z"/>
	</g>
	<g>
		<path d="M44.5,27.8c-0.9,0-1.9-0.1-2.7-0.7c-0.7-0.5-1.2-1.2-1.4-2.1l1-0.2c0.1,0.7,0.4,1.1,0.9,1.5c1.4,0.9,3.7,0.4,3.7,0.3
			l0.2,1C46.2,27.6,45.5,27.8,44.5,27.8z"/>
	</g>
	<g>
		<path d="M18.1,52.7c-0.6,0-1-0.4-1-1V19.1c0-0.6,0.4-1,1-1H55c0.6,0,1,0.4,1,1v29.4c0,0.6-0.4,1-1,1s-1-0.4-1-1V20.1H19.1v31.6
			C19.1,52.2,18.6,52.7,18.1,52.7z"/>
	</g>
</g>
</svg>
