<?xml version="1.0" encoding="utf-8"?>
<!-- Generator: Adobe Illustrator 22.1.0, SVG Export Plug-In . SVG Version: 6.00 Build 0)  -->
<svg version="1.1" id="Layer_1" xmlns="http://www.w3.org/2000/svg" xmlns:xlink="http://www.w3.org/1999/xlink" x="0px" y="0px"
	 viewBox="0 0 67.4 54.9" style="enable-background:new 0 0 67.4 54.9;" xml:space="preserve">
<style type="text/css">
	.st0{opacity:0.4;}
	.st1{clip-path:url(#SVGID_2_);}
	.st2{fill:#FDB913;}
	.st3{fill:#F15A22;}
	.st4{fill:#FFFFFF;}
	.st5{fill:#0096DB;}
	.st6{fill:#8BC53F;}
	.st7{fill:#D51F53;}
</style>
<g>
	<g class="st0">
		<defs>
			<path id="SVGID_1_" class="st0" d="M42.7,43h-19c-1,0-1.7-0.8-1.7-1.7v-14c0-1,0.8-1.7,1.7-1.7h19c1,0,1.7,0.8,1.7,1.7v14
				C44.4,42.2,43.7,43,42.7,43z"/>
		</defs>
		<clipPath id="SVGID_2_">
			<use xlink:href="#SVGID_1_"  style="overflow:visible;"/>
		</clipPath>
		<g class="st1">
			
				<rect x="37.3" y="14.4" transform="matrix(3.223899e-03 -1 1 3.223899e-03 5.9431 71.4299)" class="st2" width="3" height="36.7"/>
		</g>
		<g class="st1">
			
				<rect x="37.3" y="11.6" transform="matrix(3.223899e-03 -1 1 3.223899e-03 8.738 68.6615)" class="st3" width="3" height="36.7"/>
		</g>
		<g class="st1">
			
				<rect x="36.2" y="8.8" transform="matrix(3.223899e-03 -1 1 3.223899e-03 10.4105 64.7672)" class="st4" width="3" height="36.7"/>
		</g>
		<g class="st1">
			
				<rect x="37.3" y="17.2" transform="matrix(3.223899e-03 -1 1 3.223899e-03 3.1482 74.2002)" class="st5" width="3" height="36.7"/>
		</g>
		<g class="st1">
			<rect x="37.3" y="20" transform="matrix(3.223899e-03 -1 1 3.223899e-03 0.3533 76.9685)" class="st6" width="3" height="36.7"/>
		</g>
		<g class="st1">
			
				<rect x="36.1" y="22.8" transform="matrix(3.223899e-03 -1 1 3.223899e-03 -3.5668 78.61)" class="st7" width="3" height="36.7"/>
		</g>
	</g>
	<path class="st2" d="M63.9,9.4c-1.6,2.2-4.7,2.7-6.9,1.1c-2.2-1.6-2.7-4.7-1.1-6.9c1.6-2.2,4.7-2.7,6.9-1.1
		C65,4.1,65.5,7.2,63.9,9.4z"/>
	<path class="st5" d="M7.6,2.6C7.6,1.1,8.7,0,10.1,0c1.4,0,2.6,1.2,2.6,2.6c0,1.4-1.2,2.6-2.6,2.6C8.7,5.1,7.6,4,7.6,2.6z"/>
	<circle class="st7" cx="3.1" cy="51.8" r="3.1"/>
	<g>
		<path class="st5" d="M10.6,45.2c-0.2-0.3-0.4-0.5-0.6-0.8l0.8-0.6c0.2,0.3,0.4,0.5,0.6,0.8L10.6,45.2z M9.4,43.6
			c-0.2-0.3-0.4-0.6-0.5-0.9l0.9-0.5c0.2,0.3,0.3,0.6,0.5,0.8L9.4,43.6z M8.4,41.8c-0.2-0.3-0.3-0.6-0.4-0.9l0.9-0.4
			C9,40.7,9.2,41,9.3,41.3L8.4,41.8z M7.6,39.9c-0.1-0.3-0.2-0.6-0.3-1l1-0.3c0.1,0.3,0.2,0.6,0.3,0.9L7.6,39.9z M7,37.9
			c-0.1-0.3-0.2-0.7-0.2-1l1-0.2c0.1,0.3,0.1,0.6,0.2,1L7,37.9z M6.6,35.9c0-0.3-0.1-0.7-0.1-1l1-0.1c0,0.3,0.1,0.6,0.1,1L6.6,35.9z
			 M6.5,33.9c0-0.2,0-0.4,0-0.6l0-0.4l1,0l0,0.4c0,0.2,0,0.4,0,0.6L6.5,33.9z M7.5,31.9l-1-0.1c0-0.3,0.1-0.7,0.1-1l1,0.1
			C7.5,31.2,7.5,31.6,7.5,31.9z M7.7,30l-1-0.2c0.1-0.3,0.1-0.7,0.2-1l1,0.2C7.9,29.3,7.8,29.6,7.7,30z M8.2,28.1l-1-0.3
			c0.1-0.3,0.2-0.7,0.3-1l0.9,0.3C8.4,27.4,8.3,27.7,8.2,28.1z M8.8,26.2l-0.9-0.4c0.1-0.3,0.3-0.6,0.4-0.9l0.9,0.4
			C9.1,25.6,8.9,25.9,8.8,26.2z M9.7,24.5L8.8,24c0.2-0.3,0.3-0.6,0.5-0.9l0.9,0.5C10,23.9,9.8,24.2,9.7,24.5z"/>
	</g>
	<g>
		<path class="st7" d="M63.2,46.8l-0.8-0.6c0.2-0.3,0.4-0.5,0.6-0.8l0.8,0.6C63.6,46.2,63.4,46.5,63.2,46.8z M64.4,45.1l-0.8-0.5
			c0.2-0.3,0.3-0.6,0.5-0.8l0.9,0.5C64.8,44.5,64.6,44.8,64.4,45.1z M65.4,43.3l-0.9-0.4c0.1-0.3,0.3-0.6,0.4-0.9l0.9,0.4
			C65.7,42.7,65.6,43,65.4,43.3z M66.2,41.4l-0.9-0.3c0.1-0.3,0.2-0.6,0.3-0.9l1,0.3C66.4,40.8,66.3,41.1,66.2,41.4z M66.8,39.5
			l-1-0.2c0.1-0.3,0.1-0.6,0.2-1l1,0.2C67,38.8,66.9,39.1,66.8,39.5z M67.2,37.5l-1-0.1c0-0.3,0.1-0.6,0.1-1l1,0.1
			C67.3,36.8,67.2,37.1,67.2,37.5z M67.4,35.4l-1,0c0-0.2,0-0.4,0-0.6l0-0.4l1,0l0,0.4C67.4,35,67.4,35.2,67.4,35.4z M66.3,33.4
			c0-0.3-0.1-0.6-0.1-1l1-0.1c0,0.3,0.1,0.7,0.1,1L66.3,33.4z M66.1,31.5c-0.1-0.3-0.1-0.6-0.2-1l1-0.2c0.1,0.3,0.1,0.7,0.2,1
			L66.1,31.5z M65.7,29.6c-0.1-0.3-0.2-0.6-0.3-0.9l0.9-0.3c0.1,0.3,0.2,0.6,0.3,1L65.7,29.6z M65,27.8c-0.1-0.3-0.3-0.6-0.4-0.9
			l0.9-0.4c0.1,0.3,0.3,0.6,0.4,0.9L65,27.8z M64.2,26c-0.2-0.3-0.3-0.6-0.5-0.8l0.9-0.5c0.2,0.3,0.3,0.6,0.5,0.9L64.2,26z"/>
	</g>
	<g>
		<path d="M20.7,54.7c-0.3,0-0.5-0.1-0.7-0.3c-0.4-0.4-0.4-1,0-1.4L23,50c0.4-0.4,1-0.4,1.4,0s0.4,1,0,1.4l-3.1,3.1
			C21.2,54.6,20.9,54.7,20.7,54.7z"/>
	</g>
	<g>
		<path d="M52.5,54.6c-0.3,0-0.5-0.1-0.7-0.3l-2.9-2.9c-0.4-0.4-0.4-1,0-1.4s1-0.4,1.4,0l2.9,2.9c0.4,0.4,0.4,1,0,1.4
			C53,54.5,52.8,54.6,52.5,54.6z"/>
	</g>
	<g>
		<path d="M51.9,48.7H22c-2.8,0-5-2.2-5-5V24.8c0-2.8,2.2-5,5-5h29.9c2.8,0,5,2.2,5,5v18.9C56.9,46.5,54.6,48.7,51.9,48.7z M22,21.8
			c-1.7,0-3,1.3-3,3v18.9c0,1.7,1.3,3,3,3h29.9c1.7,0,3-1.3,3-3V24.8c0-1.7-1.3-3-3-3H22z"/>
	</g>
	<g>
		<g>
			<path d="M36.7,18c-0.3,0-0.5-0.1-0.7-0.3l-5-5.4c-0.4-0.4-0.4-1,0-1.4c0.4-0.4,1-0.4,1.4,0l5,5.4c0.4,0.4,0.4,1,0,1.4
				C37.2,17.9,36.9,18,36.7,18z"/>
		</g>
		<g>
			<path d="M36.9,18c-0.2,0-0.5-0.1-0.7-0.3c-0.4-0.4-0.4-1,0-1.4l5-5.4c0.4-0.4,1-0.4,1.4,0c0.4,0.4,0.4,1,0,1.4l-5,5.4
				C37.4,17.9,37.2,18,36.9,18z"/>
		</g>
	</g>
	<g>
		<path d="M43.8,44h-19c-1.5,0-2.7-1.2-2.7-2.7v-14c0-1.5,1.2-2.7,2.7-2.7h19c1.5,0,2.7,1.2,2.7,2.7v14C46.6,42.8,45.3,44,43.8,44z
			 M24.8,26.5c-0.4,0-0.7,0.3-0.7,0.7v14c0,0.4,0.3,0.7,0.7,0.7h19c0.4,0,0.7-0.3,0.7-0.7v-14c0-0.4-0.3-0.7-0.7-0.7H24.8z"/>
	</g>
	<g>
		<path d="M51,42.8c-0.6,0-1-0.4-1-1V33c0-0.6,0.4-1,1-1s1,0.4,1,1v8.8C52,42.4,51.5,42.8,51,42.8z"/>
	</g>
	<g>
		<path d="M51,29.9c-0.6,0-1-0.4-1-1v-2.5c0-0.6,0.4-1,1-1s1,0.4,1,1v2.5C52,29.5,51.5,29.9,51,29.9z"/>
	</g>
</g>
</svg>
