<?xml version="1.0" encoding="utf-8"?>
<!-- Generator: Adobe Illustrator 22.1.0, SVG Export Plug-In . SVG Version: 6.00 Build 0)  -->
<svg version="1.1" id="Layer_1" xmlns="http://www.w3.org/2000/svg" xmlns:xlink="http://www.w3.org/1999/xlink" x="0px" y="0px"
	 viewBox="0 0 76.4 69.8" style="enable-background:new 0 0 76.4 69.8;" xml:space="preserve">
<style type="text/css">
	.st0{fill:#FDB913;}
	.st1{fill:#0096DB;}
	.st2{fill:#D51F53;}
	.st3{opacity:0.4;}
	.st4{fill:#8BC53F;}
</style>
<g>
	<g>
		<path class="st0" d="M75.2,14.6c-1.9,2.7-5.7,3.2-8.3,1.3c-2.7-1.9-3.2-5.7-1.3-8.3c1.9-2.7,5.7-3.2,8.3-1.3
			C76.6,8.2,77.1,11.9,75.2,14.6z"/>
	</g>
	<g>
		<path class="st1" d="M5.5,14c0-1.7,1.4-3.1,3.1-3.1c1.7,0,3.1,1.4,3.1,3.1c0,1.7-1.4,3.1-3.1,3.1C6.9,17.1,5.5,15.7,5.5,14z"/>
	</g>
	<g>
		<circle class="st2" cx="19.2" cy="46.3" r="3.8"/>
	</g>
	<g>
		<path class="st1" d="M5,58.7c-0.2-0.3-0.4-0.5-0.6-0.8l0.8-0.6c0.2,0.3,0.4,0.5,0.6,0.8L5,58.7z M3.8,57c-0.2-0.3-0.4-0.6-0.5-0.9
			l0.9-0.5c0.2,0.3,0.3,0.6,0.5,0.8L3.8,57z M2.8,55.3c-0.2-0.3-0.3-0.6-0.5-0.9l0.9-0.4c0.1,0.3,0.3,0.6,0.4,0.9L2.8,55.3z
			 M1.9,53.4c-0.1-0.3-0.3-0.6-0.4-0.9l0.9-0.4c0.1,0.3,0.2,0.6,0.4,0.9L1.9,53.4z M1.2,51.5c-0.1-0.3-0.2-0.6-0.3-1l1-0.3
			c0.1,0.3,0.2,0.6,0.3,0.9L1.2,51.5z M0.6,49.5c-0.1-0.3-0.1-0.7-0.2-1l1-0.2c0.1,0.3,0.1,0.6,0.2,1L0.6,49.5z M0.2,47.5
			c0-0.3-0.1-0.7-0.1-1l1-0.1c0,0.3,0.1,0.6,0.1,1L0.2,47.5z M0,45.5c0-0.3,0-0.7,0-1l1,0c0,0.3,0,0.7,0,1L0,45.5z M1,43.5l-1,0
			c0-0.3,0-0.7,0.1-1l1,0.1C1,42.8,1,43.2,1,43.5z M1.2,41.5l-1-0.1c0-0.3,0.1-0.7,0.1-1l1,0.2C1.2,40.9,1.2,41.2,1.2,41.5z
			 M1.5,39.6l-1-0.2c0.1-0.3,0.1-0.7,0.2-1l1,0.2C1.6,39,1.5,39.3,1.5,39.6z M2,37.7l-1-0.3c0.1-0.3,0.2-0.6,0.3-1l0.9,0.3
			C2.2,37.1,2.1,37.4,2,37.7z M2.6,35.9l-0.9-0.4c0.1-0.3,0.3-0.6,0.4-0.9L3,35C2.9,35.3,2.7,35.6,2.6,35.9z M3.4,34.1l-0.9-0.5
			C2.7,33.3,2.9,33,3,32.7l0.9,0.5C3.7,33.5,3.6,33.8,3.4,34.1z M4.4,32.4l-0.8-0.5c0.1-0.2,0.2-0.4,0.4-0.6l0.8,0.6
			C4.6,32,4.5,32.2,4.4,32.4z"/>
	</g>
	<g>
		<path class="st2" d="M68.3,58.7l-0.8-0.6c0.2-0.3,0.4-0.5,0.6-0.8l0.8,0.6C68.7,58.1,68.5,58.4,68.3,58.7z M69.5,57l-0.8-0.5
			c0.2-0.3,0.4-0.5,0.5-0.8l0.9,0.5C69.9,56.4,69.7,56.7,69.5,57z M70.6,55.3l-0.9-0.5c0.2-0.3,0.3-0.6,0.4-0.9l0.9,0.4
			C70.9,54.7,70.7,55,70.6,55.3z M71.5,53.4L70.5,53c0.1-0.3,0.3-0.6,0.4-0.9l0.9,0.4C71.7,52.8,71.6,53.1,71.5,53.4z M72.2,51.5
			l-0.9-0.3c0.1-0.3,0.2-0.6,0.3-0.9l1,0.3C72.4,50.9,72.3,51.2,72.2,51.5z M72.7,49.5l-1-0.2c0.1-0.3,0.1-0.6,0.2-1l1,0.2
			C72.9,48.9,72.8,49.2,72.7,49.5z M73.1,47.5l-1-0.1c0-0.3,0.1-0.6,0.1-1l1,0.1C73.2,46.9,73.2,47.2,73.1,47.5z M73.3,45.5l-1-0.1
			c0-0.3,0-0.7,0-1l1,0C73.3,44.8,73.3,45.2,73.3,45.5z M72.3,43.5c0-0.3,0-0.7-0.1-1l1-0.1c0,0.3,0,0.7,0.1,1L72.3,43.5z
			 M72.2,41.5c0-0.3-0.1-0.6-0.1-1l1-0.2c0.1,0.3,0.1,0.7,0.1,1L72.2,41.5z M71.9,39.6c-0.1-0.3-0.1-0.6-0.2-1l1-0.2
			c0.1,0.3,0.2,0.7,0.2,1L71.9,39.6z M71.4,37.7c-0.1-0.3-0.2-0.6-0.3-0.9l0.9-0.3c0.1,0.3,0.2,0.6,0.3,1L71.4,37.7z M70.7,35.9
			c-0.1-0.3-0.3-0.6-0.4-0.9l0.9-0.4c0.1,0.3,0.3,0.6,0.4,0.9L70.7,35.9z M69.9,34.1c-0.1-0.3-0.3-0.6-0.5-0.9l0.9-0.5
			c0.2,0.3,0.3,0.6,0.5,0.9L69.9,34.1z M68.9,32.4c-0.1-0.2-0.2-0.4-0.4-0.6l0.8-0.6c0.1,0.2,0.2,0.4,0.4,0.6L68.9,32.4z"/>
	</g>
	<g class="st3">
		<polygon class="st1" points="38,12.1 26.8,15.7 28.9,22 33.9,19.9 		"/>
	</g>
	<g class="st3">
		<polygon class="st0" points="50.9,3.1 54.6,1.8 55,13.1 55,17.4 		"/>
	</g>
	<g class="st3">
		<polygon class="st2" points="39.1,10.1 50.3,5.8 49.9,16.5 42.1,18.9 		"/>
	</g>
	<g>
		<path class="st4" d="M56.6,57.1c-1,1.4-2.9,1.7-4.3,0.7c-1.4-1-1.7-2.9-0.7-4.3c1-1.4,2.9-1.7,4.3-0.7
			C57.3,53.9,57.6,55.8,56.6,57.1z"/>
	</g>
	<g>
		<path d="M43.4,15.5c-0.2,0-0.4-0.1-0.5-0.3c-0.1-0.3,0-0.5,0.3-0.6l6.5-2.2c0.3-0.1,0.5,0,0.6,0.3c0.1,0.3,0,0.5-0.3,0.6l-6.5,2.2
			C43.6,15.5,43.5,15.5,43.4,15.5z"/>
	</g>
	<g>
		<path d="M32.6,18.4c-0.2,0-0.4-0.1-0.5-0.3c-0.1-0.3,0-0.5,0.3-0.6l3.1-1.1c0.3-0.1,0.5,0,0.6,0.3c0.1,0.3,0,0.5-0.3,0.6l-3.1,1.1
			C32.7,18.4,32.6,18.4,32.6,18.4z"/>
	</g>
	<g>
		<path d="M19,28.3c-0.4,0-0.8-0.3-1-0.7l-2.9-9.5c-0.2-0.5,0.1-1.1,0.7-1.3c0.5-0.2,1.1,0.1,1.3,0.7L20,27c0.2,0.5-0.1,1.1-0.7,1.3
			C19.2,28.3,19.1,28.3,19,28.3z"/>
	</g>
	<g>
		<path d="M30.1,27.1c-0.4,0-0.8-0.3-1-0.7l-4.9-15.1c-0.2-0.5,0.1-1.1,0.6-1.3c0.5-0.2,1.1,0.1,1.3,0.6L31,25.8
			c0.2,0.5-0.1,1.1-0.6,1.3C30.3,27.1,30.2,27.1,30.1,27.1z"/>
	</g>
	<g>
		<path d="M42.2,23.5c-0.4,0-0.8-0.3-1-0.7L36.4,7.7c-0.2-0.5,0.1-1.1,0.6-1.3c0.5-0.2,1.1,0.1,1.3,0.6l4.9,15.1
			c0.2,0.5-0.1,1.1-0.6,1.3C42.4,23.5,42.3,23.5,42.2,23.5z"/>
	</g>
	<g>
		<path d="M28.9,23c-0.2,0-0.3,0-0.4-0.1c-0.2-0.1-0.4-0.3-0.5-0.6l-2.3-6.9c-0.2-0.5,0.1-1.1,0.6-1.3l12.3-4.1
			c0.3-0.1,0.5-0.1,0.8,0.1c0.2,0.1,0.4,0.3,0.5,0.6l2.3,6.9c0.2,0.5-0.1,1.1-0.6,1.3l-12.3,4.1C29.1,23,29,23,28.9,23z M27.8,15.7
			l1.7,5l10.4-3.4l-1.7-5L27.8,15.7z"/>
	</g>
	<g>
		<path d="M19,25c-0.2,0-0.3,0-0.4-0.1c-0.2-0.1-0.4-0.3-0.5-0.6l-1.2-3.7c-0.1-0.3-0.1-0.5,0.1-0.8s0.3-0.4,0.6-0.5l8.9-2.9
			c0.5-0.2,1.1,0.1,1.3,0.6l1.2,3.7c0.1,0.3,0.1,0.5-0.1,0.8s-0.3,0.4-0.6,0.5l-8.9,2.9C19.2,24.9,19.1,25,19,25z M19,20.8l0.6,1.8
			l7-2.3L26,18.5L19,20.8z"/>
	</g>
	<g>
		<path d="M41.7,20.2c-0.2,0-0.3,0-0.4-0.1c-0.2-0.1-0.4-0.3-0.5-0.6L37.6,10c-0.2-0.5,0.1-1.1,0.6-1.3l12.3-4.1
			c0.3-0.1,0.5-0.1,0.8,0.1c0.2,0.1,0.4,0.3,0.5,0.6l3.1,9.5c0.1,0.3,0.1,0.5-0.1,0.8s-0.3,0.4-0.6,0.5L42,20.2
			C41.9,20.2,41.8,20.2,41.7,20.2z M39.8,10.3l2.5,7.6l10.4-3.4l-2.5-7.6L39.8,10.3z"/>
	</g>
	<g>
		<path d="M55.1,19.5c-0.2,0-0.3,0-0.4-0.1c-0.2-0.1-0.4-0.3-0.5-0.6L49,3.1c-0.2-0.5,0.1-1.1,0.6-1.3L55,0.1
			C55.2,0,55.5,0,55.7,0.1c0.2,0.1,0.4,0.3,0.5,0.6l5.2,15.8c0.2,0.5-0.1,1.1-0.6,1.3l-5.3,1.8C55.4,19.5,55.3,19.5,55.1,19.5z
			 M51.2,3.4l4.6,13.9l3.4-1.1L54.6,2.3L51.2,3.4z"/>
	</g>
	<g>
		<path d="M36.8,26.2c-0.6,0-1-0.4-1-1v-5.9c0-0.6,0.4-1,1-1s1,0.4,1,1v5.9C37.8,25.8,37.3,26.2,36.8,26.2z"/>
	</g>
	<g>
		<path d="M40.5,30.2h-7.7c-0.6,0-1-0.4-1-1c0-2.7,2.2-4.8,4.8-4.8s4.8,2.2,4.8,4.8C41.5,29.7,41.1,30.2,40.5,30.2z M34.1,28.2h5.3
			c-0.4-1.1-1.4-1.8-2.6-1.8S34.5,27.1,34.1,28.2z"/>
	</g>
	<g>
		<path d="M37.3,35.8h-1c-1.7,0-3-1.3-3-3v-1.4c0-1.7,1.3-3,3-3h1c1.7,0,3,1.3,3,3v1.4C40.3,34.4,38.9,35.8,37.3,35.8z M36.2,30.4
			c-0.6,0-1,0.4-1,1v1.4c0,0.6,0.4,1,1,1h1c0.6,0,1-0.4,1-1v-1.4c0-0.6-0.4-1-1-1H36.2z"/>
	</g>
	<g>
		<path d="M36.7,67.2c-0.6,0-1-0.4-1-1V45.4c0-0.6,0.4-1,1-1s1,0.4,1,1v20.8C37.7,66.8,37.3,67.2,36.7,67.2z"/>
	</g>
	<g>
		<path d="M36.7,43c-0.6,0-1-0.4-1-1v-4.4c0-0.6,0.4-1,1-1s1,0.4,1,1V42C37.7,42.6,37.3,43,36.7,43z"/>
	</g>
	<g>
		<path d="M25.5,69.8c-0.3,0-0.5-0.1-0.7-0.3c-0.4-0.4-0.4-1,0-1.4l8.4-8.4c0.4-0.4,1-0.4,1.4,0s0.4,1,0,1.4l-8.4,8.4
			C26,69.7,25.7,69.8,25.5,69.8z"/>
	</g>
	<g>
		<path d="M47.6,69.8c-0.3,0-0.5-0.1-0.7-0.3l-8.4-8.4c-0.4-0.4-0.4-1,0-1.4s1-0.4,1.4,0l8.4,8.4c0.4,0.4,0.4,1,0,1.4
			C48.1,69.7,47.9,69.8,47.6,69.8z"/>
	</g>
</g>
</svg>
