<?xml version="1.0" encoding="utf-8"?>
<!-- Generator: Adobe Illustrator 22.1.0, SVG Export Plug-In . SVG Version: 6.00 Build 0)  -->
<svg version="1.1" id="Layer_1" xmlns="http://www.w3.org/2000/svg" xmlns:xlink="http://www.w3.org/1999/xlink" x="0px" y="0px"
	 viewBox="0 0 61.6 47.6" style="enable-background:new 0 0 61.6 47.6;" xml:space="preserve">
<style type="text/css">
	.st0{opacity:0.4;}
	.st1{fill:#FDB913;}
	.st2{fill:#FFFFFF;}
	.st3{fill:#0096DB;}
	.st4{fill:#D51F53;}
	.st5{fill:none;}
</style>
<g>
	<g class="st0">
		<circle class="st1" cx="31.5" cy="30" r="15.6"/>
	</g>
	<g>
		<path class="st2" d="M35.3,32.1c-1.6,0-2.8-1.3-2.8-2.8s1.3-2.8,2.8-2.8c1.6,0,2.8,1.3,2.8,2.8S36.8,32.1,35.3,32.1z M35.3,28.5
			c-0.5,0-0.8,0.4-0.8,0.8s0.4,0.8,0.8,0.8s0.8-0.4,0.8-0.8S35.7,28.5,35.3,28.5z"/>
	</g>
	<g>
		<path class="st2" d="M35.3,34c-0.6,0-1-0.4-1-1V20.1c0-0.6,0.4-1,1-1s1,0.4,1,1V33C36.3,33.5,35.8,34,35.3,34z"/>
	</g>
	<g>
		<path class="st1" d="M60.8,8.1c-1.4,1.9-4.1,2.3-6,0.9c-1.9-1.4-2.3-4.1-0.9-6c1.4-1.9,4.1-2.3,6-0.9C61.7,3.6,62.2,6.2,60.8,8.1z
			"/>
	</g>
	<g>
		<path class="st3" d="M12,2.2C12,1,13,0,14.2,0c1.2,0,2.2,1,2.2,2.2c0,1.2-1,2.2-2.2,2.2C13,4.5,12,3.5,12,2.2z"/>
	</g>
	<g>
		<circle class="st4" cx="2.7" cy="44.9" r="2.7"/>
	</g>
	<g>
		<path class="st3" d="M14.6,39.2c-0.2-0.3-0.4-0.5-0.6-0.8l0.8-0.6c0.2,0.3,0.4,0.5,0.6,0.8L14.6,39.2z M13.4,37.5
			c-0.2-0.3-0.3-0.6-0.5-0.9l0.9-0.5c0.2,0.3,0.3,0.6,0.5,0.8L13.4,37.5z M12.4,35.7c-0.1-0.3-0.3-0.6-0.4-1l0.9-0.4
			c0.1,0.3,0.2,0.6,0.4,0.9L12.4,35.7z M11.7,33.8c-0.1-0.3-0.2-0.7-0.3-1l1-0.2c0.1,0.3,0.2,0.6,0.3,0.9L11.7,33.8z M11.2,31.8
			c-0.1-0.3-0.1-0.7-0.2-1l1-0.1c0,0.3,0.1,0.6,0.1,1L11.2,31.8z M11,29.7c0-0.3,0-0.6,0-1l1-0.1c0,0.4,0,0.7,0,1L11,29.7z M12,27.7
			l-1-0.1c0-0.3,0.1-0.7,0.1-1l1,0.1C12,27.1,12,27.4,12,27.7z M12.2,25.8l-1-0.2c0.1-0.3,0.1-0.7,0.2-1l1,0.2
			C12.3,25.2,12.3,25.5,12.2,25.8z M12.7,23.9l-1-0.3c0.1-0.3,0.2-0.7,0.3-1L13,23C12.9,23.3,12.8,23.6,12.7,23.9z M13.4,22.1
			l-0.9-0.4c0.1-0.3,0.3-0.6,0.5-0.9l0.9,0.5C13.7,21.6,13.5,21.8,13.4,22.1z M14.3,20.4l-0.8-0.5c0.1-0.2,0.2-0.3,0.3-0.5l0.8,0.6
			C14.5,20.1,14.4,20.3,14.3,20.4z"/>
	</g>
	<g>
		<path class="st4" d="M54.2,39.2l-0.8-0.6c0.2-0.3,0.4-0.5,0.6-0.8l0.8,0.6C54.6,38.7,54.4,39,54.2,39.2z M55.4,37.5L54.5,37
			c0.2-0.3,0.3-0.6,0.5-0.8l0.9,0.5C55.7,36.9,55.5,37.2,55.4,37.5z M56.3,35.7l-0.9-0.4c0.1-0.3,0.3-0.6,0.4-0.9l0.9,0.4
			C56.6,35.1,56.5,35.4,56.3,35.7z M57.1,33.8l-1-0.3c0.1-0.3,0.2-0.6,0.3-0.9l1,0.2C57.3,33.1,57.2,33.5,57.1,33.8z M57.6,31.8
			l-1-0.2c0.1-0.3,0.1-0.6,0.1-1l1,0.1C57.7,31.1,57.6,31.4,57.6,31.8z M57.8,29.7l-1-0.1c0-0.3,0-0.6,0-0.9l1-0.1
			C57.8,29.1,57.8,29.4,57.8,29.7z M56.8,27.7c0-0.3-0.1-0.6-0.1-1l1-0.1c0,0.3,0.1,0.7,0.1,1L56.8,27.7z M56.5,25.8
			c-0.1-0.3-0.1-0.6-0.2-0.9l1-0.2c0.1,0.3,0.2,0.7,0.2,1L56.5,25.8z M56.1,23.9c-0.1-0.3-0.2-0.6-0.3-0.9l0.9-0.4
			c0.1,0.3,0.2,0.6,0.3,1L56.1,23.9z M55.4,22.1c-0.1-0.3-0.3-0.6-0.4-0.9l0.9-0.5c0.2,0.3,0.3,0.6,0.5,0.9L55.4,22.1z M54.5,20.4
			c-0.1-0.2-0.2-0.3-0.3-0.5l0.8-0.6c0.1,0.2,0.2,0.3,0.3,0.5L54.5,20.4z"/>
	</g>
	<g>
		<path class="st5" d="M34.3,13.8c-8.6,0-15.5,7-15.5,15.5s7,15.5,15.5,15.5c8.6,0,15.5-7,15.5-15.5S42.9,13.8,34.3,13.8z
			 M35.3,31.9v1c0,0.6-0.4,1-1,1s-1-0.4-1-1v-1c-1.1-0.4-1.8-1.4-1.8-2.6s0.8-2.2,1.8-2.6v-6.5c0-0.6,0.4-1,1-1s1,0.4,1,1v6.5
			c1.1,0.4,1.8,1.4,1.8,2.6S36.4,31.5,35.3,31.9z"/>
		<path d="M34.3,11.8c-9.7,0-17.5,7.9-17.5,17.5s7.9,17.5,17.5,17.5S51.8,39,51.8,29.3S44,11.8,34.3,11.8z M34.3,44.8
			c-8.6,0-15.5-7-15.5-15.5s7-15.5,15.5-15.5c8.6,0,15.5,7,15.5,15.5S42.9,44.8,34.3,44.8z"/>
		<path d="M35.3,26.7v-6.5c0-0.6-0.4-1-1-1s-1,0.4-1,1v6.5c-1.1,0.4-1.8,1.4-1.8,2.6s0.8,2.2,1.8,2.6v1c0,0.6,0.4,1,1,1s1-0.4,1-1
			v-1c1.1-0.4,1.8-1.4,1.8-2.6S36.4,27.1,35.3,26.7z"/>
		<path d="M47.7,13.3c0.3,0,0.5-0.1,0.7-0.3l0.8-0.8c0.4-0.4,0.4-1,0-1.4s-1-0.4-1.4,0L47,11.5c-0.4,0.4-0.4,1,0,1.4
			C47.2,13.2,47.4,13.3,47.7,13.3z"/>
		<path d="M30.7,5.8h2.7v3.5c0,0.6,0.4,1,1,1s1-0.4,1-1V5.8H38c0.6,0,1-0.4,1-1s-0.4-1-1-1h-7.3c-0.6,0-1,0.4-1,1S30.1,5.8,30.7,5.8
			z"/>
	</g>
</g>
</svg>
