<?xml version="1.0" encoding="utf-8"?>
<!-- Generator: Adobe Illustrator 22.1.0, SVG Export Plug-In . SVG Version: 6.00 Build 0)  -->
<svg version="1.1" id="Layer_1" xmlns="http://www.w3.org/2000/svg" xmlns:xlink="http://www.w3.org/1999/xlink" x="0px" y="0px"
	 viewBox="0 0 67.4 54.9" style="enable-background:new 0 0 67.4 54.9;" xml:space="preserve">
<style type="text/css">
	.st0{opacity:0.4;}
	.st1{fill:#0096DB;}
	.st2{fill:#FDB913;}
	.st3{fill:#D51F53;}
	.st4{fill:none;}
</style>
<g>
	<g class="st0">
		<circle class="st1" cx="46.7" cy="35.8" r="8.9"/>
	</g>
	<g>
		<path class="st2" d="M63.9,9.4c-1.6,2.2-4.7,2.7-6.9,1.1c-2.2-1.6-2.7-4.7-1.1-6.9c1.6-2.2,4.7-2.7,6.9-1.1
			C65,4.1,65.5,7.2,63.9,9.4z"/>
	</g>
	<g>
		<path class="st1" d="M7.6,2.6C7.6,1.1,8.7,0,10.1,0c1.4,0,2.6,1.2,2.6,2.6c0,1.4-1.2,2.6-2.6,2.6C8.7,5.1,7.6,4,7.6,2.6z"/>
	</g>
	<g>
		<circle class="st3" cx="3.1" cy="51.8" r="3.1"/>
	</g>
	<g>
		<path class="st1" d="M10.6,45.2c-0.2-0.3-0.4-0.5-0.6-0.8l0.8-0.6c0.2,0.3,0.4,0.5,0.6,0.8L10.6,45.2z M9.4,43.6
			c-0.2-0.3-0.4-0.6-0.5-0.9l0.9-0.5c0.2,0.3,0.3,0.6,0.5,0.8L9.4,43.6z M8.4,41.8c-0.2-0.3-0.3-0.6-0.4-0.9l0.9-0.4
			C9,40.7,9.2,41,9.3,41.3L8.4,41.8z M7.6,39.9c-0.1-0.3-0.2-0.6-0.3-1l1-0.3c0.1,0.3,0.2,0.6,0.3,0.9L7.6,39.9z M7,37.9
			c-0.1-0.3-0.2-0.7-0.2-1l1-0.2c0.1,0.3,0.1,0.6,0.2,1L7,37.9z M6.6,35.9c0-0.3-0.1-0.7-0.1-1l1-0.1c0,0.3,0.1,0.6,0.1,1L6.6,35.9z
			 M6.5,33.9c0-0.2,0-0.4,0-0.6l0-0.4l1,0l0,0.4c0,0.2,0,0.4,0,0.6L6.5,33.9z M7.5,31.9l-1-0.1c0-0.3,0.1-0.7,0.1-1l1,0.1
			C7.5,31.2,7.5,31.6,7.5,31.9z M7.7,30l-1-0.2c0.1-0.3,0.1-0.7,0.2-1l1,0.2C7.9,29.3,7.8,29.6,7.7,30z M8.2,28.1l-1-0.3
			c0.1-0.3,0.2-0.7,0.3-1l0.9,0.3C8.4,27.4,8.3,27.7,8.2,28.1z M8.8,26.2l-0.9-0.4c0.1-0.3,0.3-0.6,0.4-0.9l0.9,0.4
			C9.1,25.6,8.9,25.9,8.8,26.2z M9.7,24.5L8.8,24c0.2-0.3,0.3-0.6,0.5-0.9l0.9,0.5C10,23.9,9.8,24.2,9.7,24.5z"/>
	</g>
	<g>
		<path class="st3" d="M63.2,46.8l-0.8-0.6c0.2-0.3,0.4-0.5,0.6-0.8l0.8,0.6C63.6,46.2,63.4,46.5,63.2,46.8z M64.4,45.1l-0.8-0.5
			c0.2-0.3,0.3-0.6,0.5-0.8l0.9,0.5C64.8,44.5,64.6,44.8,64.4,45.1z M65.4,43.3l-0.9-0.4c0.1-0.3,0.3-0.6,0.4-0.9l0.9,0.4
			C65.7,42.7,65.6,43,65.4,43.3z M66.2,41.4l-0.9-0.3c0.1-0.3,0.2-0.6,0.3-0.9l1,0.3C66.4,40.8,66.3,41.1,66.2,41.4z M66.8,39.5
			l-1-0.2c0.1-0.3,0.1-0.6,0.2-1l1,0.2C67,38.8,66.9,39.1,66.8,39.5z M67.2,37.5l-1-0.1c0-0.3,0.1-0.6,0.1-1l1,0.1
			C67.3,36.8,67.2,37.1,67.2,37.5z M67.4,35.4l-1,0c0-0.2,0-0.4,0-0.6l0-0.4l1,0l0,0.4C67.4,35,67.4,35.2,67.4,35.4z M66.3,33.4
			c0-0.3-0.1-0.6-0.1-1l1-0.1c0,0.3,0.1,0.7,0.1,1L66.3,33.4z M66.1,31.5c-0.1-0.3-0.1-0.6-0.2-1l1-0.2c0.1,0.3,0.1,0.7,0.2,1
			L66.1,31.5z M65.7,29.6c-0.1-0.3-0.2-0.6-0.3-0.9l0.9-0.3c0.1,0.3,0.2,0.6,0.3,1L65.7,29.6z M65,27.8c-0.1-0.3-0.3-0.6-0.4-0.9
			l0.9-0.4c0.1,0.3,0.3,0.6,0.4,0.9L65,27.8z M64.2,26c-0.2-0.3-0.3-0.6-0.5-0.8l0.9-0.5c0.2,0.3,0.3,0.6,0.5,0.9L64.2,26z"/>
	</g>
	<g>
		<path class="st4" d="M48.6,26c-5.4,0-9.9,4.4-9.9,9.9s4.4,9.9,9.9,9.9s9.9-4.4,9.9-9.9S54.1,26,48.6,26z M55.2,39.2
			c-0.2,0.3-0.5,0.5-0.9,0.5c-0.2,0-0.3,0-0.5-0.1l-5.7-3.3c0,0-0.1-0.1-0.1-0.1c-0.1,0-0.1-0.1-0.2-0.1c0,0-0.1-0.1-0.1-0.2
			c0-0.1-0.1-0.1-0.1-0.2c0-0.1,0-0.1,0-0.2c0,0,0-0.1,0-0.1v-4.3c0-0.6,0.4-1,1-1s1,0.4,1,1v3.7l5.2,3
			C55.3,38.1,55.4,38.7,55.2,39.2z"/>
		<path d="M48.6,24c-6.5,0-11.9,5.3-11.9,11.9c0,6.5,5.3,11.9,11.9,11.9c6.5,0,11.9-5.3,11.9-11.9C60.5,29.3,55.2,24,48.6,24z
			 M48.6,45.7c-5.4,0-9.9-4.4-9.9-9.9s4.4-9.9,9.9-9.9s9.9,4.4,9.9,9.9S54.1,45.7,48.6,45.7z"/>
		<path d="M54.8,37.8l-5.2-3v-3.7c0-0.6-0.4-1-1-1s-1,0.4-1,1v4.3c0,0,0,0.1,0,0.1c0,0.1,0,0.1,0,0.2c0,0.1,0.1,0.1,0.1,0.2
			c0,0.1,0.1,0.1,0.1,0.2c0,0.1,0.1,0.1,0.2,0.1c0,0,0.1,0.1,0.1,0.1l5.7,3.3c0.2,0.1,0.3,0.1,0.5,0.1c0.3,0,0.7-0.2,0.9-0.5
			C55.4,38.7,55.3,38.1,54.8,37.8z"/>
		<path d="M17.9,15.6h30.2c0.6,0,1-0.4,1-1s-0.4-1-1-1H17.9c-0.6,0-1,0.4-1,1S17.4,15.6,17.9,15.6z"/>
		<path d="M17.9,23.1h20.8c0.6,0,1-0.4,1-1s-0.4-1-1-1H17.9c-0.6,0-1,0.4-1,1S17.4,23.1,17.9,23.1z"/>
		<path d="M17.9,30.7H33c0.6,0,1-0.4,1-1s-0.4-1-1-1H17.9c-0.6,0-1,0.4-1,1S17.4,30.7,17.9,30.7z"/>
		<path d="M17.9,38.3h13.2c0.6,0,1-0.4,1-1s-0.4-1-1-1H17.9c-0.6,0-1,0.4-1,1S17.4,38.3,17.9,38.3z"/>
		<path d="M34.9,43.8h-17c-0.6,0-1,0.4-1,1s0.4,1,1,1h17c0.6,0,1-0.4,1-1S35.5,43.8,34.9,43.8z"/>
	</g>
</g>
</svg>
