<?xml version="1.0" encoding="utf-8"?>
<!-- Generator: Adobe Illustrator 22.1.0, SVG Export Plug-In . SVG Version: 6.00 Build 0)  -->
<svg version="1.1" id="Layer_1" xmlns="http://www.w3.org/2000/svg" xmlns:xlink="http://www.w3.org/1999/xlink" x="0px" y="0px"
	 viewBox="0 0 19.4 22" style="enable-background:new 0 0 19.4 22;" xml:space="preserve">
<style type="text/css">
	.st0{fill:url(#SVGID_1_);}
</style>
<linearGradient id="SVGID_1_" gradientUnits="userSpaceOnUse" x1="1.946" y1="19.7807" x2="17.4154" y2="4.3114">
	<stop  offset="0" style="stop-color:#D51F53"/>
	<stop  offset="1" style="stop-color:#F15A22"/>
</linearGradient>
<path class="st0" d="M2.4,14.6c0.6,0,1-0.4,1-1V8.3C3.4,4.8,6.2,2,9.7,2S16,4.8,16,8.3v5.3c0,0.6,0.4,1,1,1s1-0.4,1-1V8.3
	C18,3.7,14.2,0,9.7,0S1.4,3.7,1.4,8.3v5.3C1.4,14.1,1.8,14.6,2.4,14.6z M18.4,16.4H1c-0.6,0-1,0.4-1,1s0.4,1,1,1h5.6
	c0,0.2-0.1,0.3-0.1,0.5C6.6,20.6,8,22,9.7,22s3.1-1.4,3.1-3.1c0-0.2,0-0.3,0-0.5h5.6c0.6,0,1-0.4,1-1S18.9,16.4,18.4,16.4z M9.7,20
	c-0.6,0-1.1-0.5-1.1-1.1c0-0.2,0-0.3,0.1-0.5h2c0.1,0.1,0.1,0.3,0.1,0.5C10.8,19.5,10.3,20,9.7,20z"/>
</svg>
