<?xml version="1.0" encoding="utf-8"?>
<!-- Generator: Adobe Illustrator 22.1.0, SVG Export Plug-In . SVG Version: 6.00 Build 0)  -->
<svg version="1.1" id="Layer_1" xmlns="http://www.w3.org/2000/svg" xmlns:xlink="http://www.w3.org/1999/xlink" x="0px" y="0px"
	 viewBox="0 0 64.2 55.3" style="enable-background:new 0 0 64.2 55.3;" xml:space="preserve">
<style type="text/css">
	.st0{opacity:0.4;}
	.st1{fill:#D51F53;}
	.st2{fill:#FDB913;}
	.st3{fill:#8BC53F;}
	.st4{fill:#0096DB;}
	.st5{fill:#FFFFFF;}
</style>
<g>
	<g class="st0">
		<polygon class="st1" points="19,10.8 31,14.7 22.2,16.4 		"/>
	</g>
	<g class="st0">
		<polygon class="st2" points="21.2,16.6 30.3,28.9 43.2,12.3 		"/>
	</g>
	<g>
		<path class="st3" d="M63.8,45.7c0,1.6-1.3,2.9-2.9,2.9c-1.6,0-2.9-1.3-2.9-2.9c0-1.6,1.3-2.9,2.9-2.9
			C62.5,42.8,63.8,44.1,63.8,45.7z"/>
	</g>
	<g>
		<path class="st2" d="M63.2,10.7c-1.6,2.2-4.7,2.7-6.9,1.1c-2.2-1.6-2.7-4.7-1.1-6.9c1.6-2.2,4.7-2.7,6.9-1.1
			C64.4,5.4,64.8,8.5,63.2,10.7z"/>
	</g>
	<g>
		<path class="st4" d="M0,2.6C0,1.1,1.2,0,2.6,0C4,0,5.2,1.2,5.2,2.6C5.1,4,4,5.2,2.6,5.2C1.1,5.1,0,4,0,2.6z"/>
	</g>
	<g>
		<circle class="st1" cx="8.3" cy="45.7" r="3.1"/>
	</g>
	<g>
		<path class="st4" d="M18.4,39.9c-0.2-0.3-0.4-0.5-0.6-0.8l0.8-0.6c0.2,0.3,0.4,0.5,0.6,0.8L18.4,39.9z M17.2,38.2
			c-0.2-0.3-0.4-0.6-0.5-0.9l0.9-0.5c0.2,0.3,0.3,0.6,0.5,0.8L17.2,38.2z M16.2,36.4c-0.2-0.3-0.3-0.6-0.4-0.9l0.9-0.4
			c0.1,0.3,0.3,0.6,0.4,0.9L16.2,36.4z M15.4,34.5c-0.1-0.3-0.2-0.6-0.3-1l1-0.3c0.1,0.3,0.2,0.6,0.3,0.9L15.4,34.5z M14.8,32.5
			c-0.1-0.3-0.2-0.7-0.2-1l1-0.2c0.1,0.3,0.1,0.6,0.2,1L14.8,32.5z M14.4,30.5c0-0.3-0.1-0.7-0.1-1l1-0.1c0,0.3,0.1,0.6,0.1,1
			L14.4,30.5z M14.2,28.5c0-0.2,0-0.4,0-0.6l0-0.4l1,0l0,0.4c0,0.2,0,0.4,0,0.6L14.2,28.5z M15.3,26.5l-1-0.1c0-0.3,0.1-0.7,0.1-1
			l1,0.1C15.3,25.9,15.3,26.2,15.3,26.5z M15.5,24.6l-1-0.2c0.1-0.3,0.1-0.7,0.2-1l1,0.2C15.6,23.9,15.6,24.3,15.5,24.6z M16,22.7
			l-1-0.3c0.1-0.3,0.2-0.7,0.3-1l0.9,0.3C16.1,22.1,16.1,22.4,16,22.7z M16.6,20.8l-0.9-0.4c0.1-0.3,0.3-0.6,0.4-0.9L17,20
			C16.9,20.3,16.7,20.5,16.6,20.8z M17.4,19.1l-0.9-0.5c0.2-0.3,0.3-0.6,0.5-0.9l0.9,0.5C17.8,18.5,17.6,18.8,17.4,19.1z"/>
	</g>
	<g>
		<path class="st1" d="M47.2,39.9l-0.8-0.6c0.2-0.3,0.4-0.5,0.6-0.8l0.8,0.6C47.6,39.3,47.4,39.6,47.2,39.9z M48.4,38.2l-0.8-0.5
			c0.2-0.3,0.3-0.6,0.5-0.8l0.9,0.5C48.7,37.6,48.6,37.9,48.4,38.2z M49.4,36.4L48.5,36c0.1-0.3,0.3-0.6,0.4-0.9l0.9,0.4
			C49.7,35.8,49.5,36.1,49.4,36.4z M50.2,34.5l-0.9-0.3c0.1-0.3,0.2-0.6,0.3-0.9l1,0.3C50.4,33.9,50.3,34.2,50.2,34.5z M50.8,32.5
			l-1-0.2c0.1-0.3,0.1-0.6,0.2-1l1,0.2C50.9,31.9,50.9,32.2,50.8,32.5z M51.2,30.5l-1-0.1c0-0.3,0.1-0.6,0.1-1l1,0.1
			C51.3,29.9,51.2,30.2,51.2,30.5z M51.3,28.5l-1,0c0-0.2,0-0.4,0-0.6l0-0.4l1,0l0,0.4C51.4,28.1,51.4,28.3,51.3,28.5z M50.3,26.5
			c0-0.3-0.1-0.6-0.1-1l1-0.1c0,0.3,0.1,0.7,0.1,1L50.3,26.5z M50.1,24.6c-0.1-0.3-0.1-0.6-0.2-1l1-0.2c0.1,0.3,0.1,0.7,0.2,1
			L50.1,24.6z M49.6,22.7c-0.1-0.3-0.2-0.6-0.3-0.9l0.9-0.3c0.1,0.3,0.2,0.6,0.3,1L49.6,22.7z M49,20.8c-0.1-0.3-0.3-0.6-0.4-0.9
			l0.9-0.4c0.1,0.3,0.3,0.6,0.4,0.9L49,20.8z M48.1,19.1c-0.2-0.3-0.3-0.6-0.5-0.8l0.9-0.5c0.2,0.3,0.3,0.6,0.5,0.9L48.1,19.1z"/>
	</g>
	<g class="st0">
		<path class="st2" d="M32.7,44h-1v-0.7h1V44z M32.7,42.3h-1v-1h1V42.3z M32.7,40.3h-1v-1h1V40.3z M32.7,38.3h-1v-1h1V38.3z
			 M32.7,36.3h-1v-1h1V36.3z M32.7,34.3h-1v-1h1V34.3z M32.7,32.3h-1v-1h1V32.3z"/>
	</g>
	<g class="st0">
		<polygon class="st3" points="32.2,43.3 26.6,53.7 48.9,53.7 		"/>
	</g>
	<g class="st0">
		<polygon class="st4" points="17.4,53.7 26.6,53.7 32.2,43.3 		"/>
	</g>
	<g>
		<rect x="17.4" y="52.7" class="st5" width="31.4" height="1"/>
	</g>
	<g>
		<path d="M48.6,55.3H15.8c-1,0-1.9-0.5-2.3-1.3c-0.3-0.7-0.3-1.4,0.2-2.1l16.5-22.8L13.7,6.4c-0.5-0.6-0.5-1.4-0.2-2.1
			c0.4-0.8,1.3-1.3,2.3-1.3c0,0,0,0,0,0l32.8,0c1,0,1.9,0.5,2.3,1.3c0.3,0.7,0.3,1.4-0.2,2.1L34.2,29.2L50.7,52
			c0.5,0.6,0.5,1.4,0.2,2.1C50.4,54.8,49.6,55.3,48.6,55.3z M32.2,29.9L15.4,53.2c0,0,0.2,0.2,0.5,0.2h32.8c0.3,0,0.5-0.1,0.5-0.2
			L32.2,29.9z M15.4,5.2L15.4,5.2l16.8,23.3L49,5.3c0,0-0.2-0.2-0.5-0.2l-32.8,0l0,0C15.5,5.1,15.4,5.2,15.4,5.2L15.4,5.2
			C15.3,5.3,15.4,5.2,15.4,5.2z"/>
	</g>
</g>
</svg>
