<?xml version="1.0" encoding="utf-8"?>
<!-- Generator: Adobe Illustrator 22.1.0, SVG Export Plug-In . SVG Version: 6.00 Build 0)  -->
<svg version="1.1" id="Layer_1" xmlns="http://www.w3.org/2000/svg" xmlns:xlink="http://www.w3.org/1999/xlink" x="0px" y="0px"
	 viewBox="0 0 40.5 40" style="enable-background:new 0 0 40.5 40;" xml:space="preserve">
<style type="text/css">
	.st0{fill:#999999;}
</style>
<path class="st0" d="M38.5,36H32c4.9-3.6,8-9.4,8-16C40,9,31,0,20,0S0,9,0,20s9,20,20,20c0.1,0,0.2,0,0.3,0c0.1,0,0.1,0,0.2,0h18
	c1.1,0,2-0.9,2-2S39.6,36,38.5,36z M20,36c-8.8,0-16-7.2-16-16S11.2,4,20,4s16,7.2,16,16S28.8,36,20,36z M10,16c-2.2,0-4,1.8-4,4
	s1.8,4,4,4c2.2,0,4-1.8,4-4S12.2,16,10,16z M10,22c-1.1,0-2-0.9-2-2s0.9-2,2-2s2,0.9,2,2S11.1,22,10,22z M30,16c-2.2,0-4,1.8-4,4
	s1.8,4,4,4c2.2,0,4-1.8,4-4S32.2,16,30,16z M30,22c-1.1,0-2-0.9-2-2s0.9-2,2-2s2,0.9,2,2S31.1,22,30,22z M20,6c-2.2,0-4,1.8-4,4
	s1.8,4,4,4c2.2,0,4-1.8,4-4S22.2,6,20,6z M20,12c-1.1,0-2-0.9-2-2s0.9-2,2-2s2,0.9,2,2S21.1,12,20,12z M20,26c-2.2,0-4,1.8-4,4
	s1.8,4,4,4c2.2,0,4-1.8,4-4S22.2,26,20,26z M20,32c-1.1,0-2-0.9-2-2s0.9-2,2-2s2,0.9,2,2S21.1,32,20,32z M20,23c1.7,0,3-1.3,3-3
	s-1.3-3-3-3s-3,1.3-3,3S18.3,23,20,23z"/>
</svg>
