<?xml version="1.0" encoding="utf-8"?>
<!-- Generator: Adobe Illustrator 22.1.0, SVG Export Plug-In . SVG Version: 6.00 Build 0)  -->
<svg version="1.1" id="Layer_1" xmlns="http://www.w3.org/2000/svg" xmlns:xlink="http://www.w3.org/1999/xlink" x="0px" y="0px"
	 viewBox="0 0 17 22" style="enable-background:new 0 0 17 22;" xml:space="preserve">
<style type="text/css">
	.st0{fill:url(#SVGID_1_);}
</style>
<linearGradient id="SVGID_1_" gradientUnits="userSpaceOnUse" x1="1.601" y1="18.6161" x2="15.5712" y2="4.6459">
	<stop  offset="0" style="stop-color:#D51F53"/>
	<stop  offset="1" style="stop-color:#F15A22"/>
</linearGradient>
<path class="st0" d="M6.8,2h0.7v1.5c0,0.6,0.4,1,1,1s1-0.4,1-1V2h0.7c0.6,0,1-0.4,1-1s-0.4-1-1-1H6.8c-0.6,0-1,0.4-1,1S6.3,2,6.8,2z
	 M14.6,6.8c0.3,0,0.5-0.1,0.7-0.3l0.3-0.3c0.4-0.4,0.4-1,0-1.4s-1-0.4-1.4,0L13.9,5c-0.4,0.4-0.4,1,0,1.4
	C14.1,6.7,14.3,6.8,14.6,6.8z M9.5,12V9.3c0-0.6-0.4-1-1-1s-1,0.4-1,1V12c-0.5,0.3-0.8,0.9-0.8,1.5c0,0.6,0.3,1.2,0.8,1.5v0.1
	c0,0.6,0.4,1,1,1s1-0.4,1-1V15c0.5-0.3,0.8-0.9,0.8-1.5C10.3,12.9,10,12.3,9.5,12z M8.5,5C3.8,5,0,8.8,0,13.5S3.8,22,8.5,22
	s8.5-3.8,8.5-8.5S13.2,5,8.5,5z M8.5,20C4.9,20,2,17.1,2,13.5S4.9,7,8.5,7S15,9.9,15,13.5S12.1,20,8.5,20z"/>
</svg>
