<?xml version="1.0" encoding="utf-8"?>
<!-- Generator: Adobe Illustrator 22.1.0, SVG Export Plug-In . SVG Version: 6.00 Build 0)  -->
<svg version="1.1" id="Layer_1" xmlns="http://www.w3.org/2000/svg" xmlns:xlink="http://www.w3.org/1999/xlink" x="0px" y="0px"
	 viewBox="0 0 18 22" style="enable-background:new 0 0 18 22;" xml:space="preserve">
<style type="text/css">
	.st0{fill:#999999;}
</style>
<path class="st0" d="M1,5h16c0.6,0,1-0.4,1-1s-0.4-1-1-1H1C0.4,3,0,3.4,0,4S0.4,5,1,5z M7.3,2h3.3c0.6,0,1-0.4,1-1s-0.4-1-1-1H7.3
	c-0.6,0-1,0.4-1,1S6.8,2,7.3,2z M12,10v6c0,0.6,0.4,1,1,1s1-0.4,1-1v-6c0-0.6-0.4-1-1-1S12,9.4,12,10z M8,10v6c0,0.6,0.4,1,1,1
	s1-0.4,1-1v-6c0-0.6-0.4-1-1-1S8,9.4,8,10z M17,7c-0.6,0-1,0.4-1,1v9.9c0,1.2-0.9,2.1-2.1,2.1H4.1C2.9,20,2,19.1,2,17.9V8
	c0-0.6-0.4-1-1-1S0,7.4,0,8v9.9C0,20.2,1.8,22,4.1,22h9.8c2.3,0,4.1-1.8,4.1-4.1V8C18,7.4,17.6,7,17,7z M4,10v6c0,0.6,0.4,1,1,1
	s1-0.4,1-1v-6c0-0.6-0.4-1-1-1S4,9.4,4,10z"/>
</svg>
