<?xml version="1.0" encoding="utf-8"?>
<!-- Generator: Adobe Illustrator 22.1.0, SVG Export Plug-In . SVG Version: 6.00 Build 0)  -->
<svg version="1.1" id="Isolation_Mode" xmlns="http://www.w3.org/2000/svg" xmlns:xlink="http://www.w3.org/1999/xlink" x="0px"
	 y="0px" viewBox="0 0 22 22" style="enable-background:new 0 0 22 22;" xml:space="preserve">
<style type="text/css">
	.st0{fill:#666666;}
</style>
<g>
	<g>
		<path class="st0" d="M8.1,16.2C3.6,16.2,0,12.5,0,8.1C0,3.6,3.6,0,8.1,0s8.1,3.6,8.1,8.1C16.2,12.5,12.5,16.2,8.1,16.2z M8.1,2
			C4.7,2,2,4.7,2,8.1s2.7,6.1,6.1,6.1c3.4,0,6.1-2.7,6.1-6.1S11.4,2,8.1,2z"/>
	</g>
	<g>
		<path class="st0" d="M21,22c-0.3,0-0.5-0.1-0.7-0.3l-4.2-4.2c-0.4-0.4-0.4-1,0-1.4s1-0.4,1.4,0l4.2,4.2c0.4,0.4,0.4,1,0,1.4
			C21.5,21.9,21.3,22,21,22z"/>
	</g>
</g>
</svg>
