<?xml version="1.0" encoding="utf-8"?>
<!-- Generator: Adobe Illustrator 22.1.0, SVG Export Plug-In . SVG Version: 6.00 Build 0)  -->
<svg version="1.1" id="Layer_1" xmlns="http://www.w3.org/2000/svg" xmlns:xlink="http://www.w3.org/1999/xlink" x="0px" y="0px"
	 viewBox="0 0 30 30" style="enable-background:new 0 0 30 30;" xml:space="preserve">
<style type="text/css">
	.st0{fill:url(#SVGID_1_);}
	.st1{fill:#FFFFFF;}
	.st2{fill:url(#SVGID_2_);}
	.st3{fill:url(#SVGID_3_);}
</style>
<g>
	<linearGradient id="SVGID_1_" gradientUnits="userSpaceOnUse" x1="4.3934" y1="25.6066" x2="25.6066" y2="4.3934">
		<stop  offset="0" style="stop-color:#D51E53"/>
		<stop  offset="1" style="stop-color:#1A95D3"/>
	</linearGradient>
	<circle class="st0" cx="15" cy="15" r="15"/>
	<path class="st1" d="M13,7.1c-3.3,0-6,2.6-6,5.9s2.7,5.9,6,5.9s6-2.6,6-5.9S16.2,7.1,13,7.1z M13,16.9c-2.2,0-4-1.7-4-3.9
		s1.8-3.9,4-3.9s4,1.7,4,3.9S15.1,16.9,13,16.9z M22.7,21.2l-2.9-2.9c-0.4-0.4-1-0.4-1.4,0c-0.4,0.4-0.4,1,0,1.4l2.9,2.9
		c0.2,0.2,0.4,0.3,0.7,0.3c0.3,0,0.5-0.1,0.7-0.3C23.1,22.2,23.1,21.5,22.7,21.2z"/>
</g>
</svg>
