<?xml version="1.0" encoding="utf-8"?>
<!-- Generator: Adobe Illustrator 22.1.0, SVG Export Plug-In . SVG Version: 6.00 Build 0)  -->
<svg version="1.1" id="Layer_1" xmlns="http://www.w3.org/2000/svg" xmlns:xlink="http://www.w3.org/1999/xlink" x="0px" y="0px"
	 viewBox="0 0 19.7 19.8" style="enable-background:new 0 0 19.7 19.8;" xml:space="preserve">
<style type="text/css">
	.st0{fill:url(#SVGID_1_);}
</style>
<linearGradient id="SVGID_1_" gradientUnits="userSpaceOnUse" x1="2.8605" y1="16.8675" x2="16.8108" y2="2.9171">
	<stop  offset="0" style="stop-color:#D51F53"/>
	<stop  offset="1" style="stop-color:#F15A22"/>
</linearGradient>
<path class="st0" d="M9.8,4.7C7,4.7,4.7,7,4.7,9.9c0,2.9,2.3,5.2,5.2,5.2S15,12.8,15,9.9C15,7,12.7,4.7,9.8,4.7z M9.8,13.1
	c-1.7,0-3.2-1.4-3.2-3.2c0-1.8,1.4-3.2,3.2-3.2S13,8.1,13,9.9C13,11.7,11.6,13.1,9.8,13.1z M19.6,8.4c-0.1-0.5-0.4-0.8-0.9-0.9
	l-1.5-0.2c-0.1-0.3-0.2-0.5-0.2-0.6c0,0-0.1-0.2-0.2-0.4l0.9-1.2C18,4.8,18,4.3,17.8,4c-0.3-0.4-0.6-0.7-1-1.1
	c-0.4-0.4-0.7-0.7-1.1-1c-0.4-0.3-0.9-0.3-1.2,0l-1.2,0.9c-0.2-0.1-0.4-0.2-0.5-0.2c0,0-0.2-0.1-0.5-0.2L12.1,1
	c-0.1-0.5-0.4-0.8-0.9-0.9c-0.9-0.1-2-0.1-2.9,0C7.9,0.1,7.6,0.5,7.5,1L7.3,2.4C7.1,2.5,6.9,2.6,6.8,2.7c-0.1,0-0.2,0.1-0.4,0.2
	L5.2,1.9C4.8,1.7,4.3,1.7,4,1.9c-0.4,0.3-0.7,0.6-1.1,1C2.4,3.4,2.1,3.7,1.9,4c-0.3,0.4-0.3,0.9,0,1.2l0.9,1.2
	C2.7,6.6,2.6,6.9,2.6,6.9c0,0-0.1,0.2-0.2,0.5L0.9,7.6C0.5,7.6,0.1,8,0.1,8.4C0,8.9,0,9.4,0,9.9c0,0.5,0,1,0.1,1.5
	c0.1,0.5,0.4,0.8,0.9,0.9l1.5,0.2c0.1,0.3,0.2,0.5,0.2,0.5c0,0,0.1,0.2,0.2,0.5l-0.9,1.2c-0.3,0.4-0.3,0.9,0,1.2
	c0.3,0.4,0.6,0.7,1,1.1c0.5,0.5,0.8,0.8,1.1,1c0.4,0.3,0.9,0.3,1.2,0l1.2-0.9c0.2,0.1,0.4,0.2,0.5,0.2c0,0,0.2,0.1,0.5,0.2l0.2,1.5
	c0.1,0.5,0.4,0.8,0.9,0.9c0.5,0.1,0.9,0.1,1.4,0.1c0.5,0,1,0,1.4-0.1c0.4-0.1,0.8-0.4,0.9-0.9l0.2-1.5c0.3-0.1,0.5-0.2,0.5-0.2
	c0,0,0.2-0.1,0.4-0.2l1.2,0.9c0.4,0.3,0.9,0.3,1.2,0c0.4-0.3,0.7-0.6,1.1-1c0.5-0.5,0.8-0.8,1-1.1c0.3-0.4,0.3-0.9,0-1.2l-0.9-1.2
	c0.1-0.2,0.2-0.4,0.2-0.5c0,0,0.1-0.2,0.2-0.5l1.5-0.2c0.5-0.1,0.8-0.4,0.9-0.9c0.1-0.5,0.1-0.9,0.1-1.5S19.6,8.9,19.6,8.4z
	 M17.7,10.3l-0.8,0.1c-0.7,0.1-1.2,0.6-1.5,1.2c-0.1,0.2-0.2,0.5-0.2,0.5c0,0.1-0.1,0.3-0.2,0.5c-0.3,0.6-0.2,1.3,0.2,1.9l0.5,0.7
	c-0.1,0.1-0.2,0.2-0.3,0.3c-0.1,0.1-0.2,0.2-0.3,0.3l-0.6-0.5c-0.5-0.4-1.3-0.5-1.9-0.2c-0.2,0.1-0.5,0.2-0.4,0.2v0
	c0,0-0.3,0.1-0.5,0.2c-0.6,0.2-1.1,0.8-1.2,1.5l-0.1,0.8c-0.3,0-0.6,0-0.9,0L9.3,17c-0.1-0.7-0.5-1.2-1.2-1.5
	c-0.2-0.1-0.5-0.2-0.5-0.2c-0.1,0-0.3-0.1-0.5-0.2c-0.6-0.3-1.3-0.2-1.9,0.2l-0.6,0.5c-0.1-0.1-0.2-0.2-0.3-0.3
	c-0.1-0.1-0.2-0.2-0.3-0.3l0.5-0.7C4.9,14,5,13.2,4.7,12.6c-0.1-0.2-0.2-0.4-0.2-0.5c0-0.1-0.1-0.3-0.2-0.5
	c-0.2-0.6-0.8-1.1-1.5-1.2L2,10.3c0-0.1,0-0.3,0-0.4c0-0.2,0-0.3,0-0.4l0.8-0.1c0.7-0.1,1.2-0.6,1.5-1.2c0.1-0.2,0.2-0.5,0.2-0.5
	c0,0,0.1-0.3,0.2-0.5C5,6.5,4.9,5.8,4.5,5.3L4,4.6c0.1-0.1,0.2-0.2,0.3-0.3C4.4,4.2,4.5,4.1,4.6,4l0.6,0.5C5.8,4.9,6.5,5,7.1,4.7
	c0.2-0.1,0.4-0.2,0.4-0.2c0,0,0.3-0.1,0.5-0.2c0.6-0.2,1.1-0.8,1.2-1.5L9.4,2c0.3,0,0.6,0,0.9,0l0.1,0.8c0.1,0.7,0.6,1.2,1.2,1.5
	C11.8,4.4,12,4.5,12,4.5c0.1,0,0.3,0.1,0.5,0.2c0.6,0.3,1.3,0.2,1.9-0.2L15.1,4c0.1,0.1,0.2,0.2,0.3,0.3c0.1,0.1,0.2,0.2,0.3,0.3
	l-0.5,0.7c-0.4,0.5-0.5,1.3-0.2,1.9c0.1,0.2,0.2,0.5,0.2,0.5c0,0.1,0.1,0.3,0.2,0.5c0.2,0.6,0.8,1.1,1.5,1.2l0.8,0.1
	c0,0.1,0,0.3,0,0.4S17.7,10.2,17.7,10.3z"/>
</svg>
