<?xml version="1.0" encoding="utf-8"?>
<!-- Generator: Adobe Illustrator 22.1.0, SVG Export Plug-In . SVG Version: 6.00 Build 0)  -->
<svg version="1.1" id="Layer_1" xmlns="http://www.w3.org/2000/svg" xmlns:xlink="http://www.w3.org/1999/xlink" x="0px" y="0px"
	 viewBox="0 0 18 18" style="enable-background:new 0 0 18 18;" xml:space="preserve">
<style type="text/css">
	.st0{fill:#999999;}
</style>
<path class="st0" d="M11.3,5C11,4.5,10.4,4.4,10,4.7L5.6,7.5C5,6.6,4.1,6,3,6C1.3,6,0,7.3,0,9s1.3,3,3,3c1.1,0,2-0.6,2.6-1.5
	l4.4,2.8c0.2,0.1,0.4,0.2,0.5,0.2c0.3,0,0.7-0.2,0.8-0.5c0.3-0.5,0.2-1.1-0.3-1.4L6.9,9L11,6.4C11.5,6.1,11.6,5.4,11.3,5z M3,10
	c-0.6,0-1-0.4-1-1s0.4-1,1-1s1,0.4,1,1S3.6,10,3,10z M15,6c1.7,0,3-1.3,3-3s-1.3-3-3-3s-3,1.3-3,3S13.3,6,15,6z M15,2
	c0.6,0,1,0.4,1,1s-0.4,1-1,1s-1-0.4-1-1S14.4,2,15,2z M15,12c-1.7,0-3,1.3-3,3s1.3,3,3,3s3-1.3,3-3S16.7,12,15,12z M15,16
	c-0.6,0-1-0.4-1-1s0.4-1,1-1s1,0.4,1,1S15.6,16,15,16z"/>
</svg>
