<?xml version="1.0" encoding="utf-8"?>
<!-- Generator: Adobe Illustrator 22.1.0, SVG Export Plug-In . SVG Version: 6.00 Build 0)  -->
<svg version="1.1" id="Layer_1" xmlns="http://www.w3.org/2000/svg" xmlns:xlink="http://www.w3.org/1999/xlink" x="0px" y="0px"
	 viewBox="0 0 117.6 53.3" style="enable-background:new 0 0 117.6 53.3;" xml:space="preserve">
<style type="text/css">
	.st0{fill:#D51F53;}
	.st1{fill:#FDB913;}
	.st2{fill:#8DC63F;}
	.st3{fill:#0095DB;}
	.st4{fill:#F15A22;}
	.st5{fill:#FFFFFF;}
</style>
<g>
	<g>
		<g>
			<path class="st0" d="M19.2,11.6c0.2-1.1,0.4-2,0.6-2.8l0,0v0l-4.6-0.1c-5.2-0.1-8.4,0.8-9,3.8c-0.5,2,0.1,3.7,2.8,7.1l6.9,8.2
				l0.3-1.5c-0.2-0.1-0.3-0.2-0.5-0.2c-0.8-0.5-1.2-1.4-1.2-2.8c0-1.3,0.5-2.2,1.4-2.9c0.6-0.5,1.3-0.7,2-0.9c-0.1,0-0.2,0-0.3,0.1
				L19.2,11.6z"/>
			<path class="st0" d="M55.5,35.2l-30,7.7C30,49,32.2,50.8,41.6,45l16.1-9.9L55.5,35.2L55.5,35.2z"/>
			<path class="st0" d="M88.2,8.4L71,9.5l23.4,5.6C96.5,12.8,95,7.8,88.2,8.4z"/>
			<path class="st1" d="M9.6,25.2c-1.1-0.8-2.6-0.6-3.5,0.5c-0.8,1.1-0.6,2.6,0.5,3.5c1.1,0.8,2.6,0.6,3.5-0.5
				C11,27.5,10.7,26,9.6,25.2z"/>
			<path class="st2" d="M15.6,5.7c0.9,0,1.7-0.8,1.7-1.7s-0.8-1.7-1.7-1.7c-0.9,0-1.7,0.8-1.7,1.7S14.6,5.7,15.6,5.7z"/>
			<path class="st0" d="M56.8,4.4c0.9,0,1.6-0.7,1.6-1.6s-0.7-1.6-1.6-1.6c-0.9,0-1.6,0.7-1.6,1.6S55.9,4.4,56.8,4.4z"/>
			<path class="st3" d="M2.5,21.9c-0.7-0.5-1.7-0.4-2.2,0.3c-0.5,0.7-0.4,1.7,0.3,2.2c0.7,0.5,1.7,0.4,2.2-0.3
				C3.4,23.4,3.3,22.4,2.5,21.9z"/>
			<path class="st4" d="M15.7,27.9L15.7,27.9c0.6,0.6,1.4,1,2.6,1.1c0.9,0,1.5-0.2,1.8-0.5c0.3-0.3,0.3-0.6,0.1-0.9
				c-0.2-0.3-0.8-0.5-1.9-0.6c-0.2,0-0.4-0.1-0.7-0.1c-0.1,0-0.2-0.1-0.3-0.1c-0.1,0-0.2,0-0.3-0.1c-0.1,0-0.3-0.1-0.4-0.1
				c0,0-0.1,0-0.1-0.1c-0.2-0.1-0.3-0.1-0.5-0.2v0L15.7,27.9L15.7,27.9z"/>
			<path class="st4" d="M23.3,28.2c0,1.2-0.5,2.1-1.4,2.7c-0.2,0.2-0.4,0.3-0.7,0.4c-0.1,0-0.2,0.1-0.3,0.1
				c-0.2,0.1-0.3,0.1-0.5,0.2c-0.1,0-0.2,0.1-0.3,0.1c-0.1,0-0.3,0.1-0.4,0.1c-0.1,0-0.2,0-0.4,0c-0.2,0-0.4,0-0.7,0
				c-1.2,0-2.1-0.2-2.9-0.5c-0.3-0.1-0.5-0.2-0.7-0.4l-0.3,1.5C13,40.1,19,44.4,25.5,42.9c-0.1-0.5-1.6-10-2.2-14
				C23.3,28.7,23.3,28.4,23.3,28.2z"/>
			<path class="st4" d="M19.7,8.8l35.7,1l0.1-0.1l0.3-0.3c0.6-0.6,1.2-1,1.7-1.3L30.9,0.7C25.3-0.8,21.7-0.8,19.7,8.8L19.7,8.8
				L19.7,8.8c-0.2,0.8-0.4,1.7-0.6,2.8l-1.7,7.9c0.1,0,0.2,0,0.3-0.1c0.1,0,0.2,0,0.3-0.1c0.2,0,0.4-0.1,0.7-0.1
				c1.1,0,2,0.1,2.7,0.4c0.1,0.1,0.2,0.1,0.3,0.2l0,0C20.8,15.2,19.8,9.5,19.7,8.8z"/>
			<path class="st4" d="M22.1,22.2l-0.9,1c-0.6-0.7-1.2-1-2.1-1c-0.8,0-1.4,0.2-1.7,0.5c-0.3,0.3-0.3,0.6,0,0.8
				c0.3,0.2,0.8,0.5,1.7,0.6c1.2,0.1,2.2,0.5,3,1c0.4,0.3,0.7,0.7,0.8,1.1c-0.1-0.2-0.2-0.3-0.3-0.5C22.6,24.9,22.4,23.7,22.1,22.2z
				"/>
			<path class="st1" d="M34.7,36.4c-5.2,0.5-5.7-1.9-4.1-3.7c0,0,0-0.1,0.1-0.1l1.8-1.7v-6c0-0.8-0.2-1.4-0.6-1.9
				c-0.4-0.4-1-0.7-1.8-0.7c-0.7,0-1.3,0.4-1.8,1.1v8.3h-3.4V15l3.4-2v7.6c0.8-0.7,1.8-1.1,2.9-1.1c1.6,0,2.7,0.5,3.5,1.4
				c0.8,0.9,1.2,2,1.2,3.2v3.7l1.3-1.2c0-0.3-0.1-0.7-0.1-1.1c0-1.8,0.6-3.3,1.7-4.4c1.1-1.1,2.6-1.7,4.4-1.7c0.6,0,1.1,0.1,1.6,0.2
				c0,0,0,0,0,0l10.6-9.8l-35.8-1c0.1,0.7,1.1,6.3,2,11.2l0,0c0.2,0.1,0.5,0.3,0.7,0.4c0,0,0,0,0.1,0.1c0.2,0.2,0.4,0.4,0.7,0.6
				l-1,1.2v0c0.3,1.4,0.5,2.7,0.6,3.6c0.1,0.2,0.2,0.3,0.3,0.5c0,0.1,0,0.1,0.1,0.2c0.1,0.2,0.1,0.3,0.1,0.5c0,0.1,0,0.2,0,0.3
				c0,0.3,0.1,0.6,0.1,0.9c0,0.2,0,0.5-0.1,0.7c0.6,4,2.1,13.5,2.2,14l0,0l30-7.7L34.7,36.4z"/>
			<path class="st3" d="M113.6,23.3c-0.6-0.6-1.3-0.9-2.3-0.9c-0.9,0-1.7,0.3-2.3,0.9c-0.6,0.6-0.9,1.4-0.9,2.3
				c0,0.9,0.3,1.7,0.9,2.3c0.6,0.6,1.3,0.9,2.3,0.9c0.9,0,1.7-0.3,2.3-0.9c0.6-0.6,0.9-1.4,0.9-2.3
				C114.4,24.7,114.2,23.9,113.6,23.3z"/>
			<path class="st3" d="M98.2,22.3c-0.9,0-1.7,0.3-2.3,0.9c-0.6,0.6-0.9,1.4-0.9,2.3c0,0.9,0.3,1.7,0.9,2.3c0.6,0.6,1.3,0.9,2.3,0.9
				c0.9,0,1.7-0.3,2.3-0.9c0.6-0.6,0.9-1.4,0.9-2.3c0-0.9-0.3-1.7-0.9-2.3C99.9,22.7,99.1,22.3,98.2,22.3z"/>
			<path class="st3" d="M106.9,30.1c-1.2-1.2-1.8-2.7-1.8-4.4c0-1.8,0.6-3.3,1.8-4.5c1.2-1.2,2.7-1.8,4.5-1.8c0.5,0,1.1,0.1,1.5,0.2
				c0,0,0,0,0,0l-18.4-4.4L71,9.5l-4.4-1c-4-1-6.2-2-9-0.4c-0.5,0.3-1.1,0.8-1.7,1.3l-0.3,0.3l-0.1,0.1l-10.6,9.8l10.6-9.8l31.5,6.9
				c7.9,1.4,6.7,8.8,0.2,10.9v4.1h-3.4v-3.2l-1.8,0.4v2.8h-3.4v-1c-1,0.7-1.9,1-2.7,1c-1.6,0-2.9-0.3-3.7-1c0.2,0.2,0.4,0.3,0.6,0.4
				l-17.3,4.1l2.2-0.1l51.9-2.9c1.1,0,2-0.2,2.8-0.4c-0.3,0-0.7,0.1-1,0.1C109.5,31.8,108.1,31.2,106.9,30.1z M102.7,30.1
				c-1.2,1.2-2.7,1.8-4.5,1.8c-1.8,0-3.3-0.6-4.5-1.8c-1.2-1.2-1.8-2.7-1.8-4.4c0-1.8,0.6-3.3,1.8-4.5c1.2-1.2,2.7-1.8,4.5-1.8
				c1.8,0,3.3,0.6,4.5,1.8c1.2,1.2,1.8,2.7,1.8,4.5C104.5,27.4,103.9,28.9,102.7,30.1z"/>
			<path class="st3" d="M115.8,30.9c-0.7,0-1.3,0.6-1.3,1.3c0,0.1,0,0.3,0.1,0.4c0.2,0.5,0.7,0.9,1.2,0.9c0.6,0,1.2-0.4,1.3-1
				c0-0.1,0-0.2,0-0.3l0,0C117.1,31.4,116.5,30.9,115.8,30.9z"/>
			<path class="st2" d="M45,22.9c-0.5-0.4-1.1-0.6-1.7-0.6c-0.7,0-1.2,0.2-1.7,0.6c-0.5,0.4-0.7,0.9-0.7,1.5h4.9
				C45.7,23.7,45.5,23.2,45,22.9z"/>
			<path class="st2" d="M76.2,25.7c-1.5,0.2-2.2,0.7-2.3,1.7c0.1,1,0.9,1.5,2.3,1.6c1.2,0,2-0.3,2.3-1v-1.4
				C78.1,26,77.4,25.7,76.2,25.7z"/>
			<path class="st2" d="M46.3,20.2C46.3,20.2,46.3,20.2,46.3,20.2c0.2,0.1,0.4,0.3,0.6,0.4c0,0,0.1,0.1,0.1,0.1
				c0.2,0.2,0.4,0.3,0.5,0.5c1.1,1.1,1.6,2.6,1.6,4.4v1.2h-8.4c0.1,0.7,0.4,1.2,0.9,1.5c0.5,0.4,1.1,0.6,1.7,0.6
				c1.1,0,2.2-0.3,3.1-1l2,2c-0.9,1.2-2.6,1.8-5,1.8c-1.8,0-3.3-0.6-4.4-1.7c-0.2-0.2-0.4-0.4-0.6-0.7c0,0-0.1-0.1-0.1-0.1
				c-0.2-0.2-0.3-0.5-0.4-0.7c0,0,0,0,0,0c-0.3-0.6-0.4-1.2-0.5-1.8l0,0l-1.3,1.2v3.9h-3.4V31l-1.6,1.5c-0.1,0.1-0.2,0.2-0.3,0.3
				c-1.6,1.8-1.2,4.2,4.1,3.7l20.8-1.2l0,0l17.3-4.1c-0.2-0.1-0.5-0.3-0.6-0.4c-0.8-0.7-1.2-1.7-1.2-2.9c0-0.2,0-0.4,0-0.5
				c0,0,0,0,0,0c0-0.1,0-0.3,0.1-0.4c0-0.1,0.1-0.2,0.1-0.4c0,0,0,0,0,0c0-0.1,0.1-0.2,0.1-0.4c0.1-0.1,0.1-0.3,0.2-0.4c0,0,0,0,0,0
				c0,0,0-0.1,0.1-0.1c0-0.1,0.1-0.1,0.1-0.2c0.1-0.2,0.3-0.4,0.5-0.7c0.8-0.9,2-1.3,3.7-1.3c0.2,0,0.4,0,0.6,0c0.1,0,0.1,0,0.2,0
				c0.1,0,0.3,0,0.4,0.1c0.1,0,0.2,0.1,0.3,0.1h0c0.1,0,0.2,0.1,0.4,0.1c0.1,0,0.2,0.1,0.3,0.1c0,0,0,0,0,0c0.2,0.1,0.4,0.2,0.6,0.3
				v-0.4c0-0.5-0.2-0.8-0.5-1.1c0,0,0,0,0,0c0,0,0,0,0,0l0,0c-0.1-0.1-0.2-0.1-0.3-0.1c0,0,0,0,0,0c0,0,0,0-0.1,0c0,0,0,0,0,0
				c-0.1,0-0.2-0.1-0.3-0.1c0,0,0,0,0,0c0,0-0.1,0-0.2,0c0,0,0,0,0,0c-0.1,0-0.1,0-0.2,0l0,0c-0.1,0-0.3,0-0.4,0
				c-1.5,0-2.6,0.2-3.4,0.7L71.7,21c1.5-1,3.3-1.5,5.4-1.5c1.5,0,2.6,0.4,3.5,1.2c0.2,0.2,0.4,0.4,0.5,0.7c0.1,0.1,0.2,0.3,0.2,0.5
				c0.3,0.7,0.5,1.5,0.5,2.5v4.1v0.5l1.8-0.4v-0.6v-6.8v0v-1.3l3.4-0.4v1.4c0.2-0.2,0.4-0.4,0.6-0.5c0.1,0,0.1-0.1,0.2-0.1
				c0.2-0.1,0.4-0.3,0.6-0.4c0.1,0,0.1,0,0.2-0.1c0.5-0.2,1-0.3,1.6-0.3c0.4,0,0.8,0,1.1,0.1L90.9,23c-0.4-0.4-1-0.6-1.7-0.6
				c-0.5,0-1,0.3-1.4,0.8c0,0,0,0,0,0c-0.1,0.1-0.1,0.2-0.2,0.3c0,0.1-0.1,0.1-0.1,0.2c0,0.1-0.1,0.1-0.1,0.2
				c-0.1,0.1-0.1,0.3-0.2,0.4V26v1.7c6.5-2.1,7.7-9.5-0.2-10.9L55.5,9.8l-10.6,9.8c0,0,0,0,0,0C45.4,19.8,45.8,20,46.3,20.2z
				 M50.8,19.8l3.4-0.4v1.1c0.8-0.7,1.7-1.1,2.9-1.1c1.5,0,2.7,0.5,3.5,1.4c0.9-0.9,2.2-1.4,4-1.4c1.5,0,2.7,0.5,3.5,1.4
				c0.8,0.9,1.2,2,1.2,3.2v4.1v0v3.4v0.1h-0.3h-3.1v-1.8v0V25c0-0.8-0.2-1.4-0.6-1.9c-0.4-0.4-1-0.7-1.8-0.7c-0.7,0-1.3,0.5-1.8,1.3
				c0,0.3-0.1,0.5-0.1,0.8v7.2h-3.4V25c0-0.8-0.2-1.4-0.6-1.9c-0.4-0.4-1-0.7-1.8-0.7c-0.8,0-1.4,0.6-1.9,1.5v7.8h-3.4V19.8z"/>
			<g>
				<path class="st5" d="M98.2,19.4c-1.8,0-3.3,0.6-4.5,1.8c-1.2,1.2-1.8,2.7-1.8,4.5c0,1.8,0.6,3.3,1.8,4.4
					c1.2,1.2,2.7,1.8,4.5,1.8c1.8,0,3.3-0.6,4.5-1.8c1.2-1.2,1.8-2.7,1.8-4.5c0-1.8-0.6-3.3-1.8-4.5C101.5,20,100,19.4,98.2,19.4z
					 M100.5,27.9c-0.6,0.6-1.3,0.9-2.3,0.9c-0.9,0-1.7-0.3-2.3-0.9c-0.6-0.6-0.9-1.4-0.9-2.3c0-0.9,0.3-1.7,0.9-2.3
					c0.6-0.6,1.3-0.9,2.3-0.9c0.9,0,1.7,0.3,2.3,0.9c0.6,0.6,0.9,1.4,0.9,2.3C101.3,26.5,101.1,27.3,100.5,27.9z"/>
				<path class="st5" d="M22.1,25.2c-0.8-0.6-1.8-0.9-3-1c-0.8-0.2-1.4-0.4-1.7-0.6c-0.3-0.2-0.3-0.5,0-0.8c0.3-0.3,0.8-0.5,1.7-0.5
					c0.8,0,1.5,0.3,2.1,1l1.9-2.2c-0.6-0.5-1.2-1-1.8-1.2c-0.6-0.3-1.5-0.4-2.7-0.4c-1,0-2,0.3-2.9,1c-0.9,0.7-1.4,1.6-1.4,2.9
					c0,1.4,0.4,2.3,1.2,2.8c0.8,0.5,1.7,0.8,2.7,0.9c1.1,0.1,1.7,0.3,1.9,0.6c0.2,0.3,0.2,0.6-0.1,0.9c-0.3,0.3-0.9,0.5-1.8,0.5
					c-1.2-0.1-2-0.5-2.6-1.1L13.9,30c0.6,0.6,1.2,1,2,1.3c0.8,0.3,1.7,0.5,2.9,0.5c1.2,0,2.3-0.3,3.2-1c0.9-0.6,1.4-1.5,1.4-2.7
					C23.3,26.8,22.9,25.8,22.1,25.2z"/>
				<path class="st5" d="M31.2,19.5c-1.1,0-2.1,0.4-2.9,1.1V13l-3.4,2v16.8h3.4v-8.3c0.5-0.7,1.1-1,1.8-1.1c0.8,0,1.4,0.3,1.8,0.7
					c0.4,0.4,0.6,1.1,0.6,1.9v6.7h3.4v-7.6c0-1.2-0.4-2.3-1.2-3.2C33.9,20,32.7,19.5,31.2,19.5z"/>
				<path class="st5" d="M43.3,19.5c-1.8,0-3.3,0.6-4.4,1.7c-1.1,1.1-1.7,2.6-1.7,4.4c0,1.8,0.6,3.3,1.7,4.4
					c1.1,1.1,2.6,1.7,4.4,1.7c2.4,0,4.1-0.6,5-1.8l-2-2c-0.9,0.7-1.9,1-3.1,1c-0.7,0-1.2-0.2-1.7-0.6c-0.5-0.4-0.8-0.9-0.9-1.5h8.4
					l0-1.2c0-1.8-0.5-3.3-1.6-4.4C46.5,20.1,45.1,19.5,43.3,19.5z M40.8,24.4c0-0.7,0.2-1.2,0.7-1.5c0.5-0.4,1.1-0.6,1.7-0.6
					c0.7,0,1.2,0.2,1.7,0.6c0.5,0.4,0.7,0.9,0.7,1.5H40.8z"/>
				<path class="st5" d="M64.7,19.5c-1.8,0-3.1,0.5-4,1.4c-0.8-0.9-2-1.4-3.5-1.4c-1.2,0-2.2,0.4-2.9,1.1v-1.1l-3.4,0.4v11.9h3.4
					v-7.8c0.5-1,1.2-1.5,1.9-1.5c0.8,0,1.4,0.3,1.8,0.7c0.4,0.4,0.6,1.1,0.6,1.9v6.7h3.4v-7.2c0-0.3,0-0.5,0.1-0.8
					c0.5-0.8,1.1-1.3,1.8-1.3c0.8,0,1.4,0.3,1.8,0.7c0.4,0.4,0.6,1.1,0.6,1.9v6.7h3.4v-7.6c0-1.2-0.4-2.3-1.2-3.2
					C67.5,20,66.3,19.5,64.7,19.5z"/>
				<path class="st5" d="M87.1,20.8v-1.4l-3.4,0.4v11.9h3.4v-7.5c0.6-1.2,1.2-1.8,2.1-1.8c0.7,0,1.3,0.2,1.7,0.6l0.5-3.4
					c-0.4-0.1-0.7-0.1-1.1-0.1C89.1,19.5,88,19.9,87.1,20.8z"/>
				<path class="st5" d="M77.1,19.5c-2,0-3.8,0.5-5.4,1.5l1.3,2.1c0.8-0.5,2-0.7,3.4-0.7c1.3,0.1,1.9,0.6,2,1.5v0.4
					c-1-0.5-1.9-0.7-2.7-0.7c-1.7,0-3,0.4-3.7,1.3c-0.8,0.9-1.2,1.9-1.2,3.1c0,1.2,0.4,2.2,1.2,2.9c0.8,0.7,2,1,3.7,1
					c0.8,0,1.7-0.3,2.7-1v1h3.4v-7.3c0-1.6-0.4-2.9-1.3-3.7C79.8,19.9,78.6,19.5,77.1,19.5z M78.5,28.1c-0.3,0.6-1.1,1-2.3,1
					c-1.5-0.1-2.2-0.6-2.3-1.6c0.1-0.9,0.7-1.4,1.9-1.7c0.2,0,0.5-0.1,0.8,0c1,0.1,1.7,0.4,1.9,0.9V28.1z"/>
				<path class="st5" d="M115.8,21.2c-1.2-1.2-2.7-1.8-4.5-1.8c-1.8,0-3.3,0.6-4.5,1.8c-1.2,1.2-1.8,2.7-1.8,4.5
					c0,1.8,0.6,3.3,1.8,4.4c1.2,1.2,2.7,1.8,4.5,1.8c1.8,0,3.3-0.6,4.5-1.8c1.2-1.2,1.8-2.7,1.8-4.5C117.6,23.8,117,22.3,115.8,21.2
					z M113.6,27.9c-0.6,0.6-1.3,0.9-2.3,0.9c-0.9,0-1.7-0.3-2.3-0.9c-0.6-0.6-0.9-1.4-0.9-2.3c0-0.9,0.3-1.7,0.9-2.3
					c0.6-0.6,1.3-0.9,2.3-0.9c0.9,0,1.7,0.3,2.3,0.9c0.6,0.6,0.9,1.4,0.9,2.3C114.4,26.5,114.2,27.3,113.6,27.9z"/>
			</g>
		</g>
	</g>
	<g>
		<g>
			<path class="st4" d="M68.2,36.4l33.3-2c3.3-0.3,3.6,2.5,2.2,3.4L81,51.7c-2.8,1.9-5.1,2.3-6.6,0.5c-0.3-0.3-9.1-10.1-9.1-10.1
				c-1.3-1.5-1.6-2.4-1.4-3.4C64.2,37.2,65.7,36.6,68.2,36.4z"/>
			<g>
				<path class="st5" d="M80.9,45.2l0.1-3.6c0-0.6-0.1-1-0.2-1.3c-0.2-0.2-0.5-0.3-0.9-0.3c-0.5,0-0.9,0.2-1,0.4
					c-0.2,0.2-0.3,0.7-0.3,1.2l-0.1,3.7L76,45.5l0.1-3.6c0-0.6-0.1-1-0.2-1.3c-0.2-0.2-0.5-0.3-0.9-0.3c-0.5,0-0.9,0.2-1,0.4
					c-0.2,0.2-0.3,0.7-0.3,1.2l-0.1,3.7l-2.3,0.1l0.1-7l2.3-0.1l0,0.6c0.5-0.6,1.2-0.9,1.9-0.9c1-0.1,1.7,0.2,2,0.8
					c0.6-0.7,1.4-1.1,2.6-1.1c1-0.1,1.8,0.1,2.3,0.5c0.5,0.4,0.8,1.1,0.8,2.2L83.2,45L80.9,45.2z"/>
				<path class="st5" d="M88.2,44.9C87,45,86,44.7,85.3,44.1c-0.7-0.6-1-1.5-1-2.6c0-1.1,0.4-2,1.1-2.8c0.7-0.7,1.7-1.1,2.9-1.2
					c1.1-0.1,2,0.2,2.7,0.7c0.7,0.5,1,1.3,1,2.4c0,0.4,0,0.8-0.1,1L86.6,42c0,0.4,0.2,0.8,0.5,1c0.3,0.2,0.7,0.3,1.1,0.3
					c0.8,0,1.4-0.3,1.9-0.9l1.3,1.1C90.6,44.3,89.5,44.8,88.2,44.9z M86.7,40.5l3.1-0.2c-0.1-0.8-0.6-1.1-1.5-1.1
					c-0.4,0-0.8,0.2-1,0.4C86.9,39.8,86.7,40.1,86.7,40.5z"/>
			</g>
			<circle class="st1" cx="82.5" cy="50.5" r="1.7"/>
			<circle class="st2" cx="64.9" cy="42.9" r="2.6"/>
		</g>
	</g>
</g>
</svg>
