<?xml version="1.0" encoding="utf-8"?>
<!-- Generator: Adobe Illustrator 22.1.0, SVG Export Plug-In . SVG Version: 6.00 Build 0)  -->
<svg version="1.1" id="Layer_1" xmlns="http://www.w3.org/2000/svg" xmlns:xlink="http://www.w3.org/1999/xlink" x="0px" y="0px"
	 viewBox="0 0 50 50" style="enable-background:new 0 0 50 50;" xml:space="preserve">
<style type="text/css">
	.st0{fill:#FFFFFF;}
</style>
<path class="st0" d="M25,0C11.2,0,0,11.2,0,25s11.2,25,25,25s25-11.2,25-25S38.8,0,25,0z M25,45C14,45,5,36,5,25C5,14,14,5,25,5
	s20,9,20,20C45,36,36,45,25,45z M33.9,24.1l-12-6.9c-0.7-0.4-1.5,0.1-1.5,0.9v13.9c0,0.8,0.8,1.3,1.5,0.9l12-6.9
	C34.6,25.5,34.6,24.5,33.9,24.1z"/>
</svg>
