<?xml version="1.0" encoding="utf-8"?>
<!-- Generator: Adobe Illustrator 22.1.0, SVG Export Plug-In . SVG Version: 6.00 Build 0)  -->
<svg version="1.1" id="Layer_1" xmlns="http://www.w3.org/2000/svg" xmlns:xlink="http://www.w3.org/1999/xlink" x="0px" y="0px"
	 viewBox="0 0 30 30" style="enable-background:new 0 0 30 30;" xml:space="preserve">
<style type="text/css">
	.st0{fill:#FFFFFF;}
</style>
<g>
	<path d="M3,30h27V0H3C1.3,0,0,1.4,0,3v24C0,28.7,1.3,30,3,30z M10.9,13.9l6-6c0.3-0.3,0.7-0.4,1.1-0.4s0.8,0.1,1.1,0.4
		c0.6,0.6,0.6,1.5,0,2.1L14.1,15l4.9,4.9c0.6,0.6,0.6,1.5,0,2.1c-0.6,0.6-1.5,0.6-2.1,0l-6-6C10.4,15.5,10.4,14.5,10.9,13.9z"/>
	<path class="st0" d="M16.9,22.1c0.6,0.6,1.5,0.6,2.1,0c0.6-0.6,0.6-1.5,0-2.1L14.1,15l4.9-4.9c0.6-0.6,0.6-1.5,0-2.1
		c-0.3-0.3-0.7-0.4-1.1-0.4s-0.8,0.1-1.1,0.4l-6,6c-0.6,0.6-0.6,1.5,0,2.1L16.9,22.1z"/>
</g>
</svg>
