<?xml version="1.0" encoding="utf-8"?>
<!-- Generator: Adobe Illustrator 22.1.0, SVG Export Plug-In . SVG Version: 6.00 Build 0)  -->
<svg version="1.1" id="Layer_1" xmlns="http://www.w3.org/2000/svg" xmlns:xlink="http://www.w3.org/1999/xlink" x="0px" y="0px"
	 viewBox="0 0 30 30" style="enable-background:new 0 0 30 30;" xml:space="preserve">
<style type="text/css">
	.st0{fill:#FFFFFF;}
</style>
<g>
	<path d="M27,0H0v30h27c1.7,0,3-1.4,3-3V3C30,1.3,28.7,0,27,0z M19.1,16.1l-6,6c-0.3,0.3-0.7,0.4-1.1,0.4s-0.8-0.1-1.1-0.4
		c-0.6-0.6-0.6-1.5,0-2.1l4.9-4.9l-4.9-4.9c-0.6-0.6-0.6-1.5,0-2.1c0.6-0.6,1.5-0.6,2.1,0l6,6C19.6,14.5,19.6,15.5,19.1,16.1z"/>
	<path class="st0" d="M13.1,7.9c-0.6-0.6-1.5-0.6-2.1,0c-0.6,0.6-0.6,1.5,0,2.1l4.9,4.9l-4.9,4.9c-0.6,0.6-0.6,1.5,0,2.1
		c0.3,0.3,0.7,0.4,1.1,0.4s0.8-0.1,1.1-0.4l6-6c0.6-0.6,0.6-1.5,0-2.1L13.1,7.9z"/>
</g>
</svg>
