<?xml version="1.0" encoding="utf-8"?>
<!-- Generator: Adobe Illustrator 22.1.0, SVG Export Plug-In . SVG Version: 6.00 Build 0)  -->
<svg version="1.1" id="Layer_1" xmlns="http://www.w3.org/2000/svg" xmlns:xlink="http://www.w3.org/1999/xlink" x="0px" y="0px"
	 viewBox="0 0 91.2 60.9" style="enable-background:new 0 0 91.2 60.9;" xml:space="preserve">
<style type="text/css">
	.st0{opacity:0.4;}
	.st1{fill:#0096DB;}
	.st2{fill:#E67998;stroke:#FFFFFF;stroke-miterlimit:10;}
	.st3{fill:none;stroke:#FDB913;stroke-miterlimit:10;stroke-dasharray:1.0384,1.0384;}
	.st4{fill:#D51F53;}
	.st5{fill:none;stroke:#8BC53F;stroke-miterlimit:10;stroke-dasharray:1;}
	.st6{fill:none;}
	.st7{opacity:0.4;fill:#8BC53F;}
</style>
<g>
	<g class="st0">
		<polygon class="st1" points="39.1,41.9 41.8,42.7 44.8,46.9 36.4,52 35.5,51.1 		"/>
	</g>
	<g class="st0">
		<polygon class="st1" points="44.7,46.4 46,43.8 50.5,41.5 54.3,50.5 53.3,51.3 		"/>
	</g>
	<circle class="st2" cx="44.2" cy="24.9" r="3.6"/>
	<g>
		<path class="st3" d="M74.4,46.9c0,1.8-1.5,3.3-3.3,3.3c-1.8,0-3.3-1.5-3.3-3.3s1.5-3.3,3.3-3.3C72.9,43.6,74.4,45.1,74.4,46.9z"/>
	</g>
	<g>
		<path class="st4" d="M69.6,11.5c-0.2,0-0.4,0-0.6,0l0.2-1c0.3,0,0.6,0,0.8,0l0.2,1C70,11.4,69.8,11.5,69.6,11.5z M67.9,11
			c-0.3-0.2-0.6-0.4-0.9-0.7l0.8-0.6c0.2,0.2,0.4,0.4,0.6,0.5L67.9,11z M71.3,11l-0.5-0.9c0.2-0.1,0.4-0.3,0.6-0.5l0.8,0.6
			C71.9,10.6,71.6,10.8,71.3,11z M66.4,9.3c-0.1-0.4-0.2-0.8-0.2-1.1l1,0c0,0.3,0.1,0.6,0.1,0.8L66.4,9.3z M72.8,9.2l-0.9-0.3
			C71.9,8.6,72,8.4,72,8.1L73,8v0.1C73,8.5,72.9,8.9,72.8,9.2z M67.4,7.3L66.4,7c0.1-0.4,0.3-0.7,0.6-1l0.8,0.6
			C67.6,6.8,67.5,7,67.4,7.3z M71.8,7.2c-0.1-0.3-0.2-0.5-0.4-0.7l0.8-0.7c0.3,0.3,0.5,0.6,0.6,1L71.8,7.2z M68.4,6.1l-0.5-0.9
			C68.2,5,68.6,4.9,69,4.8l0.2,1C68.9,5.8,68.6,5.9,68.4,6.1z M70.8,6c-0.2-0.1-0.5-0.2-0.8-0.3l0.2-1c0.4,0.1,0.8,0.2,1.1,0.4
			L70.8,6z"/>
	</g>
	<g class="st0">
		<rect y="58.9" width="30.2" height="2"/>
	</g>
	<g class="st0">
		<rect x="61" y="58.9" width="30.2" height="2"/>
	</g>
	<g>
		<path class="st1" d="M15.5,12.5l-0.1-1c0.3,0,0.6-0.1,0.9-0.1l0.2,1C16.3,12.4,15.9,12.4,15.5,12.5z M14.5,12.5
			c-0.4,0-0.7-0.1-1.1-0.2l0.3-1c0.3,0.1,0.6,0.1,0.9,0.2L14.5,12.5z M17.6,11.9L17.2,11c0.3-0.1,0.5-0.3,0.8-0.4l0.6,0.8
			C18.3,11.6,18,11.8,17.6,11.9z M12.4,11.9c-0.3-0.2-0.6-0.3-0.9-0.6l0.6-0.8c0.2,0.2,0.5,0.3,0.8,0.5L12.4,11.9z M19.4,10.7
			L18.7,10c0.2-0.2,0.4-0.4,0.6-0.7l0.1-0.1l0.8,0.6l-0.1,0.1C19.9,10.2,19.7,10.5,19.4,10.7z M10.6,10.6c-0.3-0.3-0.5-0.5-0.7-0.8
			l0.8-0.6c0.2,0.3,0.4,0.5,0.6,0.7L10.6,10.6z M20.8,8.8l-0.9-0.4c0.1-0.3,0.2-0.6,0.3-0.9l1,0.3C21.1,8.2,20.9,8.5,20.8,8.8z
			 M9.4,8.8C9.2,8.5,9.1,8.1,9,7.8l1-0.2c0.1,0.3,0.2,0.6,0.3,0.9L9.4,8.8z M21.3,6.7l-1-0.1c0-0.1,0-0.3,0-0.4c0-0.2,0-0.3,0-0.5
			l1-0.1c0,0.2,0,0.4,0,0.6C21.3,6.4,21.3,6.6,21.3,6.7z M8.9,6.7c0-0.2,0-0.3,0-0.5c0-0.2,0-0.4,0-0.6l1,0.1c0,0.2,0,0.3,0,0.5
			c0,0.1,0,0.3,0,0.4L8.9,6.7z M20.2,4.8C20.1,4.6,20,4.3,19.8,4l0.9-0.4c0.2,0.3,0.3,0.7,0.4,1L20.2,4.8z M10,4.8l-1-0.3
			c0.1-0.3,0.2-0.7,0.4-1L10.3,4C10.2,4.3,10.1,4.5,10,4.8z M19.4,3.2C19.2,3,19,2.7,18.8,2.5l0.7-0.7c0.3,0.3,0.5,0.5,0.7,0.8
			L19.4,3.2z M10.8,3.1L10,2.6L10,2.5c0.2-0.3,0.4-0.5,0.6-0.7l0.7,0.7C11.2,2.7,11,2.9,10.8,3.1z M18.1,1.9
			c-0.3-0.2-0.5-0.3-0.8-0.5l0.4-0.9c0.3,0.2,0.6,0.3,0.9,0.5L18.1,1.9z M12.1,1.9l-0.6-0.8c0.3-0.2,0.6-0.4,0.9-0.5l0.4,0.9
			C12.6,1.6,12.3,1.7,12.1,1.9z M16.5,1.2C16.2,1.1,15.9,1,15.6,1l0.1-1c0.4,0,0.7,0.1,1.1,0.2L16.5,1.2z M13.7,1.2l-0.3-1
			C13.8,0.1,14.2,0,14.6,0l0.1,1C14.3,1,14,1.1,13.7,1.2z"/>
	</g>
	<path class="st5" d="M22.6,45.6c-1.1,1.5-3.1,1.8-4.6,0.7c-1.5-1.1-1.8-3.1-0.7-4.6c1.1-1.5,3.1-1.8,4.6-0.7
		C23.3,42.1,23.6,44.1,22.6,45.6z"/>
	<g>
		<polygon class="st6" points="40,42.7 36.4,51.1 43.3,46.1 		"/>
	</g>
	<polygon class="st6" points="48.8,40.8 44.8,31.7 40.8,40.8 44.8,44.8 	"/>
	<g>
		<polygon class="st6" points="53.4,51.2 49.6,42.7 46.3,46.1 		"/>
	</g>
	<circle class="st6" cx="44.8" cy="25.2" r="3"/>
	<g>
		<path d="M27.8,12.9c0.4-0.4,0.4-1,0-1.4c-0.4-0.4-1-0.4-1.4,0c-7.4,7.6-7.4,19.8,0,27.4c0.2,0.2,0.4,0.3,0.7,0.3
			c0.2,0,0.5-0.1,0.7-0.3c0.4-0.4,0.4-1,0-1.4C21.2,30.7,21.2,19.7,27.8,12.9z"/>
	</g>
	<g>
		<path d="M32,34.1c0.4-0.4,0.4-1,0-1.4c-2.1-2.1-3.2-4.9-3.2-7.8c0-2.9,1.1-5.7,3.2-7.8c0.4-0.4,0.4-1,0-1.4c-0.4-0.4-1-0.4-1.4,0
			c-2.4,2.5-3.8,5.7-3.8,9.2s1.3,6.8,3.8,9.2c0.2,0.2,0.4,0.3,0.7,0.3S31.8,34.3,32,34.1z"/>
	</g>
	<path d="M35.5,30.2c0.3,0,0.6-0.1,0.7-0.3c0.4-0.4,0.4-1,0-1.4c-1.9-2-1.9-5.2,0-7.1c0.4-0.4,0.4-1,0-1.4s-1-0.4-1.4,0
		c-2.7,2.7-2.7,7.2,0,9.9C35,30.1,35.2,30.2,35.5,30.2z"/>
	<g>
		<path d="M63.2,11.5c-0.4-0.4-1-0.4-1.4,0c-0.4,0.4-0.4,1,0,1.4c6.6,6.8,6.6,17.8,0,24.6c-0.4,0.4-0.4,1,0,1.4
			c0.2,0.2,0.4,0.3,0.7,0.3c0.3,0,0.6-0.1,0.7-0.3C70.6,31.3,70.6,19.1,63.2,11.5z"/>
	</g>
	<g>
		<path d="M59,15.7c-0.4-0.4-1-0.4-1.4,0c-0.4,0.4-0.4,1,0,1.4c4.3,4.3,4.3,11.3,0,15.6c-0.4,0.4-0.4,1,0,1.4
			c0.2,0.2,0.4,0.3,0.7,0.3c0.2,0,0.5-0.1,0.7-0.3C64.1,29,64.1,20.8,59,15.7z"/>
	</g>
	<path d="M53.4,29.9c0.2,0.2,0.4,0.3,0.7,0.3c0.2,0,0.5-0.1,0.7-0.3c2.7-2.7,2.7-7.2,0-9.9c-0.4-0.4-1-0.4-1.4,0
		c-0.4,0.4-0.4,1,0,1.4c1.9,2,1.9,5.2,0,7.1C53,28.9,53,29.5,53.4,29.9z"/>
	<path d="M44.9,28.2c0.4,0,0.8,0.2,0.9,0.6l0.5,1.2c2-0.6,3.5-2.5,3.5-4.8c0-2.8-2.2-5-5-5s-5,2.2-5,5c0,2.3,1.5,4.2,3.7,4.8
		l0.5-1.2C44.2,28.4,44.5,28.2,44.9,28.2z M41.8,25.2c0-1.7,1.3-3,3-3s3,1.3,3,3s-1.3,3-3,3S41.8,26.9,41.8,25.2z"/>
	<path d="M46.3,29.9c-0.5,0.1-1,0.2-1.5,0.2c-0.5,0-0.9-0.1-1.3-0.2L31.3,57.8c-0.2,0.5,0,1.1,0.5,1.3c0.5,0.2,1.1,0,1.3-0.5
		l1.7-3.9c-0.2,0.2-0.4,0.2-0.6,0.2c-0.3,0-0.6-0.1-0.8-0.4c-0.3-0.4-0.2-1.1,0.2-1.4l2.8-2l3.6-8.3l-0.9-0.9c-0.4-0.4-0.4-1,0-1.4
		c0.4-0.4,1-0.4,1.4,0l0.3,0.3l4-9.1l4,9.1l0.3-0.3c0.4-0.4,1-0.4,1.4,0c0.4,0.4,0.4,1,0,1.4l-0.9,0.9l3.7,8.5l2.5,1.8
		c0.4,0.3,0.5,1,0.2,1.4c-0.2,0.2-0.5,0.4-0.8,0.4c-0.1,0-0.2,0-0.4-0.1l1.7,3.8c0.1,0.4,0.5,0.6,0.9,0.6c0.1,0,0.2,0,0.5-0.1
		c0.5-0.2,0.7-0.8,0.5-1.3L46.3,29.9z"/>
	<path d="M46.3,29.9l-0.5-1.2c-0.1-0.4-0.5-0.6-0.9-0.6c-0.4,0-0.7,0.2-0.9,0.6L43.5,30c0.4,0.1,0.9,0.2,1.3,0.2
		C45.3,30.2,45.8,30.1,46.3,29.9z"/>
	<g>
		<path d="M43.8,46.3c0-0.3,0.1-0.6,0.3-0.8l0.7-0.7l-4-4l-0.8,2l3.3,3.3l-6.9,5l-1.6,3.6c0,0,0,0,0,0l10-7.3L44.2,47
			C44,46.8,43.8,46.6,43.8,46.3z"/>
	</g>
	<g>
		<path d="M40.5,40.5c-0.4-0.4-1-0.4-1.4,0c-0.4,0.4-0.4,1,0,1.4l0.9,0.9l0.8-2L40.5,40.5z"/>
	</g>
	<g>
		<path d="M33.6,53.1c-0.4,0.3-0.5,1-0.2,1.4c0.2,0.3,0.5,0.4,0.8,0.4c0.2,0,0.4,0,0.6-0.2l1.6-3.6L33.6,53.1z"/>
	</g>
	<g>
		<path d="M46.3,46.1l3.3-3.3l-0.9-1.9l-4,4l0.7,0.7c0.2,0.2,0.3,0.5,0.3,0.8s-0.2,0.6-0.4,0.7l-0.6,0.4l9.9,7.3
			c0.1,0,0.2,0.1,0.2,0.1l-1.6-3.5L46.3,46.1z"/>
	</g>
	<g>
		<path d="M56.1,54.5c0.3-0.4,0.2-1.1-0.2-1.4l-2.5-1.8l1.6,3.5c0.1,0.1,0.2,0.1,0.4,0.1C55.6,54.9,55.9,54.7,56.1,54.5z"/>
	</g>
	<g>
		<path d="M50.5,41.9c0.4-0.4,0.4-1,0-1.4c-0.4-0.4-1-0.4-1.4,0l-0.3,0.3l0.9,1.9L50.5,41.9z"/>
	</g>
	<g>
		<path d="M45.8,46.3c0-0.3-0.1-0.6-0.3-0.8l-0.7-0.7l-0.7,0.7c-0.2,0.2-0.3,0.5-0.3,0.8s0.2,0.5,0.4,0.7l0.6,0.4l0.6-0.4
			C45.6,46.9,45.8,46.6,45.8,46.3z"/>
	</g>
	<polygon class="st7" points="44.8,31.1 49.1,40.5 44.8,44.8 40.8,40.8 	"/>
</g>
</svg>
