<?xml version="1.0" encoding="utf-8"?>
<!-- Generator: Adobe Illustrator 22.1.0, SVG Export Plug-In . SVG Version: 6.00 Build 0)  -->
<svg version="1.1" id="Layer_1" xmlns="http://www.w3.org/2000/svg" xmlns:xlink="http://www.w3.org/1999/xlink" x="0px" y="0px"
	 viewBox="0 0 95.6 81.4" style="enable-background:new 0 0 95.6 81.4;" xml:space="preserve">
<style type="text/css">
	.st0{fill:#0096DB;}
	.st1{opacity:0.4;}
	.st2{fill:#FDB913;}
	.st3{fill:#D51F53;}
	.st4{opacity:0.2;}
	.st5{fill:none;}
	.st6{fill:#8BC53F;}
	.st7{fill:#FFFFFF;}
</style>
<g>
	<g>
		<path class="st0" d="M34.4,11.3c-0.3-0.2-0.6-0.5-0.8-0.7l0.7-0.7c0.2,0.2,0.4,0.4,0.7,0.6L34.4,11.3z M32.9,9.7
			c-0.2-0.3-0.4-0.6-0.5-0.9l0.9-0.4c0.1,0.3,0.3,0.5,0.4,0.8L32.9,9.7z M32,7.8c-0.1-0.4-0.1-0.7-0.2-1.1l1-0.1
			c0,0.3,0.1,0.6,0.1,0.9L32,7.8z M32.9,5.7l-1-0.1c0-0.4,0.1-0.7,0.2-1.1l1,0.3C33,5.1,32.9,5.4,32.9,5.7z M33.4,4l-0.9-0.4
			c0.2-0.3,0.3-0.6,0.6-0.9l0.8,0.6C33.7,3.4,33.5,3.7,33.4,4z M34.4,2.5l-0.7-0.7c0.3-0.3,0.5-0.5,0.8-0.7l0.6,0.8
			C34.9,2.1,34.7,2.3,34.4,2.5z M41.2,2l0.5-0.8l0.1,0.1L41.2,2z M40.4,1.5c-0.3-0.1-0.6-0.2-0.9-0.3l0.3-1c0.4,0.1,0.7,0.2,1,0.4
			L40.4,1.5z M35.9,1.5l-0.4-0.9c0.3-0.1,0.7-0.3,1-0.4l0.2,1C36.5,1.2,36.2,1.3,35.9,1.5z M38.6,1c-0.3,0-0.6,0-0.9,0l-0.1-1
			c0.4,0,0.7,0,1.1,0L38.6,1z"/>
	</g>
	<g class="st1">
		<path class="st0" d="M46,46c0,0-1.5-0.2-1.6-0.2c-1.2-0.2-2.4-0.5-3.6-1c-3-1.2-5.2-3.6-5.1-7.1c0-0.5,0.1-1,0.2-1.4
			c0-0.1,0-0.2,0.1-0.3C36,36,36.1,36,36.2,36c1.4-0.3,3-0.1,4.3,0.6c0.8,0.4,1.4,1,2,1.6C44.4,40.4,45.3,43.3,46,46z"/>
	</g>
	<g class="st1">
		<path class="st2" d="M47.7,45.8c0,0,1.5-0.2,1.6-0.2c1.2-0.2,2.4-0.5,3.6-1c3-1.2,5.2-3.6,5.1-7.1c0-0.5-0.1-1-0.2-1.4
			c0-0.1,0-0.2-0.1-0.3c-0.1-0.1-0.2-0.1-0.3-0.1c-1.4-0.3-3-0.1-4.3,0.6c-0.8,0.4-1.4,1-2,1.6C49.2,40.2,48.3,43.1,47.7,45.8z"/>
	</g>
	<g class="st1">
		<rect x="24.8" y="46.3" class="st3" width="21.9" height="12.8"/>
	</g>
	<g class="st1">
		<rect x="31.6" y="58" class="st3" width="15.2" height="21.9"/>
	</g>
	<g class="st4">
		<path d="M31,44.9c-0.2,0-0.4-0.2-0.5-0.4c-0.5-2.1-2-3.7-4.5-4.7c-0.9-0.4-1.8-0.7-2.9-0.9c-0.3-0.1-0.4-0.3-0.4-0.6
			c0.1-0.3,0.3-0.4,0.6-0.4c1.1,0.2,2.1,0.6,3.1,1c2.8,1.2,4.5,3,5.1,5.4c0.1,0.3-0.1,0.5-0.4,0.6C31.1,44.9,31,44.9,31,44.9z"/>
	</g>
	<g class="st4">
		<path d="M57.9,38.3c-0.1,0-0.1,0-0.2,0c-0.3-0.1-0.4-0.4-0.3-0.7c0.1-0.3,2.8-6.4,9.1-7.8c0.3-0.1,0.5,0.1,0.6,0.4
			c0.1,0.3-0.1,0.5-0.4,0.6C61,32,58.4,37.9,58.4,38C58.3,38.2,58.1,38.3,57.9,38.3z"/>
	</g>
	<g>
		<path class="st3" d="M3.4,26.9c-0.2,0-0.4,0-0.6,0l0.2-1c0.3,0,0.6,0,0.8,0l0.2,1C3.8,26.9,3.6,26.9,3.4,26.9z M1.7,26.4
			c-0.3-0.2-0.6-0.4-0.9-0.7L1.6,25c0.2,0.2,0.4,0.4,0.6,0.5L1.7,26.4z M5.1,26.4l-0.5-0.9C4.8,25.4,5,25.2,5.2,25L6,25.7
			C5.7,26,5.4,26.2,5.1,26.4z M0.2,24.7C0.1,24.3,0,23.9,0,23.5l1,0c0,0.3,0.1,0.5,0.1,0.8L0.2,24.7z M6.5,24.7l-0.9-0.3
			c0.1-0.3,0.1-0.5,0.1-0.8l0.7,0l0.3,0C6.7,23.9,6.7,24.3,6.5,24.7z M1.1,22.7l-0.9-0.3c0.1-0.4,0.3-0.7,0.6-1L1.5,22
			C1.4,22.2,1.2,22.5,1.1,22.7z M5.6,22.7c-0.1-0.3-0.2-0.5-0.4-0.7l0.8-0.7c0.3,0.3,0.5,0.6,0.6,1L5.6,22.7z M2.2,21.5l-0.5-0.9
			c0.3-0.2,0.7-0.3,1.1-0.4l0.2,1C2.7,21.2,2.4,21.3,2.2,21.5z M4.5,21.4c-0.2-0.1-0.5-0.2-0.8-0.3l0.2-1c0.4,0.1,0.8,0.2,1.1,0.4
			L4.5,21.4z"/>
	</g>
	<g>
		<path class="st5" d="M45.3,44.9l0.1,0c-0.5-2-1.4-4.2-2.9-5.9c-0.5-0.6-1.1-1.1-1.7-1.4c-0.9-0.5-2.1-0.7-3.3-0.6
			c0,0.3-0.1,0.6-0.1,0.9c-0.1,2.7,1.5,4.9,4.4,6.1C42.9,44.3,44.1,44.7,45.3,44.9z"/>
		<path class="st5" d="M52.5,43.9c2.9-1.2,4.6-3.4,4.4-6.1c0-0.3-0.1-0.6-0.1-0.9c-0.2,0-0.4,0-0.7,0c-0.9,0-1.8,0.2-2.6,0.6
			c-0.6,0.3-1.2,0.8-1.7,1.4c-1.5,1.7-2.3,4-2.9,5.9l0.2,0C50.3,44.7,51.5,44.3,52.5,43.9z"/>
		<path class="st5" d="M47.4,52.6c0,0.3-0.2,0.5-0.5,0.5s-0.5-0.2-0.5-0.5v-5.3H25.8V58h5.9h14.7v-2.5c0-0.3,0.2-0.5,0.5-0.5
			s0.5,0.2,0.5,0.5V58h15.4H68V47.3H47.4V52.6z"/>
		<rect x="32.6" y="60" class="st5" width="13.7" height="19.5"/>
		<path d="M69,45.3H54.2c3.1-1.6,4.8-4.3,4.7-7.6c0-0.5-0.1-0.9-0.1-1.3l0-0.2c0-0.2-0.1-0.5-0.4-0.8c-0.3-0.3-0.7-0.4-0.8-0.4
			c-1.8-0.3-3.5,0-5,0.8c-0.8,0.4-1.6,1.1-2.2,1.8c-1.6,1.8-2.5,4.1-3.1,6.2c-0.6-2.1-1.5-4.3-3.1-6.2c-0.7-0.8-1.4-1.4-2.2-1.8
			c-1.4-0.8-3.2-1.1-5-0.8c-0.1,0-0.5,0.1-0.8,0.4c-0.3,0.3-0.3,0.6-0.4,0.8l0,0.2c-0.1,0.4-0.1,0.9-0.1,1.3
			c-0.1,3.2,1.6,5.9,4.7,7.6H24.8c-0.6,0-1,0.4-1,1V59c0,0.6,0.4,1,1,1h5.9v20.5c0,0.6,0.4,1,1,1h31.1c0.6,0,1-0.4,1-1v-6.6
			c0-0.6-0.4-1-1-1s-1,0.4-1,1v5.6H47.4V60h14.4v8c0,0.6,0.4,1,1,1s1-0.4,1-1v-8H69c0.6,0,1-0.4,1-1V46.3C70,45.8,69.5,45.3,69,45.3
			z M51.9,38.9c0.5-0.6,1.1-1.1,1.7-1.4c0.7-0.4,1.6-0.6,2.6-0.6c0.2,0,0.4,0,0.7,0c0,0.3,0.1,0.6,0.1,0.9c0.1,2.7-1.5,4.9-4.4,6.1
			c-1,0.4-2.1,0.7-3.4,0.9l-0.2,0C49.5,42.9,50.4,40.6,51.9,38.9z M37.5,37.8c0-0.3,0.1-0.6,0.1-0.9c1.2-0.1,2.3,0.1,3.3,0.6
			c0.6,0.3,1.2,0.8,1.7,1.4c1.5,1.7,2.3,3.9,2.9,5.9l-0.1,0c-1.2-0.2-2.4-0.5-3.4-0.9C39,42.7,37.4,40.5,37.5,37.8z M46.4,79.4H32.6
			V60h13.7V79.4z M68,58h-5.2H47.4v-2.5c0-0.3-0.2-0.5-0.5-0.5s-0.5,0.2-0.5,0.5V58H31.6h-5.9V47.3h20.6v5.3c0,0.3,0.2,0.5,0.5,0.5
			s0.5-0.2,0.5-0.5v-5.3H68V58z"/>
	</g>
	<g class="st1">
		<g>
			<path class="st3" d="M11.8,41.1C7,41.1,3,37.1,3,32.3s3.9-8.8,8.8-8.8s8.8,3.9,8.8,8.8S16.7,41.1,11.8,41.1z M11.8,24.5
				C7.5,24.5,4,28,4,32.3s3.5,7.8,7.8,7.8s7.8-3.5,7.8-7.8S16.1,24.5,11.8,24.5z"/>
		</g>
		<g>
			<path class="st3" d="M11.8,30.3c-0.6,0-1.3-0.3-1.7-0.7c-0.9-0.9-0.9-2.5,0-3.4c0.9-0.9,2.5-0.9,3.4,0l0,0c0.9,0.9,0.9,2.5,0,3.4
				C13.1,30.1,12.5,30.3,11.8,30.3z M11.8,26.5c-0.4,0-0.7,0.1-1,0.4c-0.6,0.6-0.6,1.5,0,2c0.5,0.5,1.5,0.5,2,0c0.6-0.6,0.6-1.5,0-2
				C12.6,26.6,12.2,26.5,11.8,26.5z"/>
		</g>
		<g>
			<path class="st3" d="M11.8,33.9c-0.9,0-1.6-0.7-1.6-1.6c0-0.9,0.7-1.6,1.6-1.6s1.6,0.7,1.6,1.6C13.5,33.2,12.7,33.9,11.8,33.9z
				 M11.8,31.7c-0.3,0-0.6,0.3-0.6,0.6c0,0.3,0.3,0.6,0.6,0.6c0.3,0,0.6-0.3,0.6-0.6C12.5,32,12.2,31.7,11.8,31.7z"/>
		</g>
		<g>
			<path class="st3" d="M16.2,34.7c-1.3,0-2.4-1.1-2.4-2.4c0-1.3,1.1-2.4,2.4-2.4s2.4,1.1,2.4,2.4C18.6,33.6,17.6,34.7,16.2,34.7z
				 M16.2,30.9c-0.8,0-1.4,0.6-1.4,1.4c0,0.8,0.6,1.4,1.4,1.4s1.4-0.6,1.4-1.4C17.6,31.5,17,30.9,16.2,30.9z"/>
		</g>
		<g>
			<path class="st3" d="M7.6,34.7c-1.3,0-2.4-1.1-2.4-2.4c0-1.3,1.1-2.4,2.4-2.4c1.3,0,2.4,1.1,2.4,2.4C10,33.6,8.9,34.7,7.6,34.7z
				 M7.6,30.9c-0.8,0-1.4,0.6-1.4,1.4c0,0.8,0.6,1.4,1.4,1.4S9,33.1,9,32.3C9,31.5,8.4,30.9,7.6,30.9z"/>
		</g>
		<g>
			<path class="st3" d="M11.8,39.2c-1.3,0-2.4-1.1-2.4-2.4s1.1-2.4,2.4-2.4s2.4,1.1,2.4,2.4S13.2,39.2,11.8,39.2z M11.8,35.4
				c-0.8,0-1.4,0.6-1.4,1.4s0.6,1.4,1.4,1.4s1.4-0.6,1.4-1.4S12.6,35.4,11.8,35.4z"/>
		</g>
		<g>
			<rect x="0.1" y="40.1" class="st3" width="13.1" height="1"/>
		</g>
	</g>
	<g>
		<path class="st2" d="M23.6,68.8c-1.4,1.9-4.1,2.3-6,0.9c-1.9-1.4-2.3-4.1-0.9-6c1.4-1.9,4.1-2.3,6-0.9
			C24.6,64.2,25,66.9,23.6,68.8z"/>
	</g>
	<g>
		<circle class="st3" cx="26.7" cy="74.3" r="2.7"/>
	</g>
	<g>
		<path class="st0" d="M66.7,78.2c0-1.2,1-2.2,2.2-2.2c1.2,0,2.2,1,2.2,2.2c0,1.2-1,2.2-2.2,2.2C67.7,80.4,66.7,79.4,66.7,78.2z"/>
	</g>
	<g class="st4">
		<path d="M48.2,39.2C48.2,39.2,48.2,39.2,48.2,39.2c-0.3,0-0.5-0.3-0.5-0.6c0.2-2,0-4-0.7-5.8c-0.1-0.3-0.2-0.5-0.3-0.8
			c-0.3-0.7-0.7-1.3-1.1-1.9c-1.3-1.9-3-3.3-4.2-4.2c-0.2-0.2-0.3-0.5-0.1-0.7c0.2-0.2,0.5-0.3,0.7-0.1c1.3,0.9,3.1,2.3,4.5,4.4
			c0.5,0.7,0.9,1.4,1.2,2.1c0.1,0.3,0.2,0.5,0.3,0.8c0.8,2,1,4.1,0.8,6.2C48.7,39,48.4,39.2,48.2,39.2z"/>
	</g>
	<g>
		<circle class="st3" cx="23.6" cy="38.5" r="1.5"/>
	</g>
	<g>
		<circle class="st0" cx="41.6" cy="25.9" r="1.5"/>
	</g>
	<g>
		<circle class="st6" cx="65.8" cy="30.3" r="1.5"/>
	</g>
	<g>
		<path class="st6" d="M92.2,45.1c-0.2,0-0.4,0-0.6,0l0.2-1c0.3,0,0.6,0,0.8,0l0.2,1C92.6,45.1,92.4,45.1,92.2,45.1z M90.5,44.7
			c-0.3-0.2-0.6-0.4-0.9-0.7l0.8-0.6c0.2,0.2,0.4,0.4,0.6,0.5L90.5,44.7z M93.9,44.7l-0.5-0.9c0.2-0.1,0.4-0.3,0.6-0.5l0.8,0.6
			C94.5,44.2,94.2,44.5,93.9,44.7z M89.1,43c-0.1-0.4-0.2-0.8-0.2-1.1l1,0c0,0.3,0.1,0.6,0.1,0.8L89.1,43z M95.4,42.9l-0.9-0.3
			c0.1-0.3,0.1-0.5,0.1-0.8l1-0.1v0.1C95.6,42.2,95.5,42.6,95.4,42.9z M90,41L89,40.7c0.1-0.4,0.3-0.7,0.6-1l0.8,0.6
			C90.2,40.5,90.1,40.7,90,41z M94.4,40.9c-0.1-0.3-0.2-0.5-0.4-0.7l0.8-0.7c0.3,0.3,0.5,0.6,0.6,1L94.4,40.9z M91,39.7l-0.5-0.9
			c0.3-0.2,0.7-0.3,1.1-0.4l0.2,1C91.5,39.5,91.2,39.6,91,39.7z M93.4,39.7c-0.2-0.1-0.5-0.2-0.8-0.3l0.2-1c0.4,0.1,0.8,0.2,1.1,0.4
			L93.4,39.7z"/>
	</g>
	<g>
		<polygon class="st7" points="36.7,8.9 36.5,6.7 40.6,4.4 40.4,6.5 37.8,9.2 		"/>
	</g>
	<g class="st1">
		<g>
			<path class="st0" d="M33.3,26.1c-0.3,0-0.7,0-1-0.1c-1.2-0.2-2.1-0.9-2.5-1.9c-0.9-1.9,0.3-4.3,2.7-5.4c1.1-0.5,2.3-0.7,3.3-0.4
				c1.2,0.2,2.1,0.9,2.5,1.9c0.9,1.9-0.3,4.3-2.7,5.4C34.9,25.9,34.1,26.1,33.3,26.1z M34.9,20.2c-0.5,0-1,0.1-1.5,0.3
				c-1.3,0.6-2.1,1.9-1.7,2.7c0.2,0.5,0.8,0.7,1.1,0.8c0.6,0.1,1.4,0,2.1-0.3c1.3-0.6,2.1-1.9,1.7-2.7c-0.2-0.5-0.8-0.7-1.1-0.8
				C35.3,20.2,35.1,20.2,34.9,20.2z"/>
		</g>
		<g>
			<path class="st0" d="M44.2,22.3c-1.9,0-3.6-1.1-4-2.8c-0.5-2,1.1-4.1,3.5-4.7c1.1-0.3,2.3-0.2,3.2,0.3c1,0.5,1.7,1.3,2,2.3
				c0.2,1,0,2.1-0.7,3c-0.7,0.8-1.6,1.4-2.8,1.7C45,22.3,44.6,22.3,44.2,22.3z M44.9,16.7c-0.2,0-0.5,0-0.8,0.1
				c-1.3,0.3-2.2,1.3-2,2.3c0.2,0.9,1.5,1.4,2.8,1.1c0.7-0.2,1.3-0.5,1.7-1c0.2-0.2,0.5-0.7,0.4-1.3l0,0c-0.1-0.6-0.6-0.9-0.9-1
				C45.7,16.8,45.3,16.7,44.9,16.7z"/>
		</g>
		<g>
			<polygon class="st0" points="38.5,21.3 36.5,21.3 36.5,7.1 48.7,0.2 48.7,17 46.7,17 46.7,3.6 38.5,8.2 			"/>
		</g>
		<g>
			<rect x="36.7" y="7.7" transform="matrix(0.8614 -0.5079 0.5079 0.8614 1.485 22.8587)" class="st0" width="11.8" height="2"/>
		</g>
	</g>
	<g class="st1">
		<g>
			<path class="st6" d="M88.2,38.2H73.5c-2.8,0-5-2.2-5-5v-5.7c0-2.8,2.2-5,5-5h14.8c2.8,0,5,2.2,5,5v5.7C93.2,36,91,38.2,88.2,38.2
				z M73.5,24.5c-1.7,0-3,1.3-3,3v5.7c0,1.7,1.3,3,3,3h14.8c1.7,0,3-1.3,3-3v-5.7c0-1.7-1.3-3-3-3H73.5z"/>
		</g>
		<g>
			<path class="st6" d="M76.1,36.5V24.3L87.8,30L76.1,36.5z M78.1,27.5v5.6l5.4-3L78.1,27.5z"/>
		</g>
	</g>
</g>
</svg>
