<?xml version="1.0" encoding="utf-8"?>
<!-- Generator: Adobe Illustrator 22.1.0, SVG Export Plug-In . SVG Version: 6.00 Build 0)  -->
<svg version="1.1" id="Layer_1" xmlns="http://www.w3.org/2000/svg" xmlns:xlink="http://www.w3.org/1999/xlink" x="0px" y="0px"
	 viewBox="0 0 40 40" style="enable-background:new 0 0 40 40;" xml:space="preserve">
<style type="text/css">
	.st0{fill:#8DC63F;}
	.st1{fill:#FFFFFF;}
</style>
<g>
	<path class="st0" d="M20,0C9,0,0,9,0,20s9,20,20,20s20-9,20-20S31,0,20,0z M29.9,21.7l-13.8,8c-0.3,0.2-0.7,0.3-1,0.3
		s-0.7-0.1-1-0.3c-0.6-0.4-1-1-1-1.7V12c0-0.7,0.4-1.4,1-1.7c0.6-0.4,1.4-0.4,2,0l13.8,8c0.6,0.4,1,1,1,1.7S30.5,21.4,29.9,21.7z"/>
	<polygon class="st0" points="15.1,28 28.9,20 15.1,12 	"/>
	<path class="st1" d="M29.9,18.3l-13.8-8c-0.6-0.4-1.4-0.4-2,0s-1,1-1,1.7v16c0,0.7,0.4,1.4,1,1.7c0.3,0.2,0.7,0.3,1,0.3
		s0.7-0.1,1-0.3l13.8-8c0.6-0.4,1-1,1-1.7S30.5,18.6,29.9,18.3z M15.1,28V12l13.8,8L15.1,28z"/>
</g>
</svg>
