<?xml version="1.0" encoding="utf-8"?>
<!-- Generator: Adobe Illustrator 22.1.0, SVG Export Plug-In . SVG Version: 6.00 Build 0)  -->
<svg version="1.1" id="Isolation_Mode" xmlns="http://www.w3.org/2000/svg" xmlns:xlink="http://www.w3.org/1999/xlink" x="0px"
	 y="0px" viewBox="0 0 22 22" style="enable-background:new 0 0 22 22;" xml:space="preserve">
<style type="text/css">
	.st0{fill:url(#SVGID_1_);}
</style>
<linearGradient id="SVGID_1_" gradientUnits="userSpaceOnUse" x1="1.5776" y1="22.9919" x2="20.5614" y2="4.0081">
	<stop  offset="0" style="stop-color:#8BC53F"/>
	<stop  offset="1" style="stop-color:#0096DB"/>
</linearGradient>
<path class="st0" d="M10.4,5.2c0.2,0.1,0.4,0.2,0.6,0.2c0.2,0,0.4-0.1,0.5-0.2l5.1-3.3c0.5-0.3,0.6-0.9,0.3-1.4
	c-0.3-0.5-0.9-0.6-1.4-0.3l-4.6,3l-4.3-3C6.2-0.1,5.6,0,5.3,0.4C5,0.9,5.1,1.5,5.6,1.8L10.4,5.2z M21,7.5H1c-0.6,0-1,0.4-1,1V21
	c0,0.6,0.4,1,1,1h20c0.6,0,1-0.4,1-1V8.5C22,7.9,21.6,7.5,21,7.5z M20,20H2V9.5h18V20z"/>
</svg>
