<?xml version="1.0" encoding="utf-8"?>
<!-- Generator: Adobe Illustrator 22.1.0, SVG Export Plug-In . SVG Version: 6.00 Build 0)  -->
<svg version="1.1" id="Capa_1" xmlns="http://www.w3.org/2000/svg" xmlns:xlink="http://www.w3.org/1999/xlink" x="0px" y="0px"
	 viewBox="0 0 46 46" style="enable-background:new 0 0 46 46;" xml:space="preserve">
<style type="text/css">
	.st0{fill:#00ACED;}
	.st1{fill:#FFFFFF;}
</style>
<g>
	<path class="st0" d="M40,0H6C2.7,0,0,2.7,0,6v34c0,3.3,2.7,6,6,6h34c3.3,0,6-2.7,6-6V6C46,2.7,43.3,0,40,0z M35.3,16.7
		c0,0.3,0,0.5,0,0.8c0,8.3-6.4,18-18.1,18c-3.6,0-6.9-1-9.7-2.8c0.5,0.1,1,0.1,1.5,0.1c3,0,5.7-1,7.9-2.7c-2.8-0.1-5.1-1.9-5.9-4.4
		c0.4,0.1,0.8,0.1,1.2,0.1c0.6,0,1.1-0.1,1.7-0.2c-2.9-0.6-5.1-3.1-5.1-6.2c0,0,0-0.1,0-0.1c0.9,0.5,1.8,0.8,2.9,0.8
		c-1.7-1.1-2.8-3.1-2.8-5.3c0-1.2,0.3-2.2,0.9-3.2c3.1,3.8,7.8,6.3,13.1,6.6c-0.1-0.5-0.2-0.9-0.2-1.4c0-3.5,2.8-6.3,6.4-6.3
		c1.8,0,3.5,0.8,4.6,2c1.4-0.3,2.8-0.8,4-1.5c-0.5,1.5-1.5,2.7-2.8,3.5c1.3-0.2,2.5-0.5,3.7-1C37.6,14.7,36.6,15.8,35.3,16.7z"/>
	<path class="st1" d="M37.6,11c-1.2,0.7-2.6,1.2-4,1.5c-1.2-1.2-2.8-2-4.6-2c-3.5,0-6.4,2.8-6.4,6.3c0,0.5,0.1,1,0.2,1.4
		c-5.3-0.3-10-2.8-13.1-6.6c-0.5,0.9-0.9,2-0.9,3.2c0,2.2,1.1,4.1,2.8,5.3c-1,0-2-0.3-2.9-0.8c0,0,0,0.1,0,0.1
		c0,3.1,2.2,5.6,5.1,6.2c-0.5,0.1-1.1,0.2-1.7,0.2c-0.4,0-0.8,0-1.2-0.1c0.8,2.5,3.2,4.3,5.9,4.4c-2.2,1.7-4.9,2.7-7.9,2.7
		c-0.5,0-1,0-1.5-0.1c2.8,1.8,6.2,2.8,9.7,2.8c11.7,0,18.1-9.6,18.1-18c0-0.3,0-0.5,0-0.8c1.2-0.9,2.3-2,3.2-3.3
		c-1.1,0.5-2.4,0.8-3.7,1C36.2,13.7,37.2,12.4,37.6,11z"/>
</g>
</svg>
