<?xml version="1.0" encoding="utf-8"?>
<!-- Generator: Adobe Illustrator 22.1.0, SVG Export Plug-In . SVG Version: 6.00 Build 0)  -->
<svg version="1.1" id="Layer_1" xmlns="http://www.w3.org/2000/svg" xmlns:xlink="http://www.w3.org/1999/xlink" x="0px" y="0px"
	 viewBox="0 0 28.7 21" style="enable-background:new 0 0 28.7 21;" xml:space="preserve">
<style type="text/css">
	.st0{fill:#FFFFFF;}
</style>
<path class="st0" d="M19.6,2.8H7.1c0,0-0.1,0-0.1,0V1c0-0.8-0.8-1.3-1.5-0.9L0.5,3c-0.7,0.4-0.7,1.3,0,1.7l5,2.9
	C6.2,8.1,7,7.6,7,6.8v-2c0,0,0.1,0,0.1,0h12.4c3.9,0,7.1,3.2,7.1,7.1S23.5,19,19.6,19h-5.9c-0.6,0-1,0.4-1,1s0.4,1,1,1h5.9
	c5,0,9.1-4.1,9.1-9.1C28.7,6.9,24.6,2.8,19.6,2.8z"/>
</svg>
