<?xml version="1.0" encoding="utf-8"?>
<!-- Generator: Adobe Illustrator 22.1.0, SVG Export Plug-In . SVG Version: 6.00 Build 0)  -->
<svg version="1.1" id="Layer_1" xmlns="http://www.w3.org/2000/svg" xmlns:xlink="http://www.w3.org/1999/xlink" x="0px" y="0px"
	 viewBox="0 0 19 20.1" style="enable-background:new 0 0 19 20.1;" xml:space="preserve">
<style type="text/css">
	.st0{fill:url(#SVGID_1_);}
</style>
<linearGradient id="SVGID_1_" gradientUnits="userSpaceOnUse" x1="-0.2717" y1="18.0549" x2="15.7131" y2="2.0701">
	<stop  offset="0" style="stop-color:#D51F53"/>
	<stop  offset="1" style="stop-color:#F15A22"/>
</linearGradient>
<path class="st0" d="M14.4,13.3c-0.6,0-1,0.4-1,1v2.6c0,0.7-0.4,1.2-0.9,1.2H2.9c-0.5,0-0.9-0.6-0.9-1.2V3.2C2,2.6,2.4,2,2.9,2h9.6
	c0.5,0,0.9,0.6,0.9,1.2c0,0.6,0.4,1,1,1s1-0.4,1-1c0-1.8-1.3-3.2-2.9-3.2H2.9C1.3,0,0,1.4,0,3.2v13.7c0,1.8,1.3,3.2,2.9,3.2h9.6
	c1.6,0,2.9-1.4,2.9-3.2v-2.6C15.4,13.7,15,13.3,14.4,13.3z M12.1,11.7H3.9c-0.6,0-1,0.4-1,1s0.4,1,1,1h8.2c0.6,0,1-0.4,1-1
	S12.6,11.7,12.1,11.7z M12.1,15.5H3.9c-0.6,0-1,0.4-1,1s0.4,1,1,1h8.2c0.6,0,1-0.4,1-1S12.6,15.5,12.1,15.5z M18.7,13.4l-2.8-2.8
	c-0.4-0.4-1-0.4-1.4,0s-0.4,1,0,1.4l2.8,2.8c0.2,0.2,0.5,0.3,0.7,0.3s0.5-0.1,0.7-0.3C19.1,14.4,19.1,13.8,18.7,13.4z M14.9,7.1
	c0-2.4-1.9-4.3-4.3-4.3c-1.8,0-3.3,1-3.9,2.5c0-0.1,0.1-0.2,0.1-0.2c0-0.6-0.4-1-1-1H3.9c-0.6,0-1,0.4-1,1s0.4,1,1,1h1.8
	C6,6,6.3,5.8,6.5,5.5C6.3,6,6.2,6.5,6.2,7.1c0,0.3,0,0.5,0.1,0.8c0,0,0,0,0,0H3.9c-0.6,0-1,0.4-1,1s0.4,1,1,1h2.4
	c0.3,0,0.5-0.1,0.7-0.3c0.8,1.1,2.1,1.9,3.6,1.9C12.9,11.4,14.9,9.5,14.9,7.1z M10.6,9.4c-1.3,0-2.3-1-2.3-2.3s1-2.3,2.3-2.3
	s2.3,1,2.3,2.3S11.8,9.4,10.6,9.4z M10.6,5c-0.3,0-0.5,0.3-0.5,0.5S10.4,6,10.6,6c0.4,0,0.7,0.2,0.8,0.4c0.1,0.2,0.3,0.3,0.5,0.3
	c0.1,0,0.1,0,0.2,0c0.3-0.1,0.4-0.4,0.2-0.7C12.1,5.4,11.3,5,10.6,5z"/>
</svg>
