<?xml version="1.0" encoding="utf-8"?>
<!-- Generator: Adobe Illustrator 22.1.0, SVG Export Plug-In . SVG Version: 6.00 Build 0)  -->
<svg version="1.1" id="Layer_1" xmlns="http://www.w3.org/2000/svg" xmlns:xlink="http://www.w3.org/1999/xlink" x="0px" y="0px"
	 viewBox="0 0 24 19" style="enable-background:new 0 0 24 19;" xml:space="preserve">
<style type="text/css">
	.st0{fill:url(#SVGID_1_);}
</style>
<linearGradient id="SVGID_1_" gradientUnits="userSpaceOnUse" x1="1.1996" y1="18.614" x2="18.614" y2="1.1996">
	<stop  offset="0" style="stop-color:#D51F53"/>
	<stop  offset="1" style="stop-color:#F15A22"/>
</linearGradient>
<path class="st0" d="M17.2,5.5c-3.7,0-6.8,3-6.8,6.8s3,6.8,6.8,6.8s6.8-3,6.8-6.8S21,5.5,17.2,5.5z M17.2,17c-2.6,0-4.8-2.1-4.8-4.8
	s2.1-4.8,4.8-4.8S22,9.6,22,12.2S19.9,17,17.2,17z M18.2,9.8c0-0.6-0.4-1-1-1s-1,0.4-1,1V12c0,0,0,0.1,0,0.1c0,0.1,0,0.1,0,0.2
	c0,0.1,0,0.1,0.1,0.2c0,0.1,0.1,0.1,0.1,0.2c0,0.1,0.1,0.1,0.2,0.1c0,0,0.1,0.1,0.1,0.1l3,1.8c0.2,0.1,0.3,0.1,0.5,0.1
	c0.3,0,0.7-0.2,0.9-0.5c0.3-0.5,0.1-1.1-0.4-1.4l-2.5-1.5V9.8z M1,2h16c0.6,0,1-0.4,1-1s-0.4-1-1-1H1C0.4,0,0,0.4,0,1S0.4,2,1,2z
	 M1,6h11c0.6,0,1-0.4,1-1s-0.4-1-1-1H1C0.4,4,0,4.4,0,5S0.4,6,1,6z M1,10h8c0.6,0,1-0.4,1-1S9.6,8,9,8H1C0.4,8,0,8.4,0,9
	S0.4,10,1,10z M1,14h7c0.6,0,1-0.4,1-1s-0.4-1-1-1H1c-0.6,0-1,0.4-1,1S0.4,14,1,14z M10,16H1c-0.6,0-1,0.4-1,1s0.4,1,1,1h9
	c0.6,0,1-0.4,1-1S10.6,16,10,16z"/>
</svg>
