<?xml version="1.0" encoding="utf-8"?>
<!-- Generator: Adobe Illustrator 22.1.0, SVG Export Plug-In . SVG Version: 6.00 Build 0)  -->
<svg version="1.1" id="Layer_1" xmlns="http://www.w3.org/2000/svg" xmlns:xlink="http://www.w3.org/1999/xlink" x="0px" y="0px"
	 viewBox="0 0 20 20" style="enable-background:new 0 0 20 20;" xml:space="preserve">
<style type="text/css">
	.st0{fill:#FFFFFF;}
</style>
<path class="st0" d="M15.9,7.7H19c0.6,0,1-0.5,1-1c0-0.6-0.4-1-1-1h-3.1c-1.2,0-2.2-1-2.2-2.3V1c0-0.6-0.4-1-1-1s-1,0.5-1,1v2.4
	C11.6,5.8,13.5,7.7,15.9,7.7z M7.4,0c-0.6,0-1,0.5-1,1v2.4c0,1.3-1,2.3-2.2,2.3H1c-0.6,0-1,0.5-1,1c0,0.6,0.4,1,1,1h3.1
	c2.3,0,4.2-1.9,4.2-4.3V1C8.4,0.5,7.9,0,7.4,0z M4.1,12.3H1c-0.6,0-1,0.5-1,1c0,0.6,0.4,1,1,1h3.1c1.2,0,2.2,1,2.2,2.3V19
	c0,0.6,0.4,1,1,1s1-0.5,1-1v-2.4C8.4,14.2,6.5,12.3,4.1,12.3z M19,12.3h-3.1c-2.3,0-4.2,1.9-4.2,4.3V19c0,0.6,0.4,1,1,1s1-0.5,1-1
	v-2.4c0-1.3,1-2.3,2.2-2.3H19c0.6,0,1-0.5,1-1C20,12.7,19.6,12.3,19,12.3z"/>
</svg>
