<?xml version="1.0" encoding="utf-8"?>
<!-- Generator: Adobe Illustrator 22.1.0, SVG Export Plug-In . SVG Version: 6.00 Build 0)  -->
<svg version="1.1" id="Layer_1" xmlns="http://www.w3.org/2000/svg" xmlns:xlink="http://www.w3.org/1999/xlink" x="0px" y="0px"
	 viewBox="0 0 19.8 19.8" style="enable-background:new 0 0 19.8 19.8;" xml:space="preserve">
<style type="text/css">
	.st0{fill:#FFFFFF;}
</style>
<path class="st0" d="M6.7,17.8H4c-1.1,0-2-0.9-2-2V13c0-0.6-0.4-1-1-1s-1,0.4-1,1v2.7c0,2.2,1.8,4,4,4h2.7c0.6,0,1-0.4,1-1
	S7.3,17.8,6.7,17.8z M6.7,0H4C1.8,0,0,1.8,0,4v3c0,0.6,0.4,1,1,1s1-0.4,1-1V4c0-1.1,0.9-2,2-2h2.7c0.6,0,1-0.4,1-1S7.3,0,6.7,0z
	 M15.8,0h-2.2c-0.6,0-1,0.4-1,1s0.4,1,1,1h2.2c1.1,0,2,0.9,2,2v2.9c0,0.6,0.4,1,1,1s1-0.4,1-1V4C19.8,1.8,18,0,15.8,0z M18.8,12.1
	c-0.6,0-1,0.4-1,1v2.7c0,1.1-0.9,2-2,2h-2.2c-0.6,0-1,0.4-1,1s0.4,1,1,1h2.2c2.2,0,4-1.8,4-4v-2.7C19.8,12.6,19.3,12.1,18.8,12.1z"
	/>
</svg>
