<?xml version="1.0" encoding="utf-8"?>
<!-- Generator: Adobe Illustrator 22.1.0, SVG Export Plug-In . SVG Version: 6.00 Build 0)  -->
<svg version="1.1" id="Layer_1" xmlns="http://www.w3.org/2000/svg" xmlns:xlink="http://www.w3.org/1999/xlink" x="0px" y="0px"
	 viewBox="0 0 21.5 18" style="enable-background:new 0 0 21.5 18;" xml:space="preserve">
<style type="text/css">
	.st0{fill:#FFFFFF;}
</style>
<path class="st0" d="M10.4,0.1C10-0.1,9.6,0,9.3,0.3L4.6,5H1C0.4,5,0,5.4,0,6v6c0,0.6,0.4,1,1,1h3.6l4.7,4.7C9.5,17.9,9.7,18,10,18
	c0.1,0,0.3,0,0.4-0.1c0.4-0.2,0.6-0.5,0.6-0.9V1C11,0.6,10.8,0.2,10.4,0.1z M9,14.6l-3.3-3.3C5.5,11.1,5.3,11,5,11H2V7h3
	c0.3,0,0.5-0.1,0.7-0.3L9,3.4V14.6z M18.4,9l2.8-2.8c0.4-0.4,0.4-1,0-1.4s-1-0.4-1.4,0L17,7.6l-2.8-2.8c-0.4-0.4-1-0.4-1.4,0
	s-0.4,1,0,1.4L15.6,9l-2.8,2.8c-0.4,0.4-0.4,1,0,1.4c0.2,0.2,0.5,0.3,0.7,0.3s0.5-0.1,0.7-0.3l2.8-2.8l2.8,2.8
	c0.2,0.2,0.5,0.3,0.7,0.3s0.5-0.1,0.7-0.3c0.4-0.4,0.4-1,0-1.4L18.4,9z"/>
</svg>
