<?xml version="1.0" encoding="utf-8"?>
<!-- Generator: Adobe Illustrator 22.1.0, SVG Export Plug-In . SVG Version: 6.00 Build 0)  -->
<svg version="1.1" id="Layer_1" xmlns="http://www.w3.org/2000/svg" xmlns:xlink="http://www.w3.org/1999/xlink" x="0px" y="0px"
	 viewBox="0 0 1161 162.7" style="enable-background:new 0 0 1161 162.7;" xml:space="preserve">
<style type="text/css">
	.st0{fill:#FFFFFF;}
</style>
<path class="st0" d="M704.4,81.4l2.8-2.8c0.4-0.4,0.4-1,0-1.4s-1-0.4-1.4,0l-2.8,2.8l-2.8-2.8c-0.4-0.4-1-0.4-1.4,0s-0.4,1,0,1.4
	l2.8,2.8l-2.8,2.8c-0.4,0.4-0.4,1,0,1.4c0.2,0.2,0.5,0.3,0.7,0.3s0.5-0.1,0.7-0.3l2.8-2.8l2.8,2.8c0.2,0.2,0.5,0.3,0.7,0.3
	s0.5-0.1,0.7-0.3c0.4-0.4,0.4-1,0-1.4L704.4,81.4z M696.4,72.4c-0.4-0.2-0.8-0.1-1.1,0.2l-4.7,4.7H687c-0.6,0-1,0.4-1,1v6
	c0,0.6,0.4,1,1,1h3.6l4.7,4.7c0.2,0.2,0.4,0.3,0.7,0.3c0.1,0,0.3,0,0.4-0.1c0.4-0.2,0.6-0.5,0.6-0.9v-16
	C697,72.9,696.8,72.6,696.4,72.4z M695,86.9l-3.3-3.3c-0.2-0.2-0.4-0.3-0.7-0.3h-3v-4h3c0.3,0,0.5-0.1,0.7-0.3l3.3-3.3V86.9z"/>
</svg>
