<?xml version="1.0" encoding="utf-8"?>
<!-- Generator: Adobe Illustrator 22.1.0, SVG Export Plug-In . SVG Version: 6.00 Build 0)  -->
<svg version="1.1" id="Layer_1" xmlns="http://www.w3.org/2000/svg" xmlns:xlink="http://www.w3.org/1999/xlink" x="0px" y="0px"
	 viewBox="0 0 19.4 22.6" style="enable-background:new 0 0 19.4 22.6;" xml:space="preserve">
<style type="text/css">
	.st0{fill:#FFFFFF;}
</style>
<path class="st0" d="M8.6,8.2C8.8,8.4,9,8.4,9.2,8.4c0.3,0,0.5-0.1,0.7-0.3c0.4-0.4,0.3-1-0.1-1.4L7.3,4.3l2.4-2.6
	c0.4-0.4,0.3-1-0.1-1.4c-0.4-0.4-1-0.3-1.4,0.1L5.1,3.7C4.9,3.9,4.9,4.2,4.9,4.4c0,0.3,0.1,0.5,0.3,0.7L8.6,8.2z M9.6,3
	c-0.6,0-1,0.4-1,1s0.4,1,1,1c4.3,0,7.8,3.5,7.8,7.8s-3.5,7.8-7.8,7.8c-3.7,0-6.9-2.6-7.6-6.2c-0.1-0.5-0.6-0.9-1.2-0.8
	c-0.5,0.1-0.9,0.6-0.8,1.2c0.9,4.5,4.9,7.9,9.6,7.9c5.4,0,9.8-4.4,9.8-9.8S15,3,9.6,3z"/>
</svg>
