<?xml version="1.0" encoding="utf-8"?>
<!-- Generator: Adobe Illustrator 22.1.0, SVG Export Plug-In . SVG Version: 6.00 Build 0)  -->
<svg version="1.1" id="Layer_1" xmlns="http://www.w3.org/2000/svg" xmlns:xlink="http://www.w3.org/1999/xlink" x="0px" y="0px"
	 viewBox="0 0 20.4 18" style="enable-background:new 0 0 20.4 18;" xml:space="preserve">
<style type="text/css">
	.st0{fill:#FFFFFF;}
</style>
<path class="st0" d="M10.4,0.1C10-0.1,9.6,0,9.3,0.3L4.6,5H1C0.4,5,0,5.4,0,6v6c0,0.6,0.4,1,1,1h3.6l4.7,4.7C9.5,17.9,9.7,18,10,18
	c0.1,0,0.3,0,0.4-0.1c0.4-0.2,0.6-0.5,0.6-0.9V1C11,0.6,10.8,0.2,10.4,0.1z M9,14.6l-3.3-3.3C5.5,11.1,5.3,11,5,11H2V7h3
	c0.3,0,0.5-0.1,0.7-0.3L9,3.4V14.6z M13.2,0.2C12.7,0.1,12.1,0.4,12,1s0.2,1.1,0.8,1.2C16,2.8,18.4,5.7,18.4,9
	c0,3.3-2.3,6.2-5.6,6.9C12.3,16,11.9,16.5,12,17c0.1,0.5,0.5,0.8,1,0.8c0.1,0,0.1,0,0.2,0c4.2-0.9,7.2-4.6,7.2-8.8
	C20.4,4.8,17.4,1,13.2,0.2z M12.8,10.5c-0.5,0.1-0.9,0.6-0.8,1.2c0.1,0.5,0.5,0.8,1,0.8c0.1,0,0.1,0,0.2,0C14.8,12.1,16,10.7,16,9
	s-1.2-3.1-2.8-3.4c-0.5-0.1-1.1,0.2-1.2,0.8c-0.1,0.5,0.2,1.1,0.8,1.2C13.5,7.7,14,8.3,14,9S13.5,10.3,12.8,10.5z"/>
</svg>
